AfacadFlux-Backslant.ufo
<glyph name="exclam" format="2">
  <advance width="480"/>
  <unicode hex="0021"/>
  <outline>
    <contour>
      <point x="193" y="300" type="line"/>
      <point x="289" y="300" type="line"/>
      <point x="144" y="900" type="line"/>
      <point x="36" y="900" type="line"/>
    </contour>
    <contour>
      <point x="308" y="-12" type="curve" smooth="yes"/>
      <point x="344" y="-12"/>
      <point x="374" y="17"/>
      <point x="374" y="54" type="curve" smooth="yes"/>
      <point x="374" y="99"/>
      <point x="335" y="138"/>
      <point x="290" y="138" type="curve" smooth="yes"/>
      <point x="254" y="138"/>
      <point x="224" y="110"/>
      <point x="224" y="72" type="curve" smooth="yes"/>
      <point x="224" y="27"/>
      <point x="263" y="-12"/>
    </contour>
  </outline>
</glyph>
<glyph name="numbersign" format="2">
  <advance width="750"/>
  <unicode hex="0023"/>
  <outline>
    <contour>
      <point x="335" y="0" type="line"/>
      <point x="431" y="0" type="line"/>
      <point x="334" y="234" type="line"/>
      <point x="520" y="234" type="line"/>
      <point x="617" y="0" type="line"/>
      <point x="713" y="0" type="line"/>
      <point x="616" y="234" type="line"/>
      <point x="728" y="234" type="line"/>
      <point x="693" y="318" type="line"/>
      <point x="581" y="318" type="line"/>
      <point x="473" y="582" type="line"/>
      <point x="589" y="582" type="line"/>
      <point x="554" y="666" type="line"/>
      <point x="438" y="666" type="line"/>
      <point x="341" y="900" type="line"/>
      <point x="245" y="900" type="line"/>
      <point x="342" y="666" type="line"/>
      <point x="156" y="666" type="line"/>
      <point x="59" y="900" type="line"/>
      <point x="-37" y="900" type="line"/>
      <point x="60" y="666" type="line"/>
      <point x="-54" y="666" type="line"/>
      <point x="-19" y="582" type="line"/>
      <point x="95" y="582" type="line"/>
      <point x="203" y="318" type="line"/>
      <point x="85" y="318" type="line"/>
      <point x="120" y="234" type="line"/>
      <point x="238" y="234" type="line"/>
    </contour>
    <contour>
      <point x="297" y="314" type="line"/>
      <point x="185" y="586" type="line"/>
      <point x="379" y="586" type="line"/>
      <point x="491" y="314" type="line"/>
    </contour>
  </outline>
</glyph>
<glyph name="dollar" format="2">
  <advance width="750"/>
  <unicode hex="0024"/>
  <outline>
    <contour>
      <point x="453" y="-120" type="line"/>
      <point x="537" y="-120" type="line"/>
      <point x="507" y="1" type="line"/>
      <point x="607" y="32"/>
      <point x="672" y="115"/>
      <point x="672" y="226" type="curve" smooth="yes"/>
      <point x="672" y="355"/>
      <point x="583" y="460"/>
      <point x="429" y="512" type="curve" smooth="yes"/>
      <point x="304" y="554" type="line" smooth="yes"/>
      <point x="220" y="582"/>
      <point x="174" y="634"/>
      <point x="174" y="699" type="curve" smooth="yes"/>
      <point x="174" y="767"/>
      <point x="223" y="812"/>
      <point x="294" y="812" type="curve" smooth="yes"/>
      <point x="359" y="812"/>
      <point x="431" y="776"/>
      <point x="484" y="718" type="curve"/>
      <point x="484" y="858" type="line"/>
      <point x="427" y="893"/>
      <point x="359" y="912"/>
      <point x="279" y="912" type="curve"/>
      <point x="259" y="990" type="line"/>
      <point x="175" y="990" type="line"/>
      <point x="199" y="897" type="line"/>
      <point x="115" y="868"/>
      <point x="62" y="797"/>
      <point x="62" y="701" type="curve" smooth="yes"/>
      <point x="62" y="586"/>
      <point x="138" y="497"/>
      <point x="281" y="447" type="curve" smooth="yes"/>
      <point x="402" y="405" type="line" smooth="yes"/>
      <point x="506" y="369"/>
      <point x="560" y="310"/>
      <point x="560" y="232" type="curve" smooth="yes"/>
      <point x="560" y="147"/>
      <point x="497" y="90"/>
      <point x="409" y="90" type="curve" smooth="yes"/>
      <point x="332" y="90"/>
      <point x="249" y="135"/>
      <point x="190" y="209" type="curve"/>
      <point x="190" y="70" type="line"/>
      <point x="253" y="18"/>
      <point x="336" y="-12"/>
      <point x="426" y="-12" type="curve"/>
    </contour>
  </outline>
</glyph>
<glyph name="ampersand" format="2">
  <advance width="800"/>
  <unicode hex="0026"/>
  <outline>
    <contour>
      <point x="397" y="-10" type="curve" smooth="yes"/>
      <point x="480" y="-10"/>
      <point x="561" y="22"/>
      <point x="620" y="79" type="curve"/>
      <point x="697" y="0" type="line"/>
      <point x="839" y="0" type="line"/>
      <point x="689" y="155" type="line"/>
      <point x="733" y="219"/>
      <point x="755" y="276"/>
      <point x="764" y="346" type="curve"/>
      <point x="658" y="442" type="line"/>
      <point x="669" y="370"/>
      <point x="656" y="306"/>
      <point x="617" y="230" type="curve"/>
      <point x="354" y="501" type="line"/>
      <point x="382" y="523" type="line" smooth="yes"/>
      <point x="450" y="576"/>
      <point x="484" y="635"/>
      <point x="484" y="700" type="curve" smooth="yes"/>
      <point x="484" y="814"/>
      <point x="381" y="912"/>
      <point x="259" y="912" type="curve" smooth="yes"/>
      <point x="148" y="912"/>
      <point x="62" y="830"/>
      <point x="62" y="723" type="curve" smooth="yes"/>
      <point x="62" y="660"/>
      <point x="91" y="609"/>
      <point x="141" y="559" type="curve" smooth="yes"/>
      <point x="201" y="499" type="line"/>
      <point x="126" y="435"/>
      <point x="90" y="364"/>
      <point x="90" y="283" type="curve" smooth="yes"/>
      <point x="90" y="125"/>
      <point x="228" y="-10"/>
    </contour>
    <contour>
      <point x="399" y="88" type="curve" smooth="yes"/>
      <point x="290" y="88"/>
      <point x="201" y="180"/>
      <point x="201" y="289" type="curve" smooth="yes"/>
      <point x="201" y="345"/>
      <point x="224" y="393"/>
      <point x="272" y="438" type="curve"/>
      <point x="553" y="148" type="line"/>
      <point x="506" y="109"/>
      <point x="451" y="88"/>
    </contour>
    <contour>
      <point x="283" y="564" type="line"/>
      <point x="225" y="620" type="line" smooth="yes"/>
      <point x="183" y="660"/>
      <point x="168" y="688"/>
      <point x="168" y="723" type="curve" smooth="yes"/>
      <point x="168" y="779"/>
      <point x="209" y="816"/>
      <point x="263" y="816" type="curve" smooth="yes"/>
      <point x="326" y="816"/>
      <point x="376" y="766"/>
      <point x="376" y="702" type="curve" smooth="yes"/>
      <point x="376" y="663"/>
      <point x="355" y="623"/>
      <point x="318" y="593" type="curve" smooth="yes"/>
    </contour>
  </outline>
</glyph>
<glyph name="quotesingle" format="2">
  <advance width="270"/>
  <unicode hex="0027"/>
  <outline>
    <contour>
      <point x="35" y="570" type="line"/>
      <point x="101" y="570" type="line"/>
      <point x="53" y="900" type="line"/>
      <point x="-85" y="900" type="line"/>
    </contour>
  </outline>
</glyph>
<glyph name="parenleft" format="2">
  <advance width="480"/>
  <unicode hex="0028"/>
  <outline>
    <contour>
      <point x="395" y="-180" type="curve"/>
      <point x="530" y="-180" type="line"/>
      <point x="295" y="39"/>
      <point x="164" y="342"/>
      <point x="164" y="633" type="curve" smooth="yes"/>
      <point x="164" y="750"/>
      <point x="185" y="860"/>
      <point x="226" y="960" type="curve"/>
      <point x="112" y="960" type="line"/>
      <point x="76" y="857"/>
      <point x="56" y="746"/>
      <point x="56" y="631" type="curve" smooth="yes"/>
      <point x="56" y="339"/>
      <point x="181" y="47"/>
    </contour>
  </outline>
</glyph>
<glyph name="parenright" format="2">
  <advance width="480"/>
  <unicode hex="0029"/>
  <outline>
    <contour>
      <point x="200" y="-180" type="curve"/>
      <point x="314" y="-180" type="line"/>
      <point x="350" y="-77"/>
      <point x="370" y="34"/>
      <point x="370" y="149" type="curve" smooth="yes"/>
      <point x="370" y="441"/>
      <point x="245" y="733"/>
      <point x="31" y="960" type="curve"/>
      <point x="-104" y="960" type="line"/>
      <point x="131" y="741"/>
      <point x="262" y="438"/>
      <point x="262" y="147" type="curve" smooth="yes"/>
      <point x="262" y="30"/>
      <point x="241" y="-80"/>
    </contour>
  </outline>
</glyph>
<glyph name="asterisk" format="2">
  <advance width="600"/>
  <unicode hex="002A"/>
  <outline>
    <contour>
      <point x="161" y="401" type="line"/>
      <point x="228" y="586" type="line"/>
      <point x="380" y="428" type="line"/>
      <point x="442" y="493" type="line"/>
      <point x="272" y="635" type="line"/>
      <point x="458" y="710" type="line"/>
      <point x="407" y="796" type="line"/>
      <point x="235" y="698" type="line"/>
      <point x="198" y="900" type="line"/>
      <point x="102" y="900" type="line"/>
      <point x="166" y="690" type="line"/>
      <point x="-42" y="741" type="line"/>
      <point x="-50" y="648" type="line"/>
      <point x="162" y="621" type="line"/>
      <point x="71" y="447" type="line"/>
    </contour>
  </outline>
</glyph>
<glyph name="plus" format="2">
  <advance width="750"/>
  <unicode hex="002B"/>
  <outline>
    <contour>
      <point x="369" y="135" type="line"/>
      <point x="465" y="135" type="line"/>
      <point x="397" y="405" type="line"/>
      <point x="664" y="405" type="line"/>
      <point x="642" y="495" type="line"/>
      <point x="375" y="495" type="line"/>
      <point x="307" y="765" type="line"/>
      <point x="211" y="765" type="line"/>
      <point x="279" y="495" type="line"/>
      <point x="12" y="495" type="line"/>
      <point x="34" y="405" type="line"/>
      <point x="301" y="405" type="line"/>
    </contour>
  </outline>
</glyph>
<glyph name="hyphen" format="2">
  <advance width="360"/>
  <unicode hex="002D"/>
  <outline>
    <contour>
      <point x="42" y="252" type="line"/>
      <point x="342" y="252" type="line"/>
      <point x="318" y="348" type="line"/>
      <point x="18" y="348" type="line"/>
    </contour>
  </outline>
</glyph>
<glyph name="period" format="2">
  <advance width="270"/>
  <unicode hex="002E"/>
  <outline>
    <contour>
      <point x="203" y="-12" type="curve" smooth="yes"/>
      <point x="249" y="-12"/>
      <point x="280" y="29"/>
      <point x="269" y="75" type="curve" smooth="yes"/>
      <point x="259" y="115"/>
      <point x="221" y="144"/>
      <point x="183" y="144" type="curve" smooth="yes"/>
      <point x="137" y="144"/>
      <point x="106" y="103"/>
      <point x="117" y="57" type="curve" smooth="yes"/>
      <point x="127" y="18"/>
      <point x="165" y="-12"/>
    </contour>
  </outline>
</glyph>
<glyph name="slash" format="2">
  <advance width="480"/>
  <unicode hex="002F"/>
  <outline>
    <contour>
      <point x="36" y="-180" type="line"/>
      <point x="130" y="-180" type="line"/>
      <point x="400" y="960" type="line"/>
      <point x="306" y="960" type="line"/>
    </contour>
  </outline>
</glyph>
<glyph name="zero" format="2">
  <advance width="750"/>
  <unicode hex="0030"/>
  <outline>
    <contour>
      <point x="420" y="-12" type="curve" smooth="yes"/>
      <point x="568" y="-12"/>
      <point x="666" y="118"/>
      <point x="666" y="314" type="curve" smooth="yes"/>
      <point x="666" y="621"/>
      <point x="466" y="912"/>
      <point x="256" y="912" type="curve" smooth="yes"/>
      <point x="107" y="912"/>
      <point x="10" y="784"/>
      <point x="10" y="588" type="curve" smooth="yes"/>
      <point x="10" y="277"/>
      <point x="208" y="-12"/>
    </contour>
    <contour>
      <point x="410" y="90" type="curve" smooth="yes"/>
      <point x="268" y="90"/>
      <point x="124" y="342"/>
      <point x="124" y="590" type="curve" smooth="yes"/>
      <point x="124" y="729"/>
      <point x="176" y="810"/>
      <point x="266" y="810" type="curve" smooth="yes"/>
      <point x="406" y="810"/>
      <point x="552" y="556"/>
      <point x="552" y="311" type="curve" smooth="yes"/>
      <point x="552" y="176"/>
      <point x="496" y="90"/>
    </contour>
  </outline>
</glyph>
<glyph name="one" format="2">
  <advance width="750"/>
  <unicode hex="0031"/>
  <outline>
    <contour>
      <point x="237" y="0" type="line"/>
      <point x="723" y="0" type="line"/>
      <point x="700" y="90" type="line"/>
      <point x="532" y="90" type="line"/>
      <point x="325" y="920" type="line"/>
      <point x="323" y="920" type="line"/>
      <point x="47" y="760" type="line"/>
      <point x="73" y="658" type="line"/>
      <point x="255" y="764" type="line"/>
      <point x="422" y="90" type="line"/>
      <point x="214" y="90" type="line"/>
    </contour>
  </outline>
</glyph>
<glyph name="two" format="2">
  <advance width="750"/>
  <unicode hex="0032"/>
  <outline>
    <contour>
      <point x="184" y="0" type="line"/>
      <point x="714" y="0" type="line"/>
      <point x="688" y="102" type="line"/>
      <point x="340" y="102" type="line"/>
      <point x="507" y="506" type="line" smooth="yes"/>
      <point x="526" y="553"/>
      <point x="533" y="590"/>
      <point x="533" y="629" type="curve" smooth="yes"/>
      <point x="533" y="780"/>
      <point x="398" y="912"/>
      <point x="240" y="912" type="curve" smooth="yes"/>
      <point x="104" y="912"/>
      <point x="2" y="815"/>
      <point x="2" y="686" type="curve" smooth="yes"/>
      <point x="2" y="633"/>
      <point x="19" y="583"/>
      <point x="54" y="534" type="curve"/>
      <point x="192" y="534" type="line"/>
      <point x="140" y="568"/>
      <point x="110" y="620"/>
      <point x="110" y="676" type="curve" smooth="yes"/>
      <point x="110" y="754"/>
      <point x="170" y="811"/>
      <point x="251" y="811" type="curve" smooth="yes"/>
      <point x="346" y="811"/>
      <point x="428" y="731"/>
      <point x="428" y="639" type="curve" smooth="yes"/>
      <point x="428" y="612"/>
      <point x="421" y="574"/>
      <point x="407" y="540" type="curve" smooth="yes"/>
      <point x="184" y="2" type="line"/>
    </contour>
  </outline>
</glyph>
<glyph name="three" format="2">
  <advance width="750"/>
  <unicode hex="0033"/>
  <outline>
    <contour>
      <point x="377" y="-12" type="curve" smooth="yes"/>
      <point x="540" y="-12"/>
      <point x="660" y="104"/>
      <point x="660" y="259" type="curve" smooth="yes"/>
      <point x="660" y="429"/>
      <point x="515" y="580"/>
      <point x="343" y="590" type="curve"/>
      <point x="432" y="898" type="line"/>
      <point x="432" y="900" type="line"/>
      <point x="-12" y="900" type="line"/>
      <point x="12" y="804" type="line"/>
      <point x="297" y="804" type="line"/>
      <point x="205" y="462" type="line"/>
      <point x="206" y="461" type="line"/>
      <point x="236" y="485"/>
      <point x="275" y="498"/>
      <point x="318" y="498" type="curve" smooth="yes"/>
      <point x="441" y="498"/>
      <point x="550" y="391"/>
      <point x="550" y="268" type="curve" smooth="yes"/>
      <point x="550" y="166"/>
      <point x="475" y="90"/>
      <point x="371" y="90" type="curve" smooth="yes"/>
      <point x="275" y="90"/>
      <point x="183" y="155"/>
      <point x="147" y="248" type="curve"/>
      <point x="111" y="113" type="line"/>
      <point x="177" y="35"/>
      <point x="274" y="-12"/>
    </contour>
  </outline>
</glyph>
<glyph name="five" format="2">
  <advance width="750"/>
  <unicode hex="0035"/>
  <outline>
    <contour>
      <point x="377" y="-12" type="curve" smooth="yes"/>
      <point x="540" y="-12"/>
      <point x="660" y="104"/>
      <point x="660" y="259" type="curve" smooth="yes"/>
      <point x="660" y="435"/>
      <point x="501" y="591"/>
      <point x="322" y="591" type="curve" smooth="yes"/>
      <point x="274" y="591"/>
      <point x="233" y="581"/>
      <point x="206" y="563" type="curve"/>
      <point x="148" y="798" type="line"/>
      <point x="456" y="798" type="line"/>
      <point x="430" y="900" type="line"/>
      <point x="24" y="900" type="line"/>
      <point x="151" y="391" type="line"/>
      <point x="153" y="391" type="line"/>
      <point x="182" y="455"/>
      <point x="243" y="495"/>
      <point x="318" y="495" type="curve" smooth="yes"/>
      <point x="441" y="495"/>
      <point x="550" y="388"/>
      <point x="550" y="268" type="curve" smooth="yes"/>
      <point x="550" y="166"/>
      <point x="475" y="90"/>
      <point x="371" y="90" type="curve" smooth="yes"/>
      <point x="275" y="90"/>
      <point x="183" y="155"/>
      <point x="147" y="248" type="curve"/>
      <point x="111" y="113" type="line"/>
      <point x="177" y="35"/>
      <point x="274" y="-12"/>
    </contour>
  </outline>
</glyph>
<glyph name="six" format="2">
  <advance width="750"/>
  <unicode hex="0036"/>
  <outline>
    <contour>
      <point x="426" y="-12" type="curve" smooth="yes"/>
      <point x="582" y="-12"/>
      <point x="708" y="99"/>
      <point x="708" y="256" type="curve" smooth="yes"/>
      <point x="708" y="434"/>
      <point x="557" y="594"/>
      <point x="376" y="594" type="curve" smooth="yes"/>
      <point x="331" y="594"/>
      <point x="265" y="586"/>
      <point x="226" y="540" type="curve"/>
      <point x="321" y="900" type="line"/>
      <point x="213" y="900" type="line"/>
      <point x="86" y="405" type="line" smooth="yes"/>
      <point x="80" y="380"/>
      <point x="77" y="355"/>
      <point x="77" y="329" type="curve" smooth="yes"/>
      <point x="77" y="146"/>
      <point x="238" y="-12"/>
    </contour>
    <contour>
      <point x="417" y="90" type="curve" smooth="yes"/>
      <point x="294" y="90"/>
      <point x="189" y="200"/>
      <point x="189" y="319" type="curve" smooth="yes"/>
      <point x="189" y="418"/>
      <point x="261" y="500"/>
      <point x="368" y="500" type="curve" smooth="yes"/>
      <point x="489" y="500"/>
      <point x="600" y="394"/>
      <point x="600" y="269" type="curve" smooth="yes"/>
      <point x="600" y="170"/>
      <point x="526" y="90"/>
    </contour>
  </outline>
</glyph>
<glyph name="seven" format="2">
  <advance width="750"/>
  <unicode hex="0037"/>
  <outline>
    <contour>
      <point x="193" y="0" type="line"/>
      <point x="309" y="0" type="line"/>
      <point x="536" y="898" type="line"/>
      <point x="536" y="900" type="line"/>
      <point x="-63" y="900" type="line"/>
      <point x="-38" y="798" type="line"/>
      <point x="398" y="798" type="line"/>
    </contour>
  </outline>
</glyph>
<glyph name="eight" format="2">
  <advance width="750"/>
  <unicode hex="0038"/>
  <outline>
    <contour>
      <point x="409" y="-12" type="curve" smooth="yes"/>
      <point x="562" y="-12"/>
      <point x="688" y="102"/>
      <point x="688" y="258" type="curve" smooth="yes"/>
      <point x="688" y="382"/>
      <point x="605" y="523"/>
      <point x="454" y="576" type="curve"/>
      <point x="475" y="609"/>
      <point x="487" y="645"/>
      <point x="487" y="682" type="curve" smooth="yes"/>
      <point x="487" y="797"/>
      <point x="377" y="912"/>
      <point x="250" y="912" type="curve" smooth="yes"/>
      <point x="143" y="912"/>
      <point x="65" y="829"/>
      <point x="65" y="727" type="curve" smooth="yes"/>
      <point x="65" y="667"/>
      <point x="93" y="591"/>
      <point x="170" y="541" type="curve"/>
      <point x="105" y="493"/>
      <point x="65" y="415"/>
      <point x="65" y="327" type="curve" smooth="yes"/>
      <point x="65" y="149"/>
      <point x="229" y="-12"/>
    </contour>
    <contour>
      <point x="400" y="89" type="curve" smooth="yes"/>
      <point x="283" y="89"/>
      <point x="175" y="198"/>
      <point x="175" y="320" type="curve" smooth="yes"/>
      <point x="175" y="419"/>
      <point x="248" y="498"/>
      <point x="350" y="498" type="curve" smooth="yes"/>
      <point x="473" y="498"/>
      <point x="578" y="389"/>
      <point x="578" y="269" type="curve" smooth="yes"/>
      <point x="578" y="171"/>
      <point x="506" y="89"/>
    </contour>
    <contour>
      <point x="291" y="586" type="curve" smooth="yes"/>
      <point x="225" y="586"/>
      <point x="163" y="640"/>
      <point x="163" y="711" type="curve" smooth="yes"/>
      <point x="163" y="768"/>
      <point x="204" y="816"/>
      <point x="261" y="816" type="curve" smooth="yes"/>
      <point x="328" y="816"/>
      <point x="390" y="756"/>
      <point x="390" y="684" type="curve" smooth="yes"/>
      <point x="390" y="626"/>
      <point x="348" y="586"/>
    </contour>
  </outline>
</glyph>
<glyph name="nine" format="2">
  <advance width="750"/>
  <unicode hex="0039"/>
  <outline>
    <contour>
      <point x="342" y="-1" type="line"/>
      <point x="450" y="0" type="line"/>
      <point x="579" y="497" type="line" smooth="yes"/>
      <point x="587" y="527"/>
      <point x="590" y="553"/>
      <point x="590" y="579" type="curve" smooth="yes"/>
      <point x="590" y="757"/>
      <point x="431" y="912"/>
      <point x="249" y="912" type="curve" smooth="yes"/>
      <point x="94" y="912"/>
      <point x="-22" y="800"/>
      <point x="-22" y="650" type="curve" smooth="yes"/>
      <point x="-22" y="477"/>
      <point x="131" y="320"/>
      <point x="300" y="320" type="curve" smooth="yes"/>
      <point x="359" y="320"/>
      <point x="414" y="339"/>
      <point x="446" y="373" type="curve"/>
    </contour>
    <contour>
      <point x="305" y="414" type="curve" smooth="yes"/>
      <point x="191" y="414"/>
      <point x="86" y="521"/>
      <point x="86" y="639" type="curve" smooth="yes"/>
      <point x="86" y="737"/>
      <point x="160" y="810"/>
      <point x="258" y="810" type="curve" smooth="yes"/>
      <point x="375" y="810"/>
      <point x="480" y="706"/>
      <point x="480" y="589" type="curve" smooth="yes"/>
      <point x="480" y="490"/>
      <point x="404" y="414"/>
    </contour>
  </outline>
</glyph>
<glyph name="less" format="2">
  <advance width="750"/>
  <unicode hex="003C"/>
  <outline>
    <contour>
      <point x="695" y="157" type="line"/>
      <point x="670" y="261" type="line"/>
      <point x="334" y="406" type="line" smooth="yes"/>
      <point x="292" y="424"/>
      <point x="245" y="441"/>
      <point x="200" y="458" type="curve"/>
      <point x="237" y="474"/>
      <point x="276" y="491"/>
      <point x="308" y="509" type="curve" smooth="yes"/>
      <point x="573" y="653" type="line"/>
      <point x="551" y="743" type="line"/>
      <point x="23" y="451" type="line"/>
      <point x="23" y="449" type="line"/>
    </contour>
  </outline>
</glyph>
<glyph name="equal" format="2">
  <advance width="750"/>
  <unicode hex="003D"/>
  <outline>
    <contour>
      <point x="36" y="519" type="line"/>
      <point x="606" y="519" type="line"/>
      <point x="584" y="609" type="line"/>
      <point x="14" y="609" type="line"/>
    </contour>
    <contour>
      <point x="92" y="291" type="line"/>
      <point x="662" y="291" type="line"/>
      <point x="640" y="381" type="line"/>
      <point x="70" y="381" type="line"/>
    </contour>
  </outline>
</glyph>
<glyph name="greater" format="2">
  <advance width="750"/>
  <unicode hex="003E"/>
  <outline>
    <contour>
      <point x="125" y="157" type="line"/>
      <point x="653" y="449" type="line"/>
      <point x="653" y="451" type="line"/>
      <point x="-19" y="743" type="line"/>
      <point x="6" y="639" type="line"/>
      <point x="342" y="494" type="line" smooth="yes"/>
      <point x="384" y="476"/>
      <point x="431" y="459"/>
      <point x="476" y="442" type="curve"/>
      <point x="439" y="426"/>
      <point x="400" y="409"/>
      <point x="368" y="391" type="curve" smooth="yes"/>
      <point x="103" y="247" type="line"/>
    </contour>
  </outline>
</glyph>
<glyph name="question" format="2">
  <advance width="480"/>
  <unicode hex="003F"/>
  <outline>
    <contour>
      <point x="192" y="300" type="curve"/>
      <point x="288" y="300" type="line"/>
      <point x="252" y="465"/>
      <point x="349" y="549"/>
      <point x="349" y="676" type="curve" smooth="yes"/>
      <point x="349" y="805"/>
      <point x="250" y="912"/>
      <point x="112" y="912" type="curve" smooth="yes"/>
      <point x="63" y="912"/>
      <point x="-6" y="898"/>
      <point x="-48" y="853" type="curve"/>
      <point x="-16" y="725" type="line"/>
      <point x="6" y="776"/>
      <point x="52" y="812"/>
      <point x="113" y="812" type="curve" smooth="yes"/>
      <point x="197" y="812"/>
      <point x="241" y="749"/>
      <point x="241" y="677" type="curve" smooth="yes"/>
      <point x="241" y="575"/>
      <point x="148" y="474"/>
    </contour>
    <contour>
      <point x="308" y="-12" type="curve" smooth="yes"/>
      <point x="344" y="-12"/>
      <point x="374" y="17"/>
      <point x="374" y="54" type="curve" smooth="yes"/>
      <point x="374" y="99"/>
      <point x="335" y="138"/>
      <point x="290" y="138" type="curve" smooth="yes"/>
      <point x="254" y="138"/>
      <point x="224" y="110"/>
      <point x="224" y="72" type="curve" smooth="yes"/>
      <point x="224" y="27"/>
      <point x="263" y="-12"/>
    </contour>
  </outline>
</glyph>
<glyph name="at" format="2">
  <advance width="1260"/>
  <unicode hex="0040"/>
  <outline>
    <contour>
      <point x="700" y="-192" type="curve" smooth="yes"/>
      <point x="848" y="-192"/>
      <point x="984" y="-138"/>
      <point x="1076" y="-43" type="curve"/>
      <point x="1029" y="46" type="line"/>
      <point x="954" y="-47"/>
      <point x="827" y="-103"/>
      <point x="689" y="-103" type="curve" smooth="yes"/>
      <point x="406" y="-103"/>
      <point x="164" y="131"/>
      <point x="164" y="403" type="curve" smooth="yes"/>
      <point x="164" y="640"/>
      <point x="349" y="822"/>
      <point x="591" y="822" type="curve" smooth="yes"/>
      <point x="849" y="822"/>
      <point x="1074" y="601"/>
      <point x="1074" y="348" type="curve" smooth="yes"/>
      <point x="1074" y="256"/>
      <point x="1042" y="203"/>
      <point x="985" y="203" type="curve" smooth="yes"/>
      <point x="942" y="203"/>
      <point x="908" y="233"/>
      <point x="895" y="281" type="curve" smooth="yes"/>
      <point x="807" y="631" type="line"/>
      <point x="716" y="631" type="line"/>
      <point x="735" y="559" type="line"/>
      <point x="683" y="610"/>
      <point x="619" y="638"/>
      <point x="556" y="638" type="curve" smooth="yes"/>
      <point x="427" y="638"/>
      <point x="324" y="529"/>
      <point x="324" y="393" type="curve" smooth="yes"/>
      <point x="324" y="229"/>
      <point x="470" y="82"/>
      <point x="632" y="82" type="curve" smooth="yes"/>
      <point x="726" y="82"/>
      <point x="804" y="128"/>
      <point x="839" y="205" type="curve"/>
      <point x="870" y="157"/>
      <point x="930" y="125"/>
      <point x="988" y="125" type="curve" smooth="yes"/>
      <point x="1093" y="125"/>
      <point x="1167" y="222"/>
      <point x="1167" y="360" type="curve" smooth="yes"/>
      <point x="1167" y="650"/>
      <point x="888" y="912"/>
      <point x="580" y="912" type="curve" smooth="yes"/>
      <point x="290" y="912"/>
      <point x="67" y="694"/>
      <point x="67" y="410" type="curve" smooth="yes"/>
      <point x="67" y="88"/>
      <point x="361" y="-192"/>
    </contour>
    <contour>
      <point x="632" y="172" type="curve" smooth="yes"/>
      <point x="524" y="172"/>
      <point x="425" y="273"/>
      <point x="425" y="383" type="curve" smooth="yes"/>
      <point x="425" y="477"/>
      <point x="493" y="548"/>
      <point x="583" y="548" type="curve" smooth="yes"/>
      <point x="690" y="548"/>
      <point x="789" y="447"/>
      <point x="789" y="337" type="curve" smooth="yes"/>
      <point x="789" y="244"/>
      <point x="721" y="172"/>
    </contour>
  </outline>
</glyph>
<glyph name="A" format="2">
  <advance width="800"/>
  <unicode hex="0041"/>
  <anchor x="468" y="0" name="bottom"/>
  <anchor x="794" y="0" name="ogonek"/>
  <anchor x="250" y="900" name="top"/>
  <anchor x="15" y="720" name="top-vertical"/>
  <outline>
    <contour>
      <point x="93" y="0" type="line"/>
      <point x="202" y="0" type="line"/>
      <point x="243" y="267" type="line"/>
      <point x="558" y="267" type="line"/>
      <point x="730" y="0" type="line"/>
      <point x="857" y="0" type="line"/>
      <point x="248" y="930" type="line"/>
      <point x="246" y="930" type="line"/>
    </contour>
    <contour>
      <point x="258" y="362" type="line"/>
      <point x="285" y="540" type="line" smooth="yes"/>
      <point x="292" y="585"/>
      <point x="297" y="624"/>
      <point x="298" y="686" type="curve"/>
      <point x="329" y="624"/>
      <point x="352" y="586"/>
      <point x="382" y="540" type="curve" smooth="yes"/>
      <point x="497" y="362" type="line"/>
    </contour>
  </outline>
</glyph>
<glyph name="C" format="2">
  <advance width="900"/>
  <unicode hex="0043"/>
  <anchor x="544" y="0" name="bottom"/>
  <anchor x="414" y="900" name="top"/>
  <outline>
    <contour>
      <point x="548" y="-18" type="curve" smooth="yes"/>
      <point x="679" y="-18"/>
      <point x="796" y="38"/>
      <point x="874" y="136" type="curve"/>
      <point x="817" y="255" type="line"/>
      <point x="771" y="155"/>
      <point x="661" y="90"/>
      <point x="539" y="90" type="curve" smooth="yes"/>
      <point x="330" y="90"/>
      <point x="142" y="283"/>
      <point x="142" y="496" type="curve" smooth="yes"/>
      <point x="142" y="674"/>
      <point x="274" y="810"/>
      <point x="449" y="810" type="curve" smooth="yes"/>
      <point x="547" y="810"/>
      <point x="646" y="766"/>
      <point x="723" y="688" type="curve"/>
      <point x="723" y="826" type="line"/>
      <point x="634" y="886"/>
      <point x="534" y="918"/>
      <point x="438" y="918" type="curve" smooth="yes"/>
      <point x="204" y="918"/>
      <point x="24" y="738"/>
      <point x="24" y="505" type="curve" smooth="yes"/>
      <point x="24" y="231"/>
      <point x="273" y="-18"/>
    </contour>
  </outline>
</glyph>
<glyph name="D" format="2">
  <advance width="960"/>
  <unicode hex="0044"/>
  <anchor x="555" y="0" name="bottom"/>
  <anchor x="138" y="480" name="center"/>
  <anchor x="330" y="900" name="top"/>
  <outline>
    <contour>
      <point x="201" y="0" type="line"/>
      <point x="447" y="0" type="line" smooth="yes"/>
      <point x="681" y="0"/>
      <point x="861" y="162"/>
      <point x="861" y="395" type="curve" smooth="yes"/>
      <point x="861" y="669"/>
      <point x="612" y="900"/>
      <point x="337" y="900" type="curve" smooth="yes"/>
      <point x="-24" y="900" type="line"/>
    </contour>
    <contour>
      <point x="290" y="102" type="line"/>
      <point x="115" y="798" type="line"/>
      <point x="336" y="798" type="line" smooth="yes"/>
      <point x="555" y="798"/>
      <point x="743" y="616"/>
      <point x="743" y="403" type="curve" smooth="yes"/>
      <point x="743" y="225"/>
      <point x="610" y="102"/>
      <point x="424" y="102" type="curve" smooth="yes"/>
    </contour>
  </outline>
</glyph>
<glyph name="E" format="2">
  <advance width="630"/>
  <unicode hex="0045"/>
  <anchor x="423" y="0" name="bottom"/>
  <anchor x="590" y="0" name="ogonek"/>
  <anchor x="198" y="900" name="top"/>
  <anchor x="-24" y="900" name="topleft"/>
  <outline>
    <contour>
      <point x="201" y="0" type="line"/>
      <point x="645" y="0" type="line"/>
      <point x="620" y="102" type="line"/>
      <point x="290" y="102" type="line"/>
      <point x="189" y="504" type="line"/>
      <point x="449" y="504" type="line"/>
      <point x="424" y="606" type="line"/>
      <point x="164" y="606" type="line"/>
      <point x="115" y="798" type="line"/>
      <point x="445" y="798" type="line"/>
      <point x="420" y="900" type="line"/>
      <point x="-24" y="900" type="line"/>
    </contour>
  </outline>
</glyph>
<glyph name="F" format="2">
  <advance width="600"/>
  <unicode hex="0046"/>
  <outline>
    <contour>
      <point x="201" y="0" type="line"/>
      <point x="315" y="0" type="line"/>
      <point x="190" y="504" type="line"/>
      <point x="490" y="504" type="line"/>
      <point x="464" y="606" type="line"/>
      <point x="164" y="606" type="line"/>
      <point x="116" y="798" type="line"/>
      <point x="446" y="798" type="line"/>
      <point x="421" y="900" type="line"/>
      <point x="-23" y="900" type="line"/>
    </contour>
  </outline>
</glyph>
<glyph name="G" format="2">
  <advance width="940"/>
  <unicode hex="0047"/>
  <anchor x="604" y="0" name="bottom"/>
  <anchor x="791" y="270" name="center"/>
  <anchor x="381" y="900" name="top"/>
  <outline>
    <contour>
      <point x="548" y="-18" type="curve" smooth="yes"/>
      <point x="688" y="-18"/>
      <point x="807" y="42"/>
      <point x="890" y="146" type="curve"/>
      <point x="807" y="480" type="line"/>
      <point x="449" y="480" type="line"/>
      <point x="474" y="378" type="line"/>
      <point x="722" y="378" type="line"/>
      <point x="770" y="186" type="line"/>
      <point x="714" y="126"/>
      <point x="630" y="90"/>
      <point x="539" y="90" type="curve" smooth="yes"/>
      <point x="330" y="90"/>
      <point x="142" y="283"/>
      <point x="142" y="496" type="curve" smooth="yes"/>
      <point x="142" y="674"/>
      <point x="274" y="810"/>
      <point x="449" y="810" type="curve" smooth="yes"/>
      <point x="547" y="810"/>
      <point x="646" y="766"/>
      <point x="723" y="688" type="curve"/>
      <point x="723" y="826" type="line"/>
      <point x="634" y="886"/>
      <point x="534" y="918"/>
      <point x="438" y="918" type="curve" smooth="yes"/>
      <point x="204" y="918"/>
      <point x="24" y="738"/>
      <point x="24" y="505" type="curve" smooth="yes"/>
      <point x="24" y="231"/>
      <point x="273" y="-18"/>
    </contour>
  </outline>
</glyph>
<glyph name="H" format="2">
  <advance width="800"/>
  <unicode hex="0048"/>
  <anchor x="475" y="0" name="bottom"/>
  <anchor x="290" y="750" name="center"/>
  <anchor x="253" y="900" name="top"/>
  <anchor x="-24" y="900" name="topleft"/>
  <outline>
    <contour>
      <point x="201" y="0" type="line"/>
      <point x="315" y="0" type="line"/>
      <point x="189" y="504" type="line"/>
      <point x="509" y="504" type="line"/>
      <point x="635" y="0" type="line"/>
      <point x="749" y="0" type="line"/>
      <point x="524" y="900" type="line"/>
      <point x="410" y="900" type="line"/>
      <point x="483" y="606" type="line"/>
      <point x="163" y="606" type="line"/>
      <point x="90" y="900" type="line"/>
      <point x="-24" y="900" type="line"/>
    </contour>
  </outline>
</glyph>
<glyph name="I" format="2">
  <advance width="390"/>
  <unicode hex="0049"/>
  <anchor x="270" y="0" name="bottom"/>
  <anchor x="270" y="0" name="ogonek"/>
  <anchor x="45" y="900" name="top"/>
  <anchor x="-12" y="900" name="topleft"/>
  <outline>
    <contour>
      <point x="213" y="0" type="line"/>
      <point x="327" y="0" type="line"/>
      <point x="102" y="900" type="line"/>
      <point x="-12" y="900" type="line"/>
    </contour>
  </outline>
</glyph>
<glyph name="J" format="2">
  <advance width="540"/>
  <unicode hex="004A"/>
  <anchor x="393" y="0" name="bottom"/>
  <anchor x="225" y="900" name="top"/>
  <outline>
    <contour>
      <point x="225" y="-12" type="curve" smooth="yes"/>
      <point x="393" y="-12"/>
      <point x="479" y="108"/>
      <point x="435" y="285" type="curve" smooth="yes"/>
      <point x="282" y="900" type="line"/>
      <point x="168" y="900" type="line"/>
      <point x="326" y="271" type="line" smooth="yes"/>
      <point x="354" y="160"/>
      <point x="311" y="90"/>
      <point x="216" y="90" type="curve" smooth="yes"/>
      <point x="160" y="90"/>
      <point x="109" y="114"/>
      <point x="72" y="157" type="curve"/>
      <point x="72" y="35" type="line"/>
      <point x="114" y="4"/>
      <point x="164" y="-12"/>
    </contour>
  </outline>
</glyph>
<glyph name="K" format="2">
  <advance width="780"/>
  <unicode hex="004B"/>
  <anchor x="507" y="0" name="bottom"/>
  <anchor x="257" y="900" name="top"/>
  <outline>
    <contour>
      <point x="698" y="0" type="line"/>
      <point x="849" y="0" type="line"/>
      <point x="323" y="570" type="line"/>
      <point x="545" y="900" type="line"/>
      <point x="423" y="900" type="line"/>
      <point x="189" y="555" type="line"/>
    </contour>
    <contour>
      <point x="201" y="0" type="line"/>
      <point x="315" y="0" type="line"/>
      <point x="91" y="900" type="line"/>
      <point x="-23" y="900" type="line"/>
    </contour>
  </outline>
</glyph>
<glyph name="L" format="2">
  <advance width="600"/>
  <unicode hex="004C"/>
  <anchor x="414" y="0" name="bottom"/>
  <anchor x="146" y="450" name="center"/>
  <anchor x="375" y="480" name="periodcentered"/>
  <anchor x="34" y="900" name="top"/>
  <anchor x="133" y="900" name="topright"/>
  <outline>
    <contour>
      <point x="201" y="0" type="line"/>
      <point x="627" y="0" type="line"/>
      <point x="602" y="102" type="line"/>
      <point x="290" y="102" type="line"/>
      <point x="91" y="900" type="line"/>
      <point x="-23" y="900" type="line"/>
    </contour>
  </outline>
</glyph>
<glyph name="M" format="2">
  <advance width="1080"/>
  <unicode hex="004D"/>
  <outline>
    <contour>
      <point x="202" y="0" type="line"/>
      <point x="310" y="0" type="line"/>
      <point x="200" y="440" type="line" smooth="yes"/>
      <point x="188" y="489"/>
      <point x="174" y="545"/>
      <point x="151" y="616" type="curve"/>
      <point x="203" y="554"/>
      <point x="248" y="508"/>
      <point x="287" y="467" type="curve" smooth="yes"/>
      <point x="572" y="168" type="line"/>
      <point x="693" y="419" type="line" smooth="yes"/>
      <point x="717" y="470"/>
      <point x="745" y="530"/>
      <point x="773" y="616" type="curve"/>
      <point x="786" y="521"/>
      <point x="803" y="451"/>
      <point x="818" y="392" type="curve" smooth="yes"/>
      <point x="916" y="0" type="line"/>
      <point x="1030" y="0" type="line"/>
      <point x="805" y="906" type="line"/>
      <point x="803" y="906" type="line"/>
      <point x="539" y="353" type="line"/>
      <point x="-33" y="954" type="line"/>
      <point x="-35" y="954" type="line"/>
    </contour>
  </outline>
</glyph>
<glyph name="N" format="2">
  <advance width="990"/>
  <unicode hex="004E"/>
  <anchor x="555" y="60" name="bottom"/>
  <anchor x="360" y="840" name="top"/>
  <outline>
    <contour>
      <point x="945" y="-30" type="line"/>
      <point x="947" y="-30" type="line"/>
      <point x="715" y="900" type="line"/>
      <point x="607" y="900" type="line"/>
      <point x="765" y="267" type="line"/>
      <point x="-29" y="930" type="line"/>
      <point x="-31" y="930" type="line"/>
      <point x="201" y="0" type="line"/>
      <point x="309" y="0" type="line"/>
      <point x="151" y="633" type="line"/>
    </contour>
  </outline>
</glyph>
<glyph name="O" format="2">
  <advance width="1060"/>
  <unicode hex="004F"/>
  <anchor x="604" y="0" name="bottom"/>
  <anchor x="493" y="450" name="center"/>
  <anchor x="634" y="0" name="ogonek"/>
  <anchor x="382" y="900" name="top"/>
  <anchor x="478" y="510" name="top-vertical"/>
  <anchor x="134" y="900" name="topleft"/>
  <anchor x="850" y="900" name="topright"/>
  <outline>
    <contour>
      <point x="548" y="-18" type="curve" smooth="yes"/>
      <point x="782" y="-18"/>
      <point x="962" y="162"/>
      <point x="962" y="395" type="curve" smooth="yes"/>
      <point x="962" y="669"/>
      <point x="713" y="918"/>
      <point x="438" y="918" type="curve" smooth="yes"/>
      <point x="204" y="918"/>
      <point x="24" y="738"/>
      <point x="24" y="505" type="curve" smooth="yes"/>
      <point x="24" y="231"/>
      <point x="273" y="-18"/>
    </contour>
    <contour>
      <point x="537" y="90" type="curve" smooth="yes"/>
      <point x="330" y="90"/>
      <point x="142" y="284"/>
      <point x="142" y="497" type="curve" smooth="yes"/>
      <point x="142" y="675"/>
      <point x="275" y="810"/>
      <point x="449" y="810" type="curve" smooth="yes"/>
      <point x="656" y="810"/>
      <point x="844" y="616"/>
      <point x="844" y="403" type="curve" smooth="yes"/>
      <point x="844" y="225"/>
      <point x="711" y="90"/>
    </contour>
  </outline>
</glyph>
<glyph name="P" format="2">
  <advance width="720"/>
  <unicode hex="0050"/>
  <outline>
    <contour>
      <point x="201" y="0" type="line"/>
      <point x="315" y="0" type="line"/>
      <point x="236" y="316" type="line"/>
      <point x="317" y="316" type="line" smooth="yes"/>
      <point x="479" y="316"/>
      <point x="596" y="421"/>
      <point x="596" y="572" type="curve" smooth="yes"/>
      <point x="596" y="750"/>
      <point x="434" y="900"/>
      <point x="246" y="900" type="curve"/>
      <point x="-24" y="900" type="line"/>
    </contour>
    <contour>
      <point x="211" y="418" type="line"/>
      <point x="116" y="798" type="line"/>
      <point x="248" y="798" type="line" smooth="yes"/>
      <point x="379" y="798"/>
      <point x="482" y="699"/>
      <point x="482" y="582" type="curve" smooth="yes"/>
      <point x="482" y="485"/>
      <point x="409" y="418"/>
      <point x="296" y="418" type="curve" smooth="yes"/>
    </contour>
  </outline>
</glyph>
<glyph name="Q" format="2">
  <advance width="1060"/>
  <unicode hex="0051"/>
  <outline>
    <contour>
      <point x="927" y="-30" type="line"/>
      <point x="1075" y="-30" type="line"/>
      <point x="883" y="148" type="line"/>
      <point x="933" y="216"/>
      <point x="962" y="301"/>
      <point x="962" y="395" type="curve" smooth="yes"/>
      <point x="962" y="669"/>
      <point x="713" y="918"/>
      <point x="438" y="918" type="curve" smooth="yes"/>
      <point x="204" y="918"/>
      <point x="24" y="738"/>
      <point x="24" y="505" type="curve" smooth="yes"/>
      <point x="24" y="231"/>
      <point x="273" y="-18"/>
      <point x="548" y="-18" type="curve" smooth="yes"/>
      <point x="650" y="-18"/>
      <point x="742" y="16"/>
      <point x="813" y="75" type="curve"/>
    </contour>
    <contour>
      <point x="537" y="90" type="curve" smooth="yes"/>
      <point x="330" y="90"/>
      <point x="142" y="284"/>
      <point x="142" y="497" type="curve" smooth="yes"/>
      <point x="142" y="675"/>
      <point x="275" y="810"/>
      <point x="449" y="810" type="curve" smooth="yes"/>
      <point x="656" y="810"/>
      <point x="844" y="616"/>
      <point x="844" y="403" type="curve" smooth="yes"/>
      <point x="844" y="338"/>
      <point x="826" y="278"/>
      <point x="795" y="229" type="curve"/>
      <point x="557" y="450" type="line"/>
      <point x="405" y="450" type="line"/>
      <point x="727" y="154" type="line"/>
      <point x="675" y="114"/>
      <point x="610" y="90"/>
    </contour>
  </outline>
</glyph>
<glyph name="R" format="2">
  <advance width="780"/>
  <unicode hex="0052"/>
  <anchor x="514" y="0" name="bottom"/>
  <anchor x="176" y="900" name="top"/>
  <outline>
    <contour>
      <point x="204" y="0" type="line"/>
      <point x="318" y="0" type="line"/>
      <point x="215" y="414" type="line"/>
      <point x="327" y="414" type="line"/>
      <point x="708" y="0" type="line"/>
      <point x="849" y="0" type="line"/>
      <point x="438" y="445" type="line"/>
      <point x="503" y="483"/>
      <point x="540" y="549"/>
      <point x="540" y="627" type="curve" smooth="yes"/>
      <point x="540" y="777"/>
      <point x="405" y="900"/>
      <point x="239" y="900" type="curve" smooth="yes"/>
      <point x="-20" y="900" type="line"/>
    </contour>
    <contour>
      <point x="191" y="510" type="line"/>
      <point x="119" y="798" type="line"/>
      <point x="254" y="798" type="line" smooth="yes"/>
      <point x="354" y="798"/>
      <point x="434" y="725"/>
      <point x="434" y="635" type="curve" smooth="yes"/>
      <point x="434" y="559"/>
      <point x="377" y="510"/>
      <point x="290" y="510" type="curve" smooth="yes"/>
    </contour>
  </outline>
</glyph>
<glyph name="S" format="2">
  <advance width="660"/>
  <unicode hex="0053"/>
  <anchor x="385" y="0" name="bottom"/>
  <anchor x="200" y="900" name="top"/>
  <outline>
    <contour>
      <point x="358" y="-12" type="curve" smooth="yes"/>
      <point x="506" y="-12"/>
      <point x="612" y="85"/>
      <point x="612" y="226" type="curve" smooth="yes"/>
      <point x="612" y="355"/>
      <point x="523" y="460"/>
      <point x="369" y="512" type="curve" smooth="yes"/>
      <point x="244" y="554" type="line" smooth="yes"/>
      <point x="160" y="582"/>
      <point x="114" y="634"/>
      <point x="114" y="699" type="curve" smooth="yes"/>
      <point x="114" y="767"/>
      <point x="163" y="812"/>
      <point x="234" y="812" type="curve" smooth="yes"/>
      <point x="299" y="812"/>
      <point x="371" y="776"/>
      <point x="424" y="718" type="curve"/>
      <point x="424" y="858" type="line"/>
      <point x="367" y="893"/>
      <point x="299" y="912"/>
      <point x="233" y="912" type="curve" smooth="yes"/>
      <point x="96" y="912"/>
      <point x="2" y="829"/>
      <point x="2" y="701" type="curve" smooth="yes"/>
      <point x="2" y="586"/>
      <point x="78" y="497"/>
      <point x="221" y="447" type="curve" smooth="yes"/>
      <point x="342" y="405" type="line" smooth="yes"/>
      <point x="446" y="369"/>
      <point x="500" y="310"/>
      <point x="500" y="232" type="curve" smooth="yes"/>
      <point x="500" y="147"/>
      <point x="437" y="90"/>
      <point x="349" y="90" type="curve" smooth="yes"/>
      <point x="272" y="90"/>
      <point x="189" y="135"/>
      <point x="130" y="209" type="curve"/>
      <point x="130" y="70" type="line"/>
      <point x="193" y="18"/>
      <point x="276" y="-12"/>
    </contour>
  </outline>
</glyph>
<glyph name="T" format="2">
  <advance width="690"/>
  <unicode hex="0054"/>
  <anchor x="420" y="0" name="bottom"/>
  <anchor x="309" y="450" name="center"/>
  <anchor x="195" y="900" name="top"/>
  <outline>
    <contour>
      <point x="363" y="0" type="line"/>
      <point x="477" y="0" type="line"/>
      <point x="277" y="798" type="line"/>
      <point x="517" y="798" type="line"/>
      <point x="492" y="900" type="line"/>
      <point x="-102" y="900" type="line"/>
      <point x="-77" y="798" type="line"/>
      <point x="163" y="798" type="line"/>
    </contour>
  </outline>
</glyph>
<glyph name="U" format="2">
  <advance width="800"/>
  <unicode hex="0055"/>
  <anchor x="473" y="0" name="bottom"/>
  <anchor x="503" y="0" name="ogonek"/>
  <anchor x="250" y="900" name="top"/>
  <anchor x="295" y="720" name="top-vertical"/>
  <anchor x="542" y="900" name="topright"/>
  <outline>
    <contour>
      <point x="436" y="-12" type="curve" smooth="yes"/>
      <point x="633" y="-12"/>
      <point x="728" y="149"/>
      <point x="684" y="328" type="curve" smooth="yes"/>
      <point x="542" y="900" type="line"/>
      <point x="432" y="900" type="line"/>
      <point x="578" y="318" type="line" smooth="yes"/>
      <point x="607" y="202"/>
      <point x="557" y="90"/>
      <point x="430" y="90" type="curve" smooth="yes"/>
      <point x="334" y="90"/>
      <point x="258" y="158"/>
      <point x="230" y="271" type="curve" smooth="yes"/>
      <point x="72" y="900" type="line"/>
      <point x="-42" y="900" type="line"/>
      <point x="118" y="261" type="line" smooth="yes"/>
      <point x="160" y="93"/>
      <point x="279" y="-12"/>
    </contour>
  </outline>
</glyph>
<glyph name="V" format="2">
  <advance width="750"/>
  <unicode hex="0056"/>
  <outline>
    <contour>
      <point x="455" y="-30" type="line"/>
      <point x="457" y="-30" type="line"/>
      <point x="588" y="900" type="line"/>
      <point x="483" y="900" type="line"/>
      <point x="406" y="358" type="line" smooth="yes"/>
      <point x="401" y="323"/>
      <point x="398" y="295"/>
      <point x="396" y="254" type="curve"/>
      <point x="375" y="295"/>
      <point x="358" y="323"/>
      <point x="336" y="358" type="curve" smooth="yes"/>
      <point x="-10" y="900" type="line"/>
      <point x="-138" y="900" type="line"/>
    </contour>
  </outline>
</glyph>
<glyph name="W" format="2">
  <advance width="1200"/>
  <unicode hex="0057"/>
  <anchor x="671" y="0" name="bottom"/>
  <anchor x="446" y="900" name="top"/>
  <outline>
    <contour>
      <point x="439" y="-30" type="line"/>
      <point x="441" y="-30" type="line"/>
      <point x="501" y="554" type="line" smooth="yes"/>
      <point x="504" y="588"/>
      <point x="509" y="616"/>
      <point x="507" y="667" type="curve"/>
      <point x="530" y="616"/>
      <point x="546" y="588"/>
      <point x="567" y="554" type="curve" smooth="yes"/>
      <point x="922" y="-30" type="line"/>
      <point x="924" y="-30" type="line"/>
      <point x="1038" y="900" type="line"/>
      <point x="936" y="900" type="line"/>
      <point x="867" y="360" type="line" smooth="yes"/>
      <point x="862" y="322"/>
      <point x="861" y="293"/>
      <point x="861" y="246" type="curve"/>
      <point x="840" y="293"/>
      <point x="824" y="322"/>
      <point x="801" y="360" type="curve" smooth="yes"/>
      <point x="454" y="930" type="line"/>
      <point x="452" y="930" type="line"/>
      <point x="390" y="360" type="line" smooth="yes"/>
      <point x="386" y="326"/>
      <point x="382" y="297"/>
      <point x="384" y="246" type="curve"/>
      <point x="361" y="297"/>
      <point x="344" y="326"/>
      <point x="323" y="360" type="curve" smooth="yes"/>
      <point x="-16" y="900" type="line"/>
      <point x="-138" y="900" type="line"/>
    </contour>
  </outline>
</glyph>
<glyph name="X" format="2">
  <advance width="870"/>
  <unicode hex="0058"/>
  <outline>
    <contour>
      <point x="81" y="0" type="line"/>
      <point x="202" y="0" type="line"/>
      <point x="335" y="299" type="line" smooth="yes"/>
      <point x="354" y="343"/>
      <point x="375" y="386"/>
      <point x="396" y="443" type="curve"/>
      <point x="435" y="387"/>
      <point x="474" y="344"/>
      <point x="513" y="301" type="curve" smooth="yes"/>
      <point x="788" y="0" type="line"/>
      <point x="939" y="0" type="line"/>
      <point x="446" y="535" type="line"/>
      <point x="613" y="900" type="line"/>
      <point x="502" y="900" type="line"/>
      <point x="420" y="721" type="line" smooth="yes"/>
      <point x="403" y="684"/>
      <point x="387" y="649"/>
      <point x="369" y="596" type="curve"/>
      <point x="334" y="647"/>
      <point x="299" y="684"/>
      <point x="266" y="720" type="curve" smooth="yes"/>
      <point x="100" y="900" type="line"/>
      <point x="-41" y="900" type="line"/>
      <point x="315" y="513" type="line"/>
    </contour>
  </outline>
</glyph>
<glyph name="Y" format="2">
  <advance width="690"/>
  <unicode hex="0059"/>
  <anchor x="419" y="0" name="bottom"/>
  <anchor x="194" y="900" name="top"/>
  <anchor x="-132" y="900" name="topleft"/>
  <outline>
    <contour>
      <point x="363" y="0" type="line"/>
      <point x="477" y="0" type="line"/>
      <point x="368" y="435" type="line"/>
      <point x="522" y="900" type="line"/>
      <point x="408" y="900" type="line"/>
      <point x="326" y="638" type="line" smooth="yes"/>
      <point x="316" y="605"/>
      <point x="306" y="574"/>
      <point x="300" y="532" type="curve"/>
      <point x="272" y="574"/>
      <point x="249" y="604"/>
      <point x="221" y="638" type="curve" smooth="yes"/>
      <point x="6" y="900" type="line"/>
      <point x="-132" y="900" type="line"/>
      <point x="254" y="435" type="line"/>
    </contour>
  </outline>
</glyph>
<glyph name="Z" format="2">
  <advance width="660"/>
  <unicode hex="005A"/>
  <anchor x="408" y="0" name="bottom"/>
  <anchor x="305" y="450" name="center"/>
  <anchor x="214" y="900" name="top"/>
  <outline>
    <contour>
      <point x="135" y="0" type="line"/>
      <point x="681" y="0" type="line"/>
      <point x="656" y="102" type="line"/>
      <point x="273" y="102" type="line"/>
      <point x="475" y="898" type="line"/>
      <point x="475" y="900" type="line"/>
      <point x="-47" y="900" type="line"/>
      <point x="-22" y="798" type="line"/>
      <point x="337" y="798" type="line"/>
      <point x="135" y="2" type="line"/>
    </contour>
  </outline>
</glyph>
<glyph name="bracketleft" format="2">
  <advance width="480"/>
  <unicode hex="005B"/>
  <outline>
    <contour>
      <point x="240" y="-180" type="line"/>
      <point x="540" y="-180" type="line"/>
      <point x="518" y="-90" type="line"/>
      <point x="320" y="-90" type="line"/>
      <point x="79" y="870" type="line"/>
      <point x="277" y="870" type="line"/>
      <point x="255" y="960" type="line"/>
      <point x="-45" y="960" type="line"/>
    </contour>
  </outline>
</glyph>
<glyph name="backslash" format="2">
  <advance width="480"/>
  <unicode hex="005C"/>
  <outline>
    <contour>
      <point x="570" y="-180" type="line"/>
      <point x="682" y="-180" type="line"/>
      <point x="-134" y="960" type="line"/>
      <point x="-246" y="960" type="line"/>
    </contour>
  </outline>
</glyph>
<glyph name="bracketright" format="2">
  <advance width="480"/>
  <unicode hex="005D"/>
  <outline>
    <contour>
      <point x="180" y="-180" type="line"/>
      <point x="480" y="-180" type="line"/>
      <point x="195" y="960" type="line"/>
      <point x="-105" y="960" type="line"/>
      <point x="-83" y="870" type="line"/>
      <point x="115" y="870" type="line"/>
      <point x="356" y="-90" type="line"/>
      <point x="158" y="-90" type="line"/>
    </contour>
  </outline>
</glyph>
<glyph name="asciicircum" format="2">
  <advance width="750"/>
  <unicode hex="005E"/>
  <outline>
    <contour>
      <point x="109" y="192" type="line"/>
      <point x="199" y="192" type="line"/>
      <point x="269" y="492" type="line" smooth="yes"/>
      <point x="278" y="529"/>
      <point x="284" y="572"/>
      <point x="290" y="613" type="curve"/>
      <point x="317" y="572"/>
      <point x="345" y="529"/>
      <point x="372" y="492" type="curve" smooth="yes"/>
      <point x="591" y="192" type="line"/>
      <point x="695" y="192" type="line"/>
      <point x="254" y="792" type="line"/>
      <point x="252" y="792" type="line"/>
    </contour>
  </outline>
</glyph>
<glyph name="underscore" format="2">
  <advance width="750"/>
  <unicode hex="005F"/>
  <outline>
    <contour>
      <point x="113" y="-180" type="line"/>
      <point x="875" y="-180" type="line"/>
      <point x="853" y="-90" type="line"/>
      <point x="91" y="-90" type="line"/>
    </contour>
  </outline>
</glyph>
<glyph name="c" format="2">
  <advance width="630"/>
  <unicode hex="0063"/>
  <anchor x="411" y="0" name="bottom"/>
  <anchor x="345" y="600" name="top"/>
  <outline>
    <contour>
      <point x="419" y="-12" type="curve" smooth="yes"/>
      <point x="509" y="-12"/>
      <point x="590" y="29"/>
      <point x="640" y="92" type="curve"/>
      <point x="582" y="215" type="line"/>
      <point x="563" y="143"/>
      <point x="497" y="90"/>
      <point x="402" y="90" type="curve" smooth="yes"/>
      <point x="275" y="90"/>
      <point x="164" y="202"/>
      <point x="164" y="326" type="curve" smooth="yes"/>
      <point x="164" y="427"/>
      <point x="238" y="510"/>
      <point x="350" y="510" type="curve" smooth="yes"/>
      <point x="423" y="510"/>
      <point x="489" y="475"/>
      <point x="533" y="421" type="curve"/>
      <point x="533" y="553" type="line"/>
      <point x="477" y="590"/>
      <point x="412" y="612"/>
      <point x="339" y="612" type="curve" smooth="yes"/>
      <point x="178" y="612"/>
      <point x="54" y="494"/>
      <point x="54" y="337" type="curve" smooth="yes"/>
      <point x="54" y="153"/>
      <point x="227" y="-12"/>
    </contour>
  </outline>
</glyph>
<glyph name="e" format="2">
  <advance width="710"/>
  <unicode hex="0065"/>
  <anchor x="430" y="0" name="bottom"/>
  <anchor x="614" y="0" name="ogonek"/>
  <anchor x="324" y="600" name="top"/>
  <outline>
    <contour>
      <point x="415" y="-12" type="curve" smooth="yes"/>
      <point x="488" y="-12"/>
      <point x="587" y="10"/>
      <point x="655" y="90" type="curve"/>
      <point x="596" y="207" type="line"/>
      <point x="567" y="139"/>
      <point x="497" y="89"/>
      <point x="409" y="89" type="curve" smooth="yes"/>
      <point x="311" y="89"/>
      <point x="200" y="160"/>
      <point x="170" y="278" type="curve"/>
      <point x="207" y="273"/>
      <point x="243" y="270"/>
      <point x="278" y="270" type="curve" smooth="yes"/>
      <point x="661" y="270" type="line"/>
      <point x="656" y="314" type="line" smooth="yes"/>
      <point x="636" y="488"/>
      <point x="484" y="612"/>
      <point x="324" y="612" type="curve" smooth="yes"/>
      <point x="175" y="612"/>
      <point x="52" y="499"/>
      <point x="52" y="346" type="curve" smooth="yes"/>
      <point x="52" y="166"/>
      <point x="211" y="-12"/>
    </contour>
    <contour>
      <point x="157" y="351" type="curve"/>
      <point x="165" y="441"/>
      <point x="234" y="516"/>
      <point x="331" y="516" type="curve" smooth="yes"/>
      <point x="426" y="516"/>
      <point x="511" y="447"/>
      <point x="542" y="355" type="curve"/>
      <point x="513" y="358"/>
      <point x="483" y="360"/>
      <point x="454" y="360" type="curve" smooth="yes"/>
      <point x="263" y="360" type="line" smooth="yes"/>
      <point x="227" y="360"/>
      <point x="192" y="357"/>
    </contour>
  </outline>
</glyph>
<glyph name="f" format="2">
  <advance width="450"/>
  <unicode hex="0066"/>
  <anchor x="295" y="0" name="bottom"/>
  <anchor x="218" y="960" name="top"/>
  <outline>
    <contour>
      <point x="241" y="0" type="line"/>
      <point x="349" y="0" type="line"/>
      <point x="222" y="510" type="line"/>
      <point x="368" y="510" type="line"/>
      <point x="346" y="600" type="line"/>
      <point x="197" y="600" type="line"/>
      <point x="157" y="758" type="line" smooth="yes"/>
      <point x="133" y="852"/>
      <point x="185" y="882"/>
      <point x="235" y="882" type="curve" smooth="yes"/>
      <point x="266" y="882"/>
      <point x="298" y="871"/>
      <point x="328" y="848" type="curve"/>
      <point x="328" y="954" type="line"/>
      <point x="298" y="967"/>
      <point x="266" y="972"/>
      <point x="236" y="972" type="curve" smooth="yes"/>
      <point x="106" y="972"/>
      <point x="22" y="884"/>
      <point x="57" y="747" type="curve" smooth="yes"/>
      <point x="95" y="600" type="line"/>
      <point x="-44" y="600" type="line"/>
      <point x="-22" y="510" type="line"/>
      <point x="114" y="510" type="line"/>
    </contour>
  </outline>
</glyph>
<glyph name="g" format="2">
  <advance width="760"/>
  <unicode hex="0067"/>
  <anchor x="545" y="-360" name="bottom"/>
  <anchor x="612" y="300" name="center"/>
  <anchor x="305" y="600" name="top"/>
  <outline>
    <contour>
      <point x="434" y="-312" type="curve" smooth="yes"/>
      <point x="649" y="-312"/>
      <point x="778" y="-158"/>
      <point x="729" y="39" type="curve" smooth="yes"/>
      <point x="589" y="600" type="line"/>
      <point x="489" y="600" type="line"/>
      <point x="510" y="520" type="line"/>
      <point x="453" y="577"/>
      <point x="382" y="608"/>
      <point x="311" y="608" type="curve" smooth="yes"/>
      <point x="169" y="608"/>
      <point x="54" y="487"/>
      <point x="54" y="337" type="curve" smooth="yes"/>
      <point x="54" y="155"/>
      <point x="216" y="-8"/>
      <point x="396" y="-8" type="curve" smooth="yes"/>
      <point x="483" y="-8"/>
      <point x="562" y="30"/>
      <point x="613" y="98" type="curve"/>
      <point x="629" y="33" type="line" smooth="yes"/>
      <point x="663" y="-105"/>
      <point x="575" y="-212"/>
      <point x="428" y="-212" type="curve" smooth="yes"/>
      <point x="359" y="-212"/>
      <point x="294" y="-186"/>
      <point x="245" y="-139" type="curve"/>
      <point x="245" y="-263" type="line"/>
      <point x="302" y="-295"/>
      <point x="367" y="-312"/>
    </contour>
    <contour>
      <point x="395" y="90" type="curve" smooth="yes"/>
      <point x="275" y="90"/>
      <point x="164" y="203"/>
      <point x="164" y="326" type="curve" smooth="yes"/>
      <point x="164" y="430"/>
      <point x="241" y="510"/>
      <point x="341" y="510" type="curve" smooth="yes"/>
      <point x="461" y="510"/>
      <point x="572" y="397"/>
      <point x="572" y="274" type="curve" smooth="yes"/>
      <point x="572" y="170"/>
      <point x="495" y="90"/>
    </contour>
  </outline>
</glyph>
<glyph name="h" format="2">
  <advance width="720"/>
  <unicode hex="0068"/>
  <anchor x="441" y="0" name="bottom"/>
  <anchor x="30" y="780" name="center"/>
  <anchor x="-15" y="960" name="top"/>
  <outline>
    <contour>
      <point x="171" y="0" type="line"/>
      <point x="279" y="0" type="line"/>
      <point x="201" y="313" type="line" smooth="yes"/>
      <point x="173" y="424"/>
      <point x="233" y="508"/>
      <point x="335" y="508" type="curve" smooth="yes"/>
      <point x="421" y="508"/>
      <point x="491" y="449"/>
      <point x="518" y="341" type="curve" smooth="yes"/>
      <point x="603" y="0" type="line"/>
      <point x="711" y="0" type="line"/>
      <point x="619" y="368" type="line" smooth="yes"/>
      <point x="581" y="521"/>
      <point x="475" y="613"/>
      <point x="349" y="613" type="curve" smooth="yes"/>
      <point x="260" y="613"/>
      <point x="188" y="570"/>
      <point x="153" y="500" type="curve"/>
      <point x="39" y="960" type="line"/>
      <point x="-69" y="960" type="line"/>
    </contour>
  </outline>
</glyph>
<glyph name="k" format="2">
  <advance width="630"/>
  <unicode hex="006B"/>
  <anchor x="405" y="0" name="bottom"/>
  <anchor x="-15" y="960" name="top"/>
  <outline>
    <contour>
      <point x="517" y="0" type="line"/>
      <point x="660" y="0" type="line"/>
      <point x="335" y="330" type="line"/>
      <point x="505" y="600" type="line"/>
      <point x="392" y="600" type="line"/>
      <point x="213" y="312" type="line"/>
    </contour>
    <contour>
      <point x="171" y="0" type="line"/>
      <point x="279" y="0" type="line"/>
      <point x="39" y="960" type="line"/>
      <point x="-69" y="960" type="line"/>
    </contour>
  </outline>
</glyph>
<glyph name="l" format="2">
  <advance width="300"/>
  <unicode hex="006C"/>
  <anchor x="225" y="0" name="bottom"/>
  <anchor x="107" y="480" name="center"/>
  <anchor x="332" y="420" name="periodcentered"/>
  <anchor x="-15" y="960" name="top"/>
  <anchor x="65" y="960" name="topright"/>
  <outline>
    <contour>
      <point x="171" y="0" type="line"/>
      <point x="279" y="0" type="line"/>
      <point x="39" y="960" type="line"/>
      <point x="-69" y="960" type="line"/>
    </contour>
  </outline>
</glyph>
<glyph name="m" format="2">
  <advance width="1120"/>
  <unicode hex="006D"/>
  <anchor x="566" y="0" name="bottom"/>
  <anchor x="566" y="600" name="top"/>
  <outline>
    <contour>
      <point x="171" y="0" type="line"/>
      <point x="279" y="0" type="line"/>
      <point x="200" y="322" type="line"/>
      <point x="174" y="428"/>
      <point x="229" y="510"/>
      <point x="328" y="510" type="curve" smooth="yes"/>
      <point x="409" y="510"/>
      <point x="477" y="450"/>
      <point x="502" y="349" type="curve" smooth="yes"/>
      <point x="587" y="0" type="line"/>
      <point x="695" y="0" type="line"/>
      <point x="616" y="322" type="line" smooth="yes"/>
      <point x="590" y="428"/>
      <point x="645" y="510"/>
      <point x="744" y="510" type="curve" smooth="yes"/>
      <point x="825" y="510"/>
      <point x="893" y="450"/>
      <point x="918" y="349" type="curve" smooth="yes"/>
      <point x="1003" y="0" type="line"/>
      <point x="1111" y="0" type="line"/>
      <point x="1019" y="376" type="line" smooth="yes"/>
      <point x="983" y="524"/>
      <point x="880" y="612"/>
      <point x="758" y="612" type="curve" smooth="yes"/>
      <point x="664" y="612"/>
      <point x="587" y="568"/>
      <point x="554" y="493" type="curve"/>
      <point x="503" y="569"/>
      <point x="427" y="612"/>
      <point x="342" y="612" type="curve" smooth="yes"/>
      <point x="252" y="612"/>
      <point x="179" y="568"/>
      <point x="148" y="493" type="curve"/>
      <point x="121" y="600" type="line"/>
      <point x="21" y="600" type="line"/>
    </contour>
  </outline>
</glyph>
<glyph name="n" format="2">
  <advance width="720"/>
  <unicode hex="006E"/>
  <anchor x="435" y="0" name="bottom"/>
  <anchor x="285" y="600" name="top"/>
  <outline>
    <contour>
      <point x="171" y="0" type="line"/>
      <point x="279" y="0" type="line"/>
      <point x="201" y="313" type="line" smooth="yes"/>
      <point x="173" y="424"/>
      <point x="232" y="510"/>
      <point x="336" y="510" type="curve" smooth="yes"/>
      <point x="421" y="510"/>
      <point x="492" y="447"/>
      <point x="518" y="341" type="curve" smooth="yes"/>
      <point x="603" y="0" type="line"/>
      <point x="711" y="0" type="line"/>
      <point x="619" y="368" type="line" smooth="yes"/>
      <point x="581" y="521"/>
      <point x="475" y="612"/>
      <point x="349" y="612" type="curve" smooth="yes"/>
      <point x="256" y="612"/>
      <point x="180" y="566"/>
      <point x="148" y="489" type="curve"/>
      <point x="121" y="600" type="line"/>
      <point x="21" y="600" type="line"/>
    </contour>
  </outline>
</glyph>
<glyph name="p" format="2">
  <advance width="760"/>
  <unicode hex="0070"/>
  <anchor x="454" y="0" name="bottom"/>
  <anchor x="305" y="600" name="top"/>
  <outline>
    <contour>
      <point x="246" y="-300" type="line"/>
      <point x="354" y="-300" type="line"/>
      <point x="260" y="70" type="line"/>
      <point x="311" y="23"/>
      <point x="377" y="-8"/>
      <point x="449" y="-8" type="curve" smooth="yes"/>
      <point x="587" y="-8"/>
      <point x="706" y="108"/>
      <point x="706" y="263" type="curve" smooth="yes"/>
      <point x="706" y="445"/>
      <point x="544" y="608"/>
      <point x="364" y="608" type="curve" smooth="yes"/>
      <point x="274" y="608"/>
      <point x="195" y="567"/>
      <point x="146" y="500" type="curve"/>
      <point x="121" y="600" type="line"/>
      <point x="21" y="600" type="line"/>
    </contour>
    <contour>
      <point x="419" y="90" type="curve" smooth="yes"/>
      <point x="299" y="90"/>
      <point x="188" y="203"/>
      <point x="188" y="326" type="curve" smooth="yes"/>
      <point x="188" y="425"/>
      <point x="260" y="510"/>
      <point x="365" y="510" type="curve" smooth="yes"/>
      <point x="485" y="510"/>
      <point x="596" y="397"/>
      <point x="596" y="274" type="curve" smooth="yes"/>
      <point x="596" y="175"/>
      <point x="524" y="90"/>
    </contour>
  </outline>
</glyph>
<glyph name="q" format="2">
  <advance width="760"/>
  <unicode hex="0071"/>
  <outline>
    <contour>
      <point x="706" y="-300" type="line"/>
      <point x="814" y="-300" type="line"/>
      <point x="589" y="600" type="line"/>
      <point x="489" y="600" type="line"/>
      <point x="510" y="520" type="line"/>
      <point x="457" y="573"/>
      <point x="387" y="608"/>
      <point x="311" y="608" type="curve" smooth="yes"/>
      <point x="173" y="608"/>
      <point x="54" y="492"/>
      <point x="54" y="337" type="curve" smooth="yes"/>
      <point x="54" y="155"/>
      <point x="216" y="-8"/>
      <point x="396" y="-8" type="curve" smooth="yes"/>
      <point x="482" y="-8"/>
      <point x="558" y="30"/>
      <point x="608" y="92" type="curve"/>
    </contour>
    <contour>
      <point x="395" y="90" type="curve" smooth="yes"/>
      <point x="275" y="90"/>
      <point x="164" y="203"/>
      <point x="164" y="326" type="curve" smooth="yes"/>
      <point x="164" y="425"/>
      <point x="236" y="510"/>
      <point x="341" y="510" type="curve" smooth="yes"/>
      <point x="461" y="510"/>
      <point x="572" y="397"/>
      <point x="572" y="274" type="curve" smooth="yes"/>
      <point x="572" y="175"/>
      <point x="500" y="90"/>
    </contour>
  </outline>
</glyph>
<glyph name="r" format="2">
  <advance width="450"/>
  <unicode hex="0072"/>
  <anchor x="226" y="0" name="bottom"/>
  <anchor x="177" y="600" name="top"/>
  <outline>
    <contour>
      <point x="172" y="0" type="line"/>
      <point x="280" y="0" type="line"/>
      <point x="209" y="278" type="line" smooth="yes"/>
      <point x="176" y="406"/>
      <point x="235" y="510"/>
      <point x="348" y="510" type="curve" smooth="yes"/>
      <point x="360" y="510"/>
      <point x="369" y="509"/>
      <point x="381" y="506" type="curve"/>
      <point x="331" y="606" type="line"/>
      <point x="244" y="596"/>
      <point x="181" y="546"/>
      <point x="154" y="467" type="curve"/>
      <point x="122" y="600" type="line"/>
      <point x="22" y="600" type="line"/>
    </contour>
  </outline>
</glyph>
<glyph name="t" format="2">
  <advance width="450"/>
  <unicode hex="0074"/>
  <anchor x="295" y="0" name="bottom"/>
  <anchor x="220" y="300" name="center"/>
  <anchor x="97" y="800" name="top"/>
  <anchor x="162" y="960" name="topright"/>
  <outline>
    <contour>
      <point x="241" y="0" type="line"/>
      <point x="349" y="0" type="line"/>
      <point x="222" y="510" type="line"/>
      <point x="368" y="510" type="line"/>
      <point x="345" y="600" type="line"/>
      <point x="197" y="600" type="line"/>
      <point x="148" y="800" type="line"/>
      <point x="46" y="800" type="line"/>
      <point x="95" y="600" type="line"/>
      <point x="-45" y="600" type="line"/>
      <point x="-22" y="510" type="line"/>
      <point x="114" y="510" type="line"/>
    </contour>
  </outline>
</glyph>
<glyph name="u" format="2">
  <advance width="720"/>
  <unicode hex="0075"/>
  <anchor x="378" y="0" name="bottom"/>
  <anchor x="649" y="0" name="ogonek"/>
  <anchor x="279" y="600" name="top"/>
  <anchor x="549" y="600" name="topright"/>
  <outline>
    <contour>
      <point x="371" y="-13" type="curve" smooth="yes"/>
      <point x="464" y="-13"/>
      <point x="540" y="34"/>
      <point x="572" y="111" type="curve"/>
      <point x="599" y="0" type="line"/>
      <point x="699" y="0" type="line"/>
      <point x="549" y="600" type="line"/>
      <point x="441" y="600" type="line"/>
      <point x="519" y="287" type="line" smooth="yes"/>
      <point x="547" y="176"/>
      <point x="488" y="92"/>
      <point x="384" y="92" type="curve" smooth="yes"/>
      <point x="299" y="92"/>
      <point x="228" y="153"/>
      <point x="202" y="259" type="curve" smooth="yes"/>
      <point x="117" y="600" type="line"/>
      <point x="9" y="600" type="line"/>
      <point x="101" y="232" type="line" smooth="yes"/>
      <point x="139" y="79"/>
      <point x="245" y="-13"/>
    </contour>
  </outline>
</glyph>
<glyph name="v" format="2">
  <advance width="630"/>
  <unicode hex="0076"/>
  <outline>
    <contour>
      <point x="395" y="-30" type="line"/>
      <point x="397" y="-30" type="line"/>
      <point x="543" y="600" type="line"/>
      <point x="434" y="600" type="line"/>
      <point x="376" y="340" type="line" smooth="yes"/>
      <point x="366" y="293"/>
      <point x="356" y="253"/>
      <point x="353" y="187" type="curve"/>
      <point x="318" y="253"/>
      <point x="287" y="293"/>
      <point x="253" y="340" type="curve" smooth="yes"/>
      <point x="66" y="600" type="line"/>
      <point x="-63" y="600" type="line"/>
    </contour>
  </outline>
</glyph>
<glyph name="w" format="2">
  <advance width="1000"/>
  <unicode hex="0077"/>
  <anchor x="573" y="0" name="bottom"/>
  <anchor x="421" y="600" name="top"/>
  <outline>
    <contour>
      <point x="394" y="-30" type="line"/>
      <point x="396" y="-30" type="line"/>
      <point x="451" y="238" type="line" smooth="yes"/>
      <point x="461" y="286"/>
      <point x="471" y="328"/>
      <point x="475" y="395" type="curve"/>
      <point x="512" y="328"/>
      <point x="544" y="286"/>
      <point x="578" y="238" type="curve" smooth="yes"/>
      <point x="764" y="-30" type="line"/>
      <point x="766" y="-30" type="line"/>
      <point x="913" y="600" type="line"/>
      <point x="798" y="600" type="line"/>
      <point x="747" y="340" type="line" smooth="yes"/>
      <point x="737" y="291"/>
      <point x="726" y="250"/>
      <point x="723" y="180" type="curve"/>
      <point x="685" y="249"/>
      <point x="652" y="292"/>
      <point x="620" y="340" type="curve" smooth="yes"/>
      <point x="429" y="628" type="line"/>
      <point x="427" y="628" type="line"/>
      <point x="379" y="340" type="line" smooth="yes"/>
      <point x="371" y="291"/>
      <point x="359" y="250"/>
      <point x="356" y="180" type="curve"/>
      <point x="319" y="250"/>
      <point x="288" y="292"/>
      <point x="253" y="340" type="curve" smooth="yes"/>
      <point x="66" y="600" type="line"/>
      <point x="-63" y="600" type="line"/>
    </contour>
  </outline>
</glyph>
<glyph name="x" format="2">
  <advance width="600"/>
  <unicode hex="0078"/>
  <outline>
    <contour>
      <point x="77" y="0" type="line"/>
      <point x="187" y="0" type="line"/>
      <point x="244" y="125" type="line" smooth="yes"/>
      <point x="261" y="161"/>
      <point x="277" y="198"/>
      <point x="295" y="246" type="curve"/>
      <point x="326" y="199"/>
      <point x="357" y="163"/>
      <point x="387" y="128" type="curve" smooth="yes"/>
      <point x="496" y="0" type="line"/>
      <point x="630" y="0" type="line"/>
      <point x="346" y="326" type="line"/>
      <point x="476" y="600" type="line"/>
      <point x="368" y="600" type="line"/>
      <point x="325" y="506" type="line" smooth="yes"/>
      <point x="308" y="470"/>
      <point x="292" y="435"/>
      <point x="275" y="387" type="curve"/>
      <point x="244" y="434"/>
      <point x="214" y="470"/>
      <point x="184" y="505" type="curve" smooth="yes"/>
      <point x="104" y="600" type="line"/>
      <point x="-30" y="600" type="line"/>
      <point x="224" y="307" type="line"/>
    </contour>
  </outline>
</glyph>
<glyph name="y" format="2">
  <advance width="650"/>
  <unicode hex="0079"/>
  <anchor x="517" y="0" name="bottom"/>
  <anchor x="254" y="600" name="top"/>
  <outline>
    <contour>
      <point x="226" y="-300" type="line"/>
      <point x="337" y="-300" type="line"/>
      <point x="563" y="600" type="line"/>
      <point x="454" y="600" type="line"/>
      <point x="389" y="340" type="line" smooth="yes"/>
      <point x="376" y="294"/>
      <point x="366" y="253"/>
      <point x="360" y="189" type="curve"/>
      <point x="323" y="253"/>
      <point x="292" y="293"/>
      <point x="258" y="340" type="curve" smooth="yes"/>
      <point x="65" y="600" type="line"/>
      <point x="-63" y="600" type="line"/>
      <point x="323" y="82" type="line"/>
    </contour>
  </outline>
</glyph>
<glyph name="z" format="2">
  <advance width="530"/>
  <unicode hex="007A"/>
  <anchor x="332" y="0" name="bottom"/>
  <anchor x="265" y="300" name="center"/>
  <anchor x="199" y="600" name="top"/>
  <outline>
    <contour>
      <point x="115" y="0" type="line"/>
      <point x="549" y="0" type="line"/>
      <point x="525" y="96" type="line"/>
      <point x="251" y="96" type="line"/>
      <point x="415" y="598" type="line"/>
      <point x="415" y="600" type="line"/>
      <point x="-17" y="600" type="line"/>
      <point x="7" y="504" type="line"/>
      <point x="279" y="504" type="line"/>
      <point x="115" y="2" type="line"/>
    </contour>
  </outline>
</glyph>
<glyph name="braceleft" format="2">
  <advance width="480"/>
  <unicode hex="007B"/>
  <outline>
    <contour>
      <point x="541" y="-186" type="curve"/>
      <point x="518" y="-90" type="line"/>
      <point x="435" y="-90"/>
      <point x="340" y="-74"/>
      <point x="303" y="78" type="curve" smooth="yes"/>
      <point x="290" y="133"/>
      <point x="290" y="179"/>
      <point x="279" y="226" type="curve" smooth="yes"/>
      <point x="259" y="306"/>
      <point x="213" y="349"/>
      <point x="154" y="365" type="curve"/>
      <point x="202" y="393"/>
      <point x="225" y="445"/>
      <point x="205" y="524" type="curve" smooth="yes"/>
      <point x="193" y="570"/>
      <point x="170" y="616"/>
      <point x="156" y="670" type="curve" smooth="yes"/>
      <point x="119" y="821"/>
      <point x="192" y="869"/>
      <point x="274" y="882" type="curve"/>
      <point x="254" y="966" type="line"/>
      <point x="95" y="950"/>
      <point x="9" y="845"/>
      <point x="54" y="666" type="curve" smooth="yes"/>
      <point x="68" y="610"/>
      <point x="92" y="562"/>
      <point x="104" y="514" type="curve" smooth="yes"/>
      <point x="124" y="431"/>
      <point x="95" y="394"/>
      <point x="30" y="349" type="curve"/>
      <point x="113" y="323"/>
      <point x="158" y="295"/>
      <point x="179" y="211" type="curve" smooth="yes"/>
      <point x="191" y="162"/>
      <point x="191" y="115"/>
      <point x="205" y="57" type="curve" smooth="yes"/>
      <point x="246" y="-113"/>
      <point x="364" y="-186"/>
    </contour>
  </outline>
</glyph>
<glyph name="bar" format="2">
  <advance width="480"/>
  <unicode hex="007C"/>
  <outline>
    <contour>
      <point x="170" y="-180" type="line"/>
      <point x="266" y="-180" type="line"/>
      <point x="266" y="960" type="line"/>
      <point x="170" y="960" type="line"/>
    </contour>
  </outline>
</glyph>
<glyph name="braceright" format="2">
  <advance width="480"/>
  <unicode hex="007D"/>
  <outline>
    <contour>
      <point x="183" y="-186" type="line"/>
      <point x="340" y="-170"/>
      <point x="426" y="-65"/>
      <point x="381" y="114" type="curve" smooth="yes"/>
      <point x="367" y="170"/>
      <point x="343" y="218"/>
      <point x="331" y="266" type="curve" smooth="yes"/>
      <point x="311" y="349"/>
      <point x="340" y="386"/>
      <point x="405" y="431" type="curve"/>
      <point x="322" y="457"/>
      <point x="277" y="485"/>
      <point x="256" y="569" type="curve" smooth="yes"/>
      <point x="244" y="618"/>
      <point x="244" y="665"/>
      <point x="230" y="723" type="curve" smooth="yes"/>
      <point x="189" y="893"/>
      <point x="71" y="966"/>
      <point x="-105" y="966" type="curve"/>
      <point x="-82" y="870" type="line"/>
      <point x="0" y="870"/>
      <point x="95" y="854"/>
      <point x="132" y="702" type="curve" smooth="yes"/>
      <point x="145" y="647"/>
      <point x="145" y="601"/>
      <point x="156" y="554" type="curve" smooth="yes"/>
      <point x="176" y="474"/>
      <point x="222" y="431"/>
      <point x="281" y="415" type="curve"/>
      <point x="233" y="387"/>
      <point x="210" y="335"/>
      <point x="230" y="256" type="curve" smooth="yes"/>
      <point x="242" y="210"/>
      <point x="265" y="164"/>
      <point x="279" y="110" type="curve" smooth="yes"/>
      <point x="316" y="-41"/>
      <point x="243" y="-89"/>
      <point x="162" y="-102" type="curve"/>
    </contour>
  </outline>
</glyph>
<glyph name="asciitilde" format="2">
  <advance width="750"/>
  <unicode hex="007E"/>
  <outline>
    <contour>
      <point x="37" y="347" type="line"/>
      <point x="84" y="412"/>
      <point x="131" y="448"/>
      <point x="195" y="448" type="curve" smooth="yes"/>
      <point x="295" y="448"/>
      <point x="368" y="360"/>
      <point x="483" y="360" type="curve" smooth="yes"/>
      <point x="552" y="360"/>
      <point x="616" y="392"/>
      <point x="664" y="451" type="curve"/>
      <point x="638" y="555" type="line"/>
      <point x="592" y="490"/>
      <point x="544" y="452"/>
      <point x="479" y="452" type="curve" smooth="yes"/>
      <point x="380" y="452"/>
      <point x="302" y="540"/>
      <point x="189" y="540" type="curve" smooth="yes"/>
      <point x="122" y="540"/>
      <point x="59" y="509"/>
      <point x="10" y="450" type="curve"/>
    </contour>
  </outline>
</glyph>
<glyph name="exclamdown" format="2">
  <advance width="480"/>
  <unicode hex="00A1"/>
  <outline>
    <contour>
      <point x="336" y="-300" type="line"/>
      <point x="444" y="-300" type="line"/>
      <point x="287" y="300" type="line"/>
      <point x="191" y="300" type="line"/>
    </contour>
    <contour>
      <point x="190" y="462" type="curve" smooth="yes"/>
      <point x="226" y="462"/>
      <point x="256" y="490"/>
      <point x="256" y="528" type="curve" smooth="yes"/>
      <point x="256" y="573"/>
      <point x="217" y="612"/>
      <point x="172" y="612" type="curve" smooth="yes"/>
      <point x="136" y="612"/>
      <point x="106" y="583"/>
      <point x="106" y="546" type="curve" smooth="yes"/>
      <point x="106" y="501"/>
      <point x="145" y="462"/>
    </contour>
  </outline>
</glyph>
<glyph name="cent" format="2">
  <advance width="750"/>
  <unicode hex="00A2"/>
  <outline>
    <contour>
      <point x="453" y="0" type="line"/>
      <point x="537" y="0" type="line"/>
      <point x="502" y="144" type="line"/>
      <point x="568" y="157"/>
      <point x="624" y="194"/>
      <point x="663" y="242" type="curve"/>
      <point x="603" y="368" type="line"/>
      <point x="582" y="294"/>
      <point x="517" y="240"/>
      <point x="425" y="240" type="curve" smooth="yes"/>
      <point x="298" y="240"/>
      <point x="187" y="352"/>
      <point x="187" y="476" type="curve" smooth="yes"/>
      <point x="187" y="577"/>
      <point x="261" y="660"/>
      <point x="373" y="660" type="curve" smooth="yes"/>
      <point x="446" y="660"/>
      <point x="512" y="625"/>
      <point x="556" y="571" type="curve"/>
      <point x="556" y="703" type="line"/>
      <point x="501" y="740"/>
      <point x="433" y="762"/>
      <point x="349" y="762" type="curve"/>
      <point x="321" y="870" type="line"/>
      <point x="237" y="870" type="line"/>
      <point x="268" y="748" type="line"/>
      <point x="155" y="712"/>
      <point x="77" y="612"/>
      <point x="77" y="487" type="curve" smooth="yes"/>
      <point x="77" y="310"/>
      <point x="236" y="151"/>
      <point x="419" y="139" type="curve"/>
    </contour>
  </outline>
</glyph>
<glyph name="sterling" format="2">
  <advance width="750"/>
  <unicode hex="00A3"/>
  <outline>
    <contour>
      <point x="243" y="0" type="line"/>
      <point x="735" y="0" type="line"/>
      <point x="711" y="96" type="line"/>
      <point x="387" y="96" type="line"/>
      <point x="394" y="114"/>
      <point x="398" y="133"/>
      <point x="398" y="156" type="curve" smooth="yes"/>
      <point x="398" y="218"/>
      <point x="366" y="304"/>
      <point x="320" y="408" type="curve"/>
      <point x="573" y="408" type="line"/>
      <point x="552" y="492" type="line"/>
      <point x="284" y="492" type="line"/>
      <point x="262" y="546"/>
      <point x="238" y="614"/>
      <point x="238" y="670" type="curve" smooth="yes"/>
      <point x="238" y="764"/>
      <point x="296" y="810"/>
      <point x="371" y="810" type="curve" smooth="yes"/>
      <point x="436" y="810"/>
      <point x="488" y="769"/>
      <point x="533" y="711" type="curve"/>
      <point x="533" y="852" type="line"/>
      <point x="485" y="889"/>
      <point x="427" y="912"/>
      <point x="364" y="912" type="curve" smooth="yes"/>
      <point x="233" y="912"/>
      <point x="128" y="828"/>
      <point x="128" y="681" type="curve" smooth="yes"/>
      <point x="128" y="614"/>
      <point x="152" y="546"/>
      <point x="173" y="492" type="curve"/>
      <point x="42" y="492" type="line"/>
      <point x="63" y="408" type="line"/>
      <point x="212" y="408" type="line"/>
      <point x="264" y="291"/>
      <point x="296" y="218"/>
      <point x="296" y="147" type="curve" smooth="yes"/>
      <point x="296" y="97"/>
      <point x="278" y="57"/>
      <point x="243" y="2" type="curve"/>
    </contour>
  </outline>
</glyph>
<glyph name="currency" format="2">
  <advance width="750"/>
  <unicode hex="00A4"/>
  <outline>
    <contour>
      <point x="375" y="138" type="curve" smooth="yes"/>
      <point x="450" y="138"/>
      <point x="517" y="165"/>
      <point x="567" y="211" type="curve"/>
      <point x="645" y="150" type="line"/>
      <point x="702" y="224" type="line"/>
      <point x="624" y="286" type="line"/>
      <point x="643" y="323"/>
      <point x="654" y="366"/>
      <point x="654" y="413" type="curve" smooth="yes"/>
      <point x="654" y="504"/>
      <point x="614" y="589"/>
      <point x="550" y="653" type="curve"/>
      <point x="600" y="720" type="line"/>
      <point x="526" y="780" type="line"/>
      <point x="475" y="712" type="line"/>
      <point x="423" y="744"/>
      <point x="363" y="762"/>
      <point x="301" y="762" type="curve" smooth="yes"/>
      <point x="227" y="762"/>
      <point x="160" y="735"/>
      <point x="110" y="690" type="curve"/>
      <point x="33" y="750" type="line"/>
      <point x="-24" y="676" type="line"/>
      <point x="53" y="616" type="line"/>
      <point x="33" y="578"/>
      <point x="22" y="534"/>
      <point x="22" y="487" type="curve" smooth="yes"/>
      <point x="22" y="396"/>
      <point x="63" y="309"/>
      <point x="127" y="245" type="curve"/>
      <point x="78" y="180" type="line"/>
      <point x="152" y="120" type="line"/>
      <point x="202" y="187" type="line"/>
      <point x="254" y="156"/>
      <point x="313" y="138"/>
    </contour>
    <contour>
      <point x="364" y="240" type="curve" smooth="yes"/>
      <point x="243" y="240"/>
      <point x="132" y="352"/>
      <point x="132" y="476" type="curve" smooth="yes"/>
      <point x="132" y="577"/>
      <point x="206" y="660"/>
      <point x="312" y="660" type="curve" smooth="yes"/>
      <point x="433" y="660"/>
      <point x="544" y="548"/>
      <point x="544" y="424" type="curve" smooth="yes"/>
      <point x="544" y="323"/>
      <point x="470" y="240"/>
    </contour>
  </outline>
</glyph>
<glyph name="yen" format="2">
  <advance width="750"/>
  <unicode hex="00A5"/>
  <outline>
    <contour>
      <point x="390" y="0" type="line"/>
      <point x="504" y="0" type="line"/>
      <point x="426" y="318" type="line"/>
      <point x="653" y="318" type="line"/>
      <point x="633" y="402" type="line"/>
      <point x="405" y="402" type="line"/>
      <point x="397" y="435" type="line"/>
      <point x="418" y="498" type="line"/>
      <point x="609" y="498" type="line"/>
      <point x="589" y="582" type="line"/>
      <point x="446" y="582" type="line"/>
      <point x="552" y="900" type="line"/>
      <point x="438" y="900" type="line"/>
      <point x="355" y="638" type="line" smooth="yes"/>
      <point x="344" y="605"/>
      <point x="335" y="574"/>
      <point x="329" y="532" type="curve"/>
      <point x="301" y="574"/>
      <point x="278" y="604"/>
      <point x="250" y="638" type="curve" smooth="yes"/>
      <point x="36" y="900" type="line"/>
      <point x="-102" y="900" type="line"/>
      <point x="161" y="582" type="line"/>
      <point x="19" y="582" type="line"/>
      <point x="39" y="498" type="line"/>
      <point x="231" y="498" type="line"/>
      <point x="283" y="435" type="line"/>
      <point x="291" y="402" type="line"/>
      <point x="63" y="402" type="line"/>
      <point x="83" y="318" type="line"/>
      <point x="312" y="318" type="line"/>
    </contour>
  </outline>
</glyph>
<glyph name="section" format="2">
  <advance width="750"/>
  <unicode hex="00A7"/>
  <outline>
    <contour>
      <point x="451" y="-192" type="curve" smooth="yes"/>
      <point x="581" y="-192"/>
      <point x="675" y="-110"/>
      <point x="675" y="5" type="curve" smooth="yes"/>
      <point x="675" y="91"/>
      <point x="623" y="172"/>
      <point x="539" y="214" type="curve"/>
      <point x="609" y="246"/>
      <point x="648" y="306"/>
      <point x="648" y="385" type="curve" smooth="yes"/>
      <point x="648" y="493"/>
      <point x="572" y="576"/>
      <point x="443" y="615" type="curve" smooth="yes"/>
      <point x="259" y="671" type="line" smooth="yes"/>
      <point x="194" y="691"/>
      <point x="150" y="738"/>
      <point x="150" y="791" type="curve" smooth="yes"/>
      <point x="150" y="844"/>
      <point x="192" y="880"/>
      <point x="253" y="880" type="curve" smooth="yes"/>
      <point x="316" y="880"/>
      <point x="387" y="841"/>
      <point x="423" y="784" type="curve"/>
      <point x="423" y="917" type="line"/>
      <point x="377" y="951"/>
      <point x="312" y="972"/>
      <point x="251" y="972" type="curve" smooth="yes"/>
      <point x="136" y="972"/>
      <point x="50" y="896"/>
      <point x="50" y="791" type="curve" smooth="yes"/>
      <point x="50" y="717"/>
      <point x="93" y="648"/>
      <point x="160" y="610" type="curve"/>
      <point x="88" y="577"/>
      <point x="47" y="517"/>
      <point x="47" y="436" type="curve" smooth="yes"/>
      <point x="47" y="329"/>
      <point x="121" y="248"/>
      <point x="251" y="208" type="curve" smooth="yes"/>
      <point x="444" y="148" type="line" smooth="yes"/>
      <point x="524" y="123"/>
      <point x="575" y="70"/>
      <point x="575" y="8" type="curve" smooth="yes"/>
      <point x="575" y="-55"/>
      <point x="524" y="-98"/>
      <point x="449" y="-98" type="curve" smooth="yes"/>
      <point x="372" y="-98"/>
      <point x="298" y="-55"/>
      <point x="257" y="13" type="curve"/>
      <point x="257" y="-128" type="line"/>
      <point x="311" y="-168"/>
      <point x="380" y="-192"/>
    </contour>
    <contour>
      <point x="422" y="266" type="curve" smooth="yes"/>
      <point x="411" y="266"/>
      <point x="405" y="266"/>
      <point x="399" y="267" type="curve" smooth="yes"/>
      <point x="359" y="276"/>
      <point x="331" y="283"/>
      <point x="295" y="297" type="curve" smooth="yes"/>
      <point x="191" y="337"/>
      <point x="147" y="378"/>
      <point x="147" y="442" type="curve" smooth="yes"/>
      <point x="147" y="512"/>
      <point x="199" y="556"/>
      <point x="273" y="556" type="curve" smooth="yes"/>
      <point x="287" y="556"/>
      <point x="293" y="556"/>
      <point x="300" y="554" type="curve" smooth="yes"/>
      <point x="327" y="547"/>
      <point x="368" y="536"/>
      <point x="400" y="525" type="curve" smooth="yes"/>
      <point x="502" y="490"/>
      <point x="548" y="448"/>
      <point x="548" y="381" type="curve" smooth="yes"/>
      <point x="548" y="310"/>
      <point x="497" y="266"/>
    </contour>
  </outline>
</glyph>
<glyph name="copyright" format="2">
  <advance width="1260"/>
  <unicode hex="00A9"/>
  <outline>
    <contour>
      <point x="658" y="-102" type="curve" smooth="yes"/>
      <point x="937" y="-102"/>
      <point x="1151" y="110"/>
      <point x="1151" y="385" type="curve" smooth="yes"/>
      <point x="1151" y="708"/>
      <point x="855" y="1002"/>
      <point x="528" y="1002" type="curve" smooth="yes"/>
      <point x="249" y="1002"/>
      <point x="35" y="790"/>
      <point x="35" y="515" type="curve" smooth="yes"/>
      <point x="35" y="192"/>
      <point x="331" y="-102"/>
    </contour>
    <contour>
      <point x="651" y="-12" type="curve" smooth="yes"/>
      <point x="378" y="-12"/>
      <point x="131" y="237"/>
      <point x="131" y="510" type="curve" smooth="yes"/>
      <point x="131" y="739"/>
      <point x="306" y="912"/>
      <point x="535" y="912" type="curve" smooth="yes"/>
      <point x="808" y="912"/>
      <point x="1055" y="663"/>
      <point x="1055" y="390" type="curve" smooth="yes"/>
      <point x="1055" y="161"/>
      <point x="880" y="-12"/>
    </contour>
    <contour>
      <point x="656" y="168" type="curve" smooth="yes"/>
      <point x="736" y="168"/>
      <point x="808" y="204"/>
      <point x="854" y="259" type="curve"/>
      <point x="799" y="369" type="line"/>
      <point x="779" y="307"/>
      <point x="722" y="260"/>
      <point x="641" y="260" type="curve" smooth="yes"/>
      <point x="526" y="260"/>
      <point x="425" y="361"/>
      <point x="425" y="473" type="curve" smooth="yes"/>
      <point x="425" y="565"/>
      <point x="492" y="640"/>
      <point x="594" y="640" type="curve" smooth="yes"/>
      <point x="662" y="640"/>
      <point x="723" y="605"/>
      <point x="763" y="554" type="curve"/>
      <point x="763" y="677" type="line"/>
      <point x="712" y="711"/>
      <point x="651" y="732"/>
      <point x="584" y="732" type="curve" smooth="yes"/>
      <point x="438" y="732"/>
      <point x="326" y="625"/>
      <point x="326" y="483" type="curve" smooth="yes"/>
      <point x="326" y="317"/>
      <point x="482" y="168"/>
    </contour>
  </outline>
</glyph>
<glyph name="ordfeminine" format="2">
  <advance width="480"/>
  <unicode hex="00AA"/>
  <outline>
    <contour>
      <point x="175" y="412" type="curve" smooth="yes"/>
      <point x="227" y="412"/>
      <point x="269" y="434"/>
      <point x="292" y="473" type="curve"/>
      <point x="305" y="420" type="line"/>
      <point x="389" y="420" type="line"/>
      <point x="301" y="780" type="line"/>
      <point x="217" y="780" type="line"/>
      <point x="226" y="740" type="line"/>
      <point x="195" y="771"/>
      <point x="156" y="788"/>
      <point x="115" y="788" type="curve" smooth="yes"/>
      <point x="33" y="788"/>
      <point x="-33" y="716"/>
      <point x="-33" y="624" type="curve" smooth="yes"/>
      <point x="-33" y="512"/>
      <point x="65" y="412"/>
    </contour>
    <contour>
      <point x="172" y="490" type="curve" smooth="yes"/>
      <point x="106" y="490"/>
      <point x="51" y="547"/>
      <point x="51" y="613" type="curve" smooth="yes"/>
      <point x="51" y="670"/>
      <point x="92" y="710"/>
      <point x="146" y="710" type="curve" smooth="yes"/>
      <point x="211" y="710"/>
      <point x="269" y="653"/>
      <point x="269" y="587" type="curve" smooth="yes"/>
      <point x="269" y="532"/>
      <point x="228" y="490"/>
    </contour>
  </outline>
</glyph>
<glyph name="logicalnot" format="2">
  <advance width="750"/>
  <unicode hex="00AC"/>
  <outline>
    <contour>
      <point x="620" y="195" type="line"/>
      <point x="716" y="195" type="line"/>
      <point x="642" y="495" type="line"/>
      <point x="42" y="495" type="line"/>
      <point x="64" y="405" type="line"/>
      <point x="568" y="405" type="line"/>
    </contour>
  </outline>
</glyph>
<glyph name="registered" format="2">
  <advance width="600"/>
  <unicode hex="00AE"/>
  <outline>
    <contour>
      <point x="241" y="402" type="curve" smooth="yes"/>
      <point x="370" y="402"/>
      <point x="474" y="500"/>
      <point x="474" y="629" type="curve" smooth="yes"/>
      <point x="474" y="782"/>
      <point x="334" y="918"/>
      <point x="179" y="918" type="curve" smooth="yes"/>
      <point x="50" y="918"/>
      <point x="-54" y="820"/>
      <point x="-54" y="691" type="curve" smooth="yes"/>
      <point x="-54" y="538"/>
      <point x="86" y="402"/>
    </contour>
    <contour>
      <point x="235" y="462" type="curve" smooth="yes"/>
      <point x="119" y="462"/>
      <point x="12" y="568"/>
      <point x="12" y="684" type="curve" smooth="yes"/>
      <point x="12" y="780"/>
      <point x="83" y="858"/>
      <point x="185" y="858" type="curve" smooth="yes"/>
      <point x="301" y="858"/>
      <point x="408" y="752"/>
      <point x="408" y="636" type="curve" smooth="yes"/>
      <point x="408" y="540"/>
      <point x="337" y="462"/>
    </contour>
    <contour>
      <point x="147" y="546" type="line"/>
      <point x="207" y="546" type="line"/>
      <point x="189" y="616" type="line"/>
      <point x="218" y="616" type="line"/>
      <point x="281" y="546" type="line"/>
      <point x="352" y="546" type="line"/>
      <point x="273" y="631" type="line"/>
      <point x="292" y="644"/>
      <point x="302" y="665"/>
      <point x="302" y="689" type="curve" smooth="yes"/>
      <point x="302" y="743"/>
      <point x="255" y="786"/>
      <point x="197" y="786" type="curve" smooth="yes"/>
      <point x="87" y="786" type="line"/>
    </contour>
    <contour>
      <point x="177" y="664" type="line"/>
      <point x="160" y="734" type="line"/>
      <point x="203" y="734" type="line" smooth="yes"/>
      <point x="226" y="734"/>
      <point x="245" y="717"/>
      <point x="245" y="694" type="curve" smooth="yes"/>
      <point x="245" y="674"/>
      <point x="231" y="664"/>
      <point x="211" y="664" type="curve" smooth="yes"/>
    </contour>
  </outline>
</glyph>
<glyph name="degree" format="2">
  <advance width="480"/>
  <unicode hex="00B0"/>
  <outline>
    <contour>
      <point x="153" y="558" type="curve" smooth="yes"/>
      <point x="249" y="558"/>
      <point x="315" y="624"/>
      <point x="315" y="711" type="curve" smooth="yes"/>
      <point x="315" y="817"/>
      <point x="221" y="912"/>
      <point x="111" y="912" type="curve" smooth="yes"/>
      <point x="15" y="912"/>
      <point x="-51" y="843"/>
      <point x="-51" y="756" type="curve" smooth="yes"/>
      <point x="-51" y="652"/>
      <point x="43" y="558"/>
    </contour>
    <contour>
      <point x="144" y="633" type="curve" smooth="yes"/>
      <point x="81" y="633"/>
      <point x="27" y="687"/>
      <point x="27" y="747" type="curve" smooth="yes"/>
      <point x="27" y="797"/>
      <point x="65" y="837"/>
      <point x="120" y="837" type="curve" smooth="yes"/>
      <point x="183" y="837"/>
      <point x="237" y="782"/>
      <point x="237" y="721" type="curve" smooth="yes"/>
      <point x="237" y="671"/>
      <point x="199" y="633"/>
    </contour>
  </outline>
</glyph>
<glyph name="plusminus" format="2">
  <advance width="750"/>
  <unicode hex="00B1"/>
  <outline>
    <contour>
      <point x="340" y="255" type="line"/>
      <point x="436" y="255" type="line"/>
      <point x="383" y="465" type="line"/>
      <point x="621" y="465" type="line"/>
      <point x="599" y="555" type="line"/>
      <point x="360" y="555" type="line"/>
      <point x="299" y="795" type="line"/>
      <point x="203" y="795" type="line"/>
      <point x="264" y="555" type="line"/>
      <point x="29" y="555" type="line"/>
      <point x="51" y="465" type="line"/>
      <point x="287" y="465" type="line"/>
    </contour>
    <contour>
      <point x="146" y="77" type="line"/>
      <point x="716" y="77" type="line"/>
      <point x="695" y="163" type="line"/>
      <point x="125" y="163" type="line"/>
    </contour>
  </outline>
</glyph>
<glyph name="micro" format="2">
  <advance width="750"/>
  <unicode hex="00B5"/>
  <unicode hex="03BC"/>
  <outline>
    <contour>
      <point x="246" y="-300" type="line"/>
      <point x="354" y="-300" type="line"/>
      <point x="267" y="51" type="line"/>
      <point x="316" y="10"/>
      <point x="373" y="-12"/>
      <point x="429" y="-12" type="curve" smooth="yes"/>
      <point x="503" y="-12"/>
      <point x="564" y="24"/>
      <point x="596" y="91" type="curve"/>
      <point x="639" y="25"/>
      <point x="706" y="-12"/>
      <point x="778" y="-12" type="curve"/>
      <point x="778" y="81" type="line"/>
      <point x="727" y="81"/>
      <point x="685" y="105"/>
      <point x="667" y="178" type="curve" smooth="yes"/>
      <point x="562" y="600" type="line"/>
      <point x="454" y="600" type="line"/>
      <point x="537" y="267" type="line" smooth="yes"/>
      <point x="566" y="152"/>
      <point x="503" y="90"/>
      <point x="419" y="90" type="curve" smooth="yes"/>
      <point x="316" y="90"/>
      <point x="236" y="175"/>
      <point x="212" y="270" type="curve" smooth="yes"/>
      <point x="130" y="600" type="line"/>
      <point x="22" y="600" type="line"/>
    </contour>
  </outline>
</glyph>
<glyph name="paragraph" format="2">
  <advance width="750"/>
  <unicode hex="00B6"/>
  <outline>
    <contour>
      <point x="446" y="-180" type="line"/>
      <point x="542" y="-180" type="line"/>
      <point x="280" y="864" type="line"/>
      <point x="400" y="864" type="line"/>
      <point x="661" y="-180" type="line"/>
      <point x="757" y="-180" type="line"/>
      <point x="472" y="960" type="line"/>
      <point x="300" y="960" type="line" smooth="yes"/>
      <point x="102" y="960"/>
      <point x="-39" y="843"/>
      <point x="-39" y="678" type="curve" smooth="yes"/>
      <point x="-39" y="503"/>
      <point x="119" y="360"/>
      <point x="311" y="360" type="curve"/>
    </contour>
  </outline>
</glyph>
<glyph name="ordmasculine" format="2">
  <advance width="480"/>
  <unicode hex="00BA"/>
  <outline>
    <contour>
      <point x="187" y="408" type="curve" smooth="yes"/>
      <point x="287" y="408"/>
      <point x="363" y="482"/>
      <point x="363" y="579" type="curve" smooth="yes"/>
      <point x="363" y="692"/>
      <point x="261" y="792"/>
      <point x="144" y="792" type="curve" smooth="yes"/>
      <point x="43" y="792"/>
      <point x="-33" y="719"/>
      <point x="-33" y="621" type="curve" smooth="yes"/>
      <point x="-33" y="507"/>
      <point x="70" y="408"/>
    </contour>
    <contour>
      <point x="177" y="489" type="curve" smooth="yes"/>
      <point x="110" y="489"/>
      <point x="50" y="547"/>
      <point x="50" y="611" type="curve" smooth="yes"/>
      <point x="50" y="667"/>
      <point x="94" y="711"/>
      <point x="152" y="711" type="curve" smooth="yes"/>
      <point x="220" y="711"/>
      <point x="279" y="654"/>
      <point x="279" y="589" type="curve" smooth="yes"/>
      <point x="279" y="532"/>
      <point x="236" y="489"/>
    </contour>
  </outline>
</glyph>
<glyph name="questiondown" format="2">
  <advance width="480"/>
  <unicode hex="00BF"/>
  <outline>
    <contour>
      <point x="368" y="-312" type="curve" smooth="yes"/>
      <point x="417" y="-312"/>
      <point x="486" y="-298"/>
      <point x="528" y="-253" type="curve"/>
      <point x="496" y="-125" type="line"/>
      <point x="474" y="-176"/>
      <point x="428" y="-212"/>
      <point x="367" y="-212" type="curve" smooth="yes"/>
      <point x="283" y="-212"/>
      <point x="239" y="-149"/>
      <point x="239" y="-77" type="curve" smooth="yes"/>
      <point x="239" y="25"/>
      <point x="332" y="126"/>
      <point x="288" y="300" type="curve"/>
      <point x="192" y="300" type="line"/>
      <point x="228" y="135"/>
      <point x="131" y="51"/>
      <point x="131" y="-76" type="curve" smooth="yes"/>
      <point x="131" y="-205"/>
      <point x="230" y="-312"/>
    </contour>
    <contour>
      <point x="190" y="462" type="curve" smooth="yes"/>
      <point x="226" y="462"/>
      <point x="256" y="490"/>
      <point x="256" y="528" type="curve" smooth="yes"/>
      <point x="256" y="573"/>
      <point x="217" y="612"/>
      <point x="172" y="612" type="curve" smooth="yes"/>
      <point x="136" y="612"/>
      <point x="106" y="583"/>
      <point x="106" y="546" type="curve" smooth="yes"/>
      <point x="106" y="501"/>
      <point x="145" y="462"/>
    </contour>
  </outline>
</glyph>
<glyph name="Aring" format="2">
  <advance width="800"/>
  <unicode hex="00C5"/>
  <outline>
    <contour>
      <point x="93" y="0" type="line"/>
      <point x="202" y="0" type="line"/>
      <point x="243" y="267" type="line"/>
      <point x="558" y="267" type="line"/>
      <point x="730" y="0" type="line"/>
      <point x="857" y="0" type="line"/>
      <point x="304" y="844" type="line"/>
      <point x="355" y="864"/>
      <point x="391" y="913"/>
      <point x="391" y="972" type="curve" smooth="yes"/>
      <point x="391" y="1064"/>
      <point x="307" y="1146"/>
      <point x="214" y="1146" type="curve" smooth="yes"/>
      <point x="136" y="1146"/>
      <point x="73" y="1087"/>
      <point x="73" y="1008" type="curve" smooth="yes"/>
      <point x="73" y="923"/>
      <point x="145" y="846"/>
      <point x="229" y="835" type="curve"/>
    </contour>
    <contour>
      <point x="258" y="362" type="line"/>
      <point x="285" y="540" type="line" smooth="yes"/>
      <point x="291" y="585"/>
      <point x="297" y="624"/>
      <point x="298" y="686" type="curve"/>
      <point x="329" y="624"/>
      <point x="352" y="586"/>
      <point x="382" y="540" type="curve" smooth="yes"/>
      <point x="497" y="362" type="line"/>
    </contour>
    <contour>
      <point x="243" y="906" type="curve" smooth="yes"/>
      <point x="194" y="906"/>
      <point x="148" y="950"/>
      <point x="148" y="1001" type="curve" smooth="yes"/>
      <point x="148" y="1041"/>
      <point x="179" y="1074"/>
      <point x="221" y="1074" type="curve" smooth="yes"/>
      <point x="270" y="1074"/>
      <point x="316" y="1030"/>
      <point x="316" y="979" type="curve" smooth="yes"/>
      <point x="316" y="939"/>
      <point x="285" y="906"/>
    </contour>
  </outline>
</glyph>
<glyph name="AE" format="2">
  <advance width="1020"/>
  <unicode hex="00C6"/>
  <anchor x="454" y="0" name="bottom"/>
  <anchor x="437" y="900" name="top"/>
  <outline>
    <contour>
      <point x="92" y="0" type="line"/>
      <point x="200" y="0" type="line"/>
      <point x="241" y="267" type="line"/>
      <point x="546" y="267" type="line"/>
      <point x="694" y="0" type="line"/>
      <point x="1064" y="0" type="line"/>
      <point x="1015" y="102" type="line"/>
      <point x="759" y="102" type="line"/>
      <point x="536" y="504" type="line"/>
      <point x="764" y="504" type="line"/>
      <point x="716" y="606" type="line"/>
      <point x="479" y="606" type="line"/>
      <point x="372" y="798" type="line"/>
      <point x="661" y="798" type="line"/>
      <point x="612" y="900" type="line"/>
      <point x="238" y="900" type="line"/>
    </contour>
    <contour>
      <point x="255" y="362" type="line"/>
      <point x="282" y="540" type="line" smooth="yes"/>
      <point x="290" y="594"/>
      <point x="298" y="647"/>
      <point x="302" y="713" type="curve"/>
      <point x="335" y="647"/>
      <point x="365" y="594"/>
      <point x="395" y="540" type="curve" smooth="yes"/>
      <point x="493" y="362" type="line"/>
    </contour>
  </outline>
</glyph>
<glyph name="Ccedilla" format="2">
  <advance width="900"/>
  <unicode hex="00C7"/>
  <outline>
    <contour>
      <point x="312" y="-180" type="line"/>
      <point x="455" y="-180" type="line"/>
      <point x="585" y="-16" type="line"/>
      <point x="701" y="-7"/>
      <point x="803" y="47"/>
      <point x="874" y="136" type="curve"/>
      <point x="817" y="255" type="line"/>
      <point x="771" y="155"/>
      <point x="661" y="90"/>
      <point x="539" y="90" type="curve" smooth="yes"/>
      <point x="330" y="90"/>
      <point x="142" y="283"/>
      <point x="142" y="496" type="curve" smooth="yes"/>
      <point x="142" y="674"/>
      <point x="274" y="810"/>
      <point x="449" y="810" type="curve" smooth="yes"/>
      <point x="547" y="810"/>
      <point x="646" y="766"/>
      <point x="723" y="688" type="curve"/>
      <point x="723" y="826" type="line"/>
      <point x="634" y="886"/>
      <point x="534" y="918"/>
      <point x="438" y="918" type="curve" smooth="yes"/>
      <point x="204" y="918"/>
      <point x="24" y="738"/>
      <point x="24" y="505" type="curve" smooth="yes"/>
      <point x="24" y="255"/>
      <point x="232" y="25"/>
      <point x="478" y="-13" type="curve"/>
    </contour>
  </outline>
</glyph>
<glyph name="Eth" format="2">
  <advance width="990"/>
  <unicode hex="00D0"/>
  <outline>
    <contour>
      <point x="231" y="0" type="line"/>
      <point x="477" y="0" type="line" smooth="yes"/>
      <point x="711" y="0"/>
      <point x="891" y="162"/>
      <point x="891" y="395" type="curve" smooth="yes"/>
      <point x="891" y="669"/>
      <point x="642" y="900"/>
      <point x="367" y="900" type="curve" smooth="yes"/>
      <point x="6" y="900" type="line"/>
      <point x="101" y="522" type="line"/>
      <point x="9" y="522" type="line"/>
      <point x="29" y="438" type="line"/>
      <point x="122" y="438" type="line"/>
    </contour>
    <contour>
      <point x="320" y="102" type="line"/>
      <point x="236" y="438" type="line"/>
      <point x="509" y="438" type="line"/>
      <point x="489" y="522" type="line"/>
      <point x="214" y="522" type="line"/>
      <point x="145" y="798" type="line"/>
      <point x="366" y="798" type="line" smooth="yes"/>
      <point x="585" y="798"/>
      <point x="773" y="616"/>
      <point x="773" y="403" type="curve" smooth="yes"/>
      <point x="773" y="225"/>
      <point x="640" y="102"/>
      <point x="454" y="102" type="curve" smooth="yes"/>
    </contour>
  </outline>
</glyph>
<glyph name="multiply" format="2">
  <advance width="750"/>
  <unicode hex="00D7"/>
  <outline>
    <contour>
      <point x="196" y="180" type="line"/>
      <point x="348" y="383" type="line"/>
      <point x="606" y="180" type="line"/>
      <point x="663" y="254" type="line"/>
      <point x="403" y="458" type="line"/>
      <point x="554" y="660" type="line"/>
      <point x="480" y="720" type="line"/>
      <point x="328" y="517" type="line"/>
      <point x="70" y="720" type="line"/>
      <point x="13" y="646" type="line"/>
      <point x="273" y="442" type="line"/>
      <point x="122" y="240" type="line"/>
    </contour>
  </outline>
</glyph>
<glyph name="Oslash" format="2">
  <advance width="1060"/>
  <unicode hex="00D8"/>
  <anchor x="456" y="0" name="bottom"/>
  <anchor x="380" y="900" name="top"/>
  <outline>
    <contour>
      <point x="548" y="-18" type="curve" smooth="yes"/>
      <point x="782" y="-18"/>
      <point x="962" y="162"/>
      <point x="962" y="395" type="curve" smooth="yes"/>
      <point x="962" y="541"/>
      <point x="892" y="679"/>
      <point x="784" y="777" type="curve"/>
      <point x="841" y="858" type="line"/>
      <point x="765" y="911" type="line"/>
      <point x="711" y="834" type="line"/>
      <point x="630" y="887"/>
      <point x="536" y="918"/>
      <point x="438" y="918" type="curve" smooth="yes"/>
      <point x="204" y="918"/>
      <point x="24" y="738"/>
      <point x="24" y="505" type="curve" smooth="yes"/>
      <point x="24" y="356"/>
      <point x="98" y="214"/>
      <point x="209" y="116" type="curve"/>
      <point x="148" y="28" type="line"/>
      <point x="224" y="-25" type="line"/>
      <point x="284" y="61" type="line"/>
      <point x="363" y="11"/>
      <point x="454" y="-18"/>
    </contour>
    <contour>
      <point x="271" y="204" type="line"/>
      <point x="193" y="280"/>
      <point x="142" y="386"/>
      <point x="142" y="497" type="curve" smooth="yes"/>
      <point x="142" y="675"/>
      <point x="275" y="810"/>
      <point x="449" y="810" type="curve" smooth="yes"/>
      <point x="521" y="810"/>
      <point x="590" y="787"/>
      <point x="651" y="747" type="curve"/>
    </contour>
    <contour>
      <point x="537" y="90" type="curve" smooth="yes"/>
      <point x="469" y="90"/>
      <point x="402" y="111"/>
      <point x="344" y="147" type="curve"/>
      <point x="722" y="688" type="line"/>
      <point x="796" y="613"/>
      <point x="844" y="510"/>
      <point x="844" y="403" type="curve" smooth="yes"/>
      <point x="844" y="225"/>
      <point x="711" y="90"/>
    </contour>
  </outline>
</glyph>
<glyph name="Thorn" format="2">
  <advance width="720"/>
  <unicode hex="00DE"/>
  <outline>
    <contour>
      <point x="201" y="0" type="line"/>
      <point x="315" y="0" type="line"/>
      <point x="266" y="196" type="line"/>
      <point x="347" y="196" type="line" smooth="yes"/>
      <point x="509" y="196"/>
      <point x="626" y="301"/>
      <point x="626" y="452" type="curve" smooth="yes"/>
      <point x="626" y="630"/>
      <point x="464" y="780"/>
      <point x="276" y="780" type="curve" smooth="yes"/>
      <point x="120" y="780" type="line"/>
      <point x="90" y="900" type="line"/>
      <point x="-24" y="900" type="line"/>
    </contour>
    <contour>
      <point x="241" y="298" type="line"/>
      <point x="146" y="678" type="line"/>
      <point x="278" y="678" type="line" smooth="yes"/>
      <point x="409" y="678"/>
      <point x="512" y="579"/>
      <point x="512" y="462" type="curve" smooth="yes"/>
      <point x="512" y="365"/>
      <point x="439" y="298"/>
      <point x="326" y="298" type="curve" smooth="yes"/>
    </contour>
  </outline>
</glyph>
<glyph name="germandbls" format="2">
  <advance width="730"/>
  <unicode hex="00DF"/>
  <outline>
    <contour>
      <point x="440" y="-11" type="line"/>
      <point x="574" y="21"/>
      <point x="663" y="131"/>
      <point x="663" y="268" type="curve" smooth="yes"/>
      <point x="663" y="419"/>
      <point x="554" y="561"/>
      <point x="399" y="609" type="curve"/>
      <point x="434" y="647"/>
      <point x="451" y="689"/>
      <point x="451" y="737" type="curve" smooth="yes"/>
      <point x="451" y="863"/>
      <point x="333" y="971"/>
      <point x="195" y="971" type="curve" smooth="yes"/>
      <point x="47" y="971"/>
      <point x="-42" y="850"/>
      <point x="-4" y="699" type="curve" smooth="yes"/>
      <point x="171" y="0" type="line"/>
      <point x="279" y="0" type="line"/>
      <point x="102" y="712" type="line" smooth="yes"/>
      <point x="79" y="804"/>
      <point x="124" y="875"/>
      <point x="204" y="875" type="curve" smooth="yes"/>
      <point x="280" y="875"/>
      <point x="344" y="810"/>
      <point x="344" y="733" type="curve" smooth="yes"/>
      <point x="344" y="672"/>
      <point x="304" y="615"/>
      <point x="224" y="564" type="curve"/>
      <point x="224" y="562" type="line"/>
      <point x="428" y="525"/>
      <point x="550" y="417"/>
      <point x="550" y="273" type="curve" smooth="yes"/>
      <point x="550" y="172"/>
      <point x="493" y="102"/>
      <point x="393" y="81" type="curve"/>
    </contour>
  </outline>
</glyph>
<glyph name="ae" format="2">
  <advance width="1140"/>
  <unicode hex="00E6"/>
  <anchor x="583" y="0" name="bottom"/>
  <anchor x="525" y="600" name="top"/>
  <outline>
    <contour>
      <point x="320" y="-12" type="curve" smooth="yes"/>
      <point x="427" y="-12"/>
      <point x="529" y="42"/>
      <point x="575" y="118" type="curve"/>
      <point x="641" y="41"/>
      <point x="739" y="-12"/>
      <point x="845" y="-12" type="curve" smooth="yes"/>
      <point x="918" y="-12"/>
      <point x="1017" y="10"/>
      <point x="1085" y="90" type="curve"/>
      <point x="1026" y="207" type="line"/>
      <point x="997" y="139"/>
      <point x="927" y="89"/>
      <point x="839" y="89" type="curve" smooth="yes"/>
      <point x="746" y="89"/>
      <point x="635" y="160"/>
      <point x="605" y="278" type="curve"/>
      <point x="642" y="273"/>
      <point x="678" y="270"/>
      <point x="713" y="270" type="curve" smooth="yes"/>
      <point x="1091" y="270" type="line"/>
      <point x="1086" y="314" type="line" smooth="yes"/>
      <point x="1066" y="488"/>
      <point x="914" y="612"/>
      <point x="754" y="612" type="curve" smooth="yes"/>
      <point x="668" y="612"/>
      <point x="586" y="570"/>
      <point x="537" y="502" type="curve"/>
      <point x="485" y="569"/>
      <point x="399" y="608"/>
      <point x="295" y="608" type="curve" smooth="yes"/>
      <point x="203" y="608"/>
      <point x="117" y="575"/>
      <point x="53" y="519" type="curve"/>
      <point x="105" y="415" type="line"/>
      <point x="144" y="472"/>
      <point x="217" y="512"/>
      <point x="298" y="512" type="curve" smooth="yes"/>
      <point x="390" y="512"/>
      <point x="464" y="462"/>
      <point x="489" y="383" type="curve"/>
      <point x="488" y="374"/>
      <point x="487" y="365"/>
      <point x="487" y="355" type="curve"/>
      <point x="444" y="370"/>
      <point x="388" y="378"/>
      <point x="337" y="378" type="curve" smooth="yes"/>
      <point x="190" y="378"/>
      <point x="89" y="300"/>
      <point x="89" y="187" type="curve" smooth="yes"/>
      <point x="89" y="74"/>
      <point x="190" y="-12"/>
    </contour>
    <contour>
      <point x="329" y="78" type="curve" smooth="yes"/>
      <point x="251" y="78"/>
      <point x="198" y="123"/>
      <point x="198" y="183" type="curve" smooth="yes"/>
      <point x="198" y="248"/>
      <point x="261" y="288"/>
      <point x="369" y="288" type="curve" smooth="yes"/>
      <point x="415" y="288"/>
      <point x="461" y="282"/>
      <point x="496" y="272" type="curve"/>
      <point x="519" y="205" type="line"/>
      <point x="501" y="138"/>
      <point x="421" y="78"/>
    </contour>
    <contour>
      <point x="592" y="351" type="curve"/>
      <point x="600" y="441"/>
      <point x="669" y="516"/>
      <point x="761" y="516" type="curve" smooth="yes"/>
      <point x="856" y="516"/>
      <point x="941" y="447"/>
      <point x="972" y="355" type="curve"/>
      <point x="943" y="358"/>
      <point x="913" y="360"/>
      <point x="884" y="360" type="curve" smooth="yes"/>
      <point x="698" y="360" type="line" smooth="yes"/>
      <point x="662" y="360"/>
      <point x="627" y="357"/>
    </contour>
  </outline>
</glyph>
<glyph name="ccedilla" format="2">
  <advance width="630"/>
  <unicode hex="00E7"/>
  <outline>
    <contour>
      <point x="231" y="-180" type="line"/>
      <point x="358" y="-180" type="line"/>
      <point x="453" y="-10" type="line"/>
      <point x="529" y="-1"/>
      <point x="596" y="37"/>
      <point x="640" y="92" type="curve"/>
      <point x="582" y="215" type="line"/>
      <point x="563" y="143"/>
      <point x="497" y="90"/>
      <point x="402" y="90" type="curve" smooth="yes"/>
      <point x="275" y="90"/>
      <point x="164" y="202"/>
      <point x="164" y="326" type="curve" smooth="yes"/>
      <point x="164" y="427"/>
      <point x="238" y="510"/>
      <point x="350" y="510" type="curve" smooth="yes"/>
      <point x="423" y="510"/>
      <point x="489" y="475"/>
      <point x="533" y="421" type="curve"/>
      <point x="533" y="553" type="line"/>
      <point x="477" y="590"/>
      <point x="412" y="612"/>
      <point x="339" y="612" type="curve" smooth="yes"/>
      <point x="178" y="612"/>
      <point x="54" y="494"/>
      <point x="54" y="337" type="curve" smooth="yes"/>
      <point x="54" y="173"/>
      <point x="192" y="24"/>
      <point x="358" y="-7" type="curve"/>
    </contour>
  </outline>
</glyph>
<glyph name="eth" format="2">
  <advance width="740"/>
  <unicode hex="00F0"/>
  <outline>
    <contour>
      <point x="406" y="-12" type="curve" smooth="yes"/>
      <point x="560" y="-12"/>
      <point x="684" y="103"/>
      <point x="684" y="267" type="curve" smooth="yes"/>
      <point x="684" y="392"/>
      <point x="611" y="511"/>
      <point x="508" y="616" type="curve" smooth="yes"/>
      <point x="465" y="660"/>
      <point x="380" y="736"/>
      <point x="295" y="815" type="curve"/>
      <point x="394" y="906" type="line"/>
      <point x="342" y="960" type="line"/>
      <point x="237" y="863" type="line"/>
      <point x="198" y="898"/>
      <point x="157" y="929"/>
      <point x="122" y="960" type="curve"/>
      <point x="-17" y="960" type="line"/>
      <point x="46" y="908"/>
      <point x="110" y="856"/>
      <point x="173" y="804" type="curve"/>
      <point x="66" y="704" type="line"/>
      <point x="118" y="650" type="line"/>
      <point x="232" y="755" type="line"/>
      <point x="305" y="693"/>
      <point x="371" y="631"/>
      <point x="435" y="567" type="curve"/>
      <point x="392" y="594"/>
      <point x="350" y="606"/>
      <point x="308" y="606" type="curve" smooth="yes"/>
      <point x="168" y="606"/>
      <point x="53" y="494"/>
      <point x="53" y="341" type="curve" smooth="yes"/>
      <point x="53" y="158"/>
      <point x="217" y="-12"/>
    </contour>
    <contour>
      <point x="396" y="90" type="curve" smooth="yes"/>
      <point x="274" y="90"/>
      <point x="163" y="203"/>
      <point x="163" y="326" type="curve" smooth="yes"/>
      <point x="163" y="427"/>
      <point x="237" y="510"/>
      <point x="341" y="510" type="curve" smooth="yes"/>
      <point x="462" y="510"/>
      <point x="574" y="399"/>
      <point x="574" y="275" type="curve" smooth="yes"/>
      <point x="574" y="174"/>
      <point x="506" y="90"/>
    </contour>
  </outline>
</glyph>
<glyph name="divide" format="2">
  <advance width="750"/>
  <unicode hex="00F7"/>
  <outline>
    <contour>
      <point x="33" y="408" type="line"/>
      <point x="663" y="408" type="line"/>
      <point x="641" y="498" type="line"/>
      <point x="11" y="498" type="line"/>
    </contour>
    <contour>
      <point x="398" y="171" type="curve" smooth="yes"/>
      <point x="432" y="171"/>
      <point x="459" y="198"/>
      <point x="459" y="232" type="curve" smooth="yes"/>
      <point x="459" y="273"/>
      <point x="423" y="309"/>
      <point x="382" y="309" type="curve" smooth="yes"/>
      <point x="348" y="309"/>
      <point x="321" y="283"/>
      <point x="321" y="248" type="curve" smooth="yes"/>
      <point x="321" y="207"/>
      <point x="357" y="171"/>
    </contour>
    <contour>
      <point x="293" y="591" type="curve" smooth="yes"/>
      <point x="327" y="591"/>
      <point x="354" y="618"/>
      <point x="354" y="652" type="curve" smooth="yes"/>
      <point x="354" y="693"/>
      <point x="318" y="729"/>
      <point x="277" y="729" type="curve" smooth="yes"/>
      <point x="243" y="729"/>
      <point x="216" y="703"/>
      <point x="216" y="668" type="curve" smooth="yes"/>
      <point x="216" y="627"/>
      <point x="252" y="591"/>
    </contour>
  </outline>
</glyph>
<glyph name="oslash" format="2">
  <advance width="740"/>
  <unicode hex="00F8"/>
  <anchor x="295" y="600" name="top"/>
  <outline>
    <contour>
      <point x="407" y="-12" type="curve" smooth="yes"/>
      <point x="562" y="-12"/>
      <point x="686" y="106"/>
      <point x="686" y="263" type="curve" smooth="yes"/>
      <point x="686" y="358"/>
      <point x="642" y="448"/>
      <point x="573" y="513" type="curve"/>
      <point x="616" y="571" type="line"/>
      <point x="556" y="617" type="line"/>
      <point x="513" y="559" type="line"/>
      <point x="459" y="592"/>
      <point x="397" y="612"/>
      <point x="333" y="612" type="curve" smooth="yes"/>
      <point x="178" y="612"/>
      <point x="54" y="494"/>
      <point x="54" y="337" type="curve" smooth="yes"/>
      <point x="54" y="243"/>
      <point x="98" y="153"/>
      <point x="166" y="89" type="curve"/>
      <point x="120" y="27" type="line"/>
      <point x="180" y="-19" type="line"/>
      <point x="225" y="42" type="line"/>
      <point x="279" y="8"/>
      <point x="342" y="-12"/>
    </contour>
    <contour>
      <point x="223" y="166" type="line"/>
      <point x="183" y="210"/>
      <point x="158" y="267"/>
      <point x="158" y="327" type="curve" smooth="yes"/>
      <point x="158" y="431"/>
      <point x="234" y="516"/>
      <point x="343" y="516" type="curve" smooth="yes"/>
      <point x="383" y="516"/>
      <point x="423" y="504"/>
      <point x="457" y="483" type="curve"/>
    </contour>
    <contour>
      <point x="397" y="84" type="curve" smooth="yes"/>
      <point x="356" y="84"/>
      <point x="316" y="96"/>
      <point x="281" y="118" type="curve"/>
      <point x="516" y="436" type="line"/>
      <point x="556" y="392"/>
      <point x="582" y="334"/>
      <point x="582" y="273" type="curve" smooth="yes"/>
      <point x="582" y="169"/>
      <point x="506" y="84"/>
    </contour>
  </outline>
</glyph>
<glyph name="thorn" format="2">
  <advance width="760"/>
  <unicode hex="00FE"/>
  <outline>
    <contour>
      <point x="246" y="-300" type="line"/>
      <point x="354" y="-300" type="line"/>
      <point x="260" y="70" type="line"/>
      <point x="311" y="23"/>
      <point x="377" y="-8"/>
      <point x="449" y="-8" type="curve" smooth="yes"/>
      <point x="587" y="-8"/>
      <point x="706" y="108"/>
      <point x="706" y="263" type="curve" smooth="yes"/>
      <point x="706" y="445"/>
      <point x="544" y="608"/>
      <point x="364" y="608" type="curve" smooth="yes"/>
      <point x="278" y="608"/>
      <point x="202" y="570"/>
      <point x="152" y="508" type="curve"/>
      <point x="39" y="960" type="line"/>
      <point x="-69" y="960" type="line"/>
    </contour>
    <contour>
      <point x="419" y="90" type="curve" smooth="yes"/>
      <point x="299" y="90"/>
      <point x="188" y="203"/>
      <point x="188" y="326" type="curve" smooth="yes"/>
      <point x="188" y="425"/>
      <point x="260" y="510"/>
      <point x="365" y="510" type="curve" smooth="yes"/>
      <point x="485" y="510"/>
      <point x="596" y="397"/>
      <point x="596" y="274" type="curve" smooth="yes"/>
      <point x="596" y="175"/>
      <point x="524" y="90"/>
    </contour>
  </outline>
</glyph>
<glyph name="Aogonek" format="2">
  <advance width="800"/>
  <unicode hex="0104"/>
  <outline>
    <contour>
      <point x="883" y="-312" type="curve"/>
      <point x="883" y="-219" type="line"/>
      <point x="814" y="-219"/>
      <point x="774" y="-184"/>
      <point x="774" y="-121" type="curve" smooth="yes"/>
      <point x="774" y="-68"/>
      <point x="805" y="-23"/>
      <point x="857" y="0" type="curve"/>
      <point x="248" y="930" type="line"/>
      <point x="246" y="930" type="line"/>
      <point x="93" y="0" type="line"/>
      <point x="202" y="0" type="line"/>
      <point x="243" y="267" type="line"/>
      <point x="558" y="267" type="line"/>
      <point x="736" y="-8" type="line"/>
      <point x="703" y="-42"/>
      <point x="681" y="-88"/>
      <point x="681" y="-136" type="curve" smooth="yes"/>
      <point x="681" y="-239"/>
      <point x="767" y="-312"/>
    </contour>
    <contour>
      <point x="258" y="362" type="line"/>
      <point x="285" y="540" type="line" smooth="yes"/>
      <point x="292" y="585"/>
      <point x="297" y="624"/>
      <point x="298" y="686" type="curve"/>
      <point x="329" y="624"/>
      <point x="352" y="586"/>
      <point x="382" y="540" type="curve" smooth="yes"/>
      <point x="497" y="362" type="line"/>
    </contour>
  </outline>
</glyph>
<glyph name="aogonek" format="2">
  <advance width="760"/>
  <unicode hex="0105"/>
  <outline>
    <contour>
      <point x="775" y="-312" type="curve"/>
      <point x="775" y="-219" type="line"/>
      <point x="706" y="-219"/>
      <point x="666" y="-184"/>
      <point x="666" y="-121" type="curve" smooth="yes"/>
      <point x="666" y="-68"/>
      <point x="697" y="-23"/>
      <point x="739" y="0" type="curve"/>
      <point x="589" y="600" type="line"/>
      <point x="489" y="600" type="line"/>
      <point x="510" y="520" type="line"/>
      <point x="457" y="573"/>
      <point x="387" y="608"/>
      <point x="311" y="608" type="curve" smooth="yes"/>
      <point x="173" y="608"/>
      <point x="54" y="492"/>
      <point x="54" y="337" type="curve" smooth="yes"/>
      <point x="54" y="155"/>
      <point x="216" y="-8"/>
      <point x="396" y="-8" type="curve" smooth="yes"/>
      <point x="486" y="-8"/>
      <point x="565" y="33"/>
      <point x="614" y="100" type="curve"/>
      <point x="639" y="0" type="line"/>
      <point x="594" y="-40"/>
      <point x="573" y="-88"/>
      <point x="573" y="-138" type="curve" smooth="yes"/>
      <point x="573" y="-238"/>
      <point x="659" y="-312"/>
    </contour>
    <contour>
      <point x="395" y="90" type="curve" smooth="yes"/>
      <point x="275" y="90"/>
      <point x="164" y="203"/>
      <point x="164" y="326" type="curve" smooth="yes"/>
      <point x="164" y="425"/>
      <point x="236" y="510"/>
      <point x="341" y="510" type="curve" smooth="yes"/>
      <point x="461" y="510"/>
      <point x="572" y="397"/>
      <point x="572" y="274" type="curve" smooth="yes"/>
      <point x="572" y="175"/>
      <point x="500" y="90"/>
    </contour>
  </outline>
</glyph>
<glyph name="Eogonek" format="2">
  <advance width="630"/>
  <unicode hex="0118"/>
  <anchor x="198" y="900" name="top"/>
  <outline>
    <contour>
      <point x="671" y="-312" type="curve"/>
      <point x="671" y="-219" type="line"/>
      <point x="602" y="-219"/>
      <point x="562" y="-184"/>
      <point x="562" y="-121" type="curve" smooth="yes"/>
      <point x="562" y="-68"/>
      <point x="593" y="-23"/>
      <point x="645" y="0" type="curve"/>
      <point x="620" y="102" type="line"/>
      <point x="290" y="102" type="line"/>
      <point x="189" y="504" type="line"/>
      <point x="449" y="504" type="line"/>
      <point x="424" y="606" type="line"/>
      <point x="164" y="606" type="line"/>
      <point x="115" y="798" type="line"/>
      <point x="445" y="798" type="line"/>
      <point x="420" y="900" type="line"/>
      <point x="-24" y="900" type="line"/>
      <point x="201" y="0" type="line"/>
      <point x="535" y="0" type="line"/>
      <point x="490" y="-40"/>
      <point x="469" y="-88"/>
      <point x="469" y="-138" type="curve" smooth="yes"/>
      <point x="469" y="-238"/>
      <point x="555" y="-312"/>
    </contour>
  </outline>
</glyph>
<glyph name="eogonek" format="2">
  <advance width="710"/>
  <unicode hex="0119"/>
  <anchor x="278" y="600" name="top"/>
  <outline>
    <contour>
      <point x="695" y="-312" type="curve"/>
      <point x="695" y="-219" type="line"/>
      <point x="621" y="-219"/>
      <point x="580" y="-177"/>
      <point x="580" y="-101" type="curve" smooth="yes"/>
      <point x="580" y="-38"/>
      <point x="607" y="30"/>
      <point x="655" y="90" type="curve"/>
      <point x="600" y="200" type="line"/>
      <point x="575" y="136"/>
      <point x="496" y="89"/>
      <point x="413" y="89" type="curve" smooth="yes"/>
      <point x="300" y="89"/>
      <point x="199" y="168"/>
      <point x="170" y="278" type="curve"/>
      <point x="210" y="273"/>
      <point x="245" y="270"/>
      <point x="278" y="270" type="curve" smooth="yes"/>
      <point x="669" y="270" type="line"/>
      <point x="660" y="314" type="line" smooth="yes"/>
      <point x="625" y="486"/>
      <point x="482" y="612"/>
      <point x="324" y="612" type="curve" smooth="yes"/>
      <point x="170" y="612"/>
      <point x="52" y="495"/>
      <point x="52" y="344" type="curve" smooth="yes"/>
      <point x="52" y="157"/>
      <point x="222" y="-12"/>
      <point x="411" y="-12" type="curve" smooth="yes"/>
      <point x="454" y="-12"/>
      <point x="490" y="-3"/>
      <point x="525" y="16" type="curve"/>
      <point x="501" y="-28"/>
      <point x="487" y="-79"/>
      <point x="487" y="-122" type="curve" smooth="yes"/>
      <point x="487" y="-231"/>
      <point x="575" y="-312"/>
    </contour>
    <contour>
      <point x="157" y="351" type="curve"/>
      <point x="165" y="446"/>
      <point x="239" y="516"/>
      <point x="331" y="516" type="curve" smooth="yes"/>
      <point x="423" y="516"/>
      <point x="510" y="450"/>
      <point x="542" y="355" type="curve"/>
      <point x="510" y="358"/>
      <point x="480" y="360"/>
      <point x="454" y="360" type="curve" smooth="yes"/>
      <point x="263" y="360" type="line" smooth="yes"/>
      <point x="227" y="360"/>
      <point x="192" y="357"/>
    </contour>
  </outline>
</glyph>
<glyph name="Hbar" format="2">
  <advance width="800"/>
  <unicode hex="0126"/>
  <outline>
    <contour>
      <point x="201" y="0" type="line"/>
      <point x="315" y="0" type="line"/>
      <point x="204" y="444" type="line"/>
      <point x="524" y="444" type="line"/>
      <point x="635" y="0" type="line"/>
      <point x="749" y="0" type="line"/>
      <point x="572" y="708" type="line"/>
      <point x="670" y="708" type="line"/>
      <point x="650" y="792" type="line"/>
      <point x="551" y="792" type="line"/>
      <point x="524" y="900" type="line"/>
      <point x="410" y="900" type="line"/>
      <point x="437" y="792" type="line"/>
      <point x="117" y="792" type="line"/>
      <point x="90" y="900" type="line"/>
      <point x="-24" y="900" type="line"/>
      <point x="3" y="792" type="line"/>
      <point x="-90" y="792" type="line"/>
      <point x="-70" y="708" type="line"/>
      <point x="24" y="708" type="line"/>
    </contour>
    <contour>
      <point x="178" y="546" type="line"/>
      <point x="138" y="708" type="line"/>
      <point x="458" y="708" type="line"/>
      <point x="498" y="546" type="line"/>
    </contour>
  </outline>
</glyph>
<glyph name="hbar" format="2">
  <advance width="720"/>
  <unicode hex="0127"/>
  <outline>
    <contour>
      <point x="171" y="0" type="line"/>
      <point x="279" y="0" type="line"/>
      <point x="201" y="313" type="line" smooth="yes"/>
      <point x="173" y="424"/>
      <point x="233" y="508"/>
      <point x="335" y="508" type="curve" smooth="yes"/>
      <point x="421" y="508"/>
      <point x="491" y="449"/>
      <point x="518" y="341" type="curve" smooth="yes"/>
      <point x="603" y="0" type="line"/>
      <point x="711" y="0" type="line"/>
      <point x="619" y="368" type="line" smooth="yes"/>
      <point x="581" y="521"/>
      <point x="475" y="613"/>
      <point x="349" y="613" type="curve" smooth="yes"/>
      <point x="256" y="613"/>
      <point x="182" y="567"/>
      <point x="149" y="491" type="curve"/>
      <point x="86" y="746" type="line"/>
      <point x="298" y="746" type="line"/>
      <point x="282" y="814" type="line"/>
      <point x="69" y="814" type="line"/>
      <point x="33" y="960" type="line"/>
      <point x="-69" y="960" type="line"/>
      <point x="-32" y="814" type="line"/>
      <point x="-98" y="814" type="line"/>
      <point x="-82" y="746" type="line"/>
      <point x="-15" y="746" type="line"/>
    </contour>
  </outline>
</glyph>
<glyph name="Iogonek" format="2">
  <advance width="390"/>
  <unicode hex="012E"/>
  <outline>
    <contour>
      <point x="351" y="-312" type="curve"/>
      <point x="351" y="-219" type="line"/>
      <point x="282" y="-219"/>
      <point x="242" y="-184"/>
      <point x="242" y="-121" type="curve" smooth="yes"/>
      <point x="242" y="-68"/>
      <point x="275" y="-23"/>
      <point x="327" y="0" type="curve"/>
      <point x="102" y="900" type="line"/>
      <point x="-12" y="900" type="line"/>
      <point x="213" y="0" type="line"/>
      <point x="170" y="-40"/>
      <point x="149" y="-88"/>
      <point x="149" y="-138" type="curve" smooth="yes"/>
      <point x="149" y="-238"/>
      <point x="235" y="-312"/>
    </contour>
  </outline>
</glyph>
<glyph name="idotless" format="2">
  <advance width="300"/>
  <unicode hex="0131"/>
  <anchor x="225" y="0" name="bottom"/>
  <anchor x="225" y="0" name="ogonek"/>
  <anchor x="75" y="600" name="top"/>
  <outline>
    <contour>
      <point x="171" y="0" type="line"/>
      <point x="279" y="0" type="line"/>
      <point x="129" y="600" type="line"/>
      <point x="21" y="600" type="line"/>
    </contour>
  </outline>
</glyph>
<glyph name="kgreenlandic" format="2">
  <advance width="630"/>
  <unicode hex="0138"/>
  <anchor x="405" y="0" name="bottom"/>
  <anchor x="261" y="600" name="top"/>
  <outline>
    <contour>
      <point x="517" y="0" type="line"/>
      <point x="660" y="0" type="line"/>
      <point x="335" y="330" type="line"/>
      <point x="505" y="600" type="line"/>
      <point x="392" y="600" type="line"/>
      <point x="213" y="312" type="line"/>
    </contour>
    <contour>
      <point x="171" y="0" type="line"/>
      <point x="279" y="0" type="line"/>
      <point x="129" y="600" type="line"/>
      <point x="21" y="600" type="line"/>
    </contour>
  </outline>
</glyph>
<glyph name="Lslash" format="2">
  <advance width="630"/>
  <unicode hex="0141"/>
  <outline>
    <contour>
      <point x="231" y="0" type="line"/>
      <point x="657" y="0" type="line"/>
      <point x="632" y="102" type="line"/>
      <point x="320" y="102" type="line"/>
      <point x="234" y="448" type="line"/>
      <point x="440" y="610" type="line"/>
      <point x="394" y="672" type="line"/>
      <point x="213" y="530" type="line"/>
      <point x="121" y="900" type="line"/>
      <point x="7" y="900" type="line"/>
      <point x="118" y="455" type="line"/>
      <point x="6" y="368" type="line"/>
      <point x="52" y="306" type="line"/>
      <point x="138" y="373" type="line"/>
    </contour>
  </outline>
</glyph>
<glyph name="lslash" format="2">
  <advance width="360"/>
  <unicode hex="0142"/>
  <outline>
    <contour>
      <point x="201" y="0" type="line"/>
      <point x="309" y="0" type="line"/>
      <point x="190" y="476" type="line"/>
      <point x="302" y="565" type="line"/>
      <point x="258" y="621" type="line"/>
      <point x="171" y="552" type="line"/>
      <point x="69" y="960" type="line"/>
      <point x="-39" y="960" type="line"/>
      <point x="81" y="481" type="line"/>
      <point x="-28" y="395" type="line"/>
      <point x="16" y="339" type="line"/>
      <point x="100" y="405" type="line"/>
    </contour>
  </outline>
</glyph>
<glyph name="Eng" format="2">
  <advance width="990"/>
  <unicode hex="014A"/>
  <anchor x="555" y="60" name="bottom"/>
  <anchor x="360" y="840" name="top"/>
  <outline>
    <contour>
      <point x="703" y="-192" type="curve" smooth="yes"/>
      <point x="871" y="-192"/>
      <point x="957" y="-72"/>
      <point x="913" y="105" type="curve" smooth="yes"/>
      <point x="714" y="900" type="line"/>
      <point x="606" y="900" type="line"/>
      <point x="765" y="267" type="line"/>
      <point x="-29" y="930" type="line"/>
      <point x="-31" y="930" type="line"/>
      <point x="201" y="0" type="line"/>
      <point x="309" y="0" type="line"/>
      <point x="151" y="633" type="line"/>
      <point x="811" y="85" type="line"/>
      <point x="813" y="75" type="line" smooth="yes"/>
      <point x="833" y="-25"/>
      <point x="786" y="-90"/>
      <point x="694" y="-90" type="curve" smooth="yes"/>
      <point x="638" y="-90"/>
      <point x="587" y="-66"/>
      <point x="550" y="-23" type="curve"/>
      <point x="550" y="-145" type="line"/>
      <point x="592" y="-176"/>
      <point x="642" y="-192"/>
    </contour>
  </outline>
</glyph>
<glyph name="OE" format="2">
  <advance width="1380"/>
  <unicode hex="0152"/>
  <anchor x="752" y="0" name="bottom"/>
  <anchor x="577" y="900" name="top"/>
  <outline>
    <contour>
      <point x="547" y="-18" type="curve" smooth="yes"/>
      <point x="709" y="-18"/>
      <point x="841" y="68"/>
      <point x="908" y="199" type="curve"/>
      <point x="957" y="0" type="line"/>
      <point x="1395" y="0" type="line"/>
      <point x="1370" y="102" type="line"/>
      <point x="1040" y="102" type="line"/>
      <point x="939" y="504" type="line"/>
      <point x="1199" y="504" type="line"/>
      <point x="1174" y="606" type="line"/>
      <point x="914" y="606" type="line"/>
      <point x="865" y="798" type="line"/>
      <point x="1195" y="798" type="line"/>
      <point x="1170" y="900" type="line"/>
      <point x="732" y="900" type="line"/>
      <point x="763" y="774" type="line"/>
      <point x="674" y="862"/>
      <point x="548" y="918"/>
      <point x="422" y="918" type="curve" smooth="yes"/>
      <point x="196" y="918"/>
      <point x="23" y="738"/>
      <point x="23" y="505" type="curve" smooth="yes"/>
      <point x="23" y="231"/>
      <point x="272" y="-18"/>
    </contour>
    <contour>
      <point x="536" y="90" type="curve" smooth="yes"/>
      <point x="329" y="90"/>
      <point x="141" y="284"/>
      <point x="141" y="497" type="curve" smooth="yes"/>
      <point x="141" y="675"/>
      <point x="274" y="810"/>
      <point x="448" y="810" type="curve" smooth="yes"/>
      <point x="655" y="810"/>
      <point x="843" y="616"/>
      <point x="843" y="403" type="curve" smooth="yes"/>
      <point x="843" y="225"/>
      <point x="710" y="90"/>
    </contour>
  </outline>
</glyph>
<glyph name="oe" format="2">
  <advance width="1210"/>
  <unicode hex="0153"/>
  <anchor x="661" y="0" name="bottom"/>
  <anchor x="579" y="600" name="top"/>
  <outline>
    <contour>
      <point x="407" y="-12" type="curve" smooth="yes"/>
      <point x="507" y="-12"/>
      <point x="594" y="37"/>
      <point x="644" y="114" type="curve"/>
      <point x="710" y="39"/>
      <point x="806" y="-12"/>
      <point x="915" y="-12" type="curve" smooth="yes"/>
      <point x="988" y="-12"/>
      <point x="1087" y="10"/>
      <point x="1155" y="90" type="curve"/>
      <point x="1096" y="207" type="line"/>
      <point x="1067" y="139"/>
      <point x="997" y="89"/>
      <point x="909" y="89" type="curve" smooth="yes"/>
      <point x="811" y="89"/>
      <point x="700" y="160"/>
      <point x="670" y="278" type="curve"/>
      <point x="707" y="273"/>
      <point x="743" y="270"/>
      <point x="778" y="270" type="curve" smooth="yes"/>
      <point x="1161" y="270" type="line"/>
      <point x="1156" y="314" type="line" smooth="yes"/>
      <point x="1136" y="488"/>
      <point x="984" y="612"/>
      <point x="824" y="612" type="curve" smooth="yes"/>
      <point x="728" y="612"/>
      <point x="643" y="565"/>
      <point x="594" y="491" type="curve"/>
      <point x="528" y="564"/>
      <point x="434" y="612"/>
      <point x="333" y="612" type="curve" smooth="yes"/>
      <point x="178" y="612"/>
      <point x="54" y="494"/>
      <point x="54" y="337" type="curve" smooth="yes"/>
      <point x="54" y="153"/>
      <point x="221" y="-12"/>
    </contour>
    <contour>
      <point x="396" y="90" type="curve" smooth="yes"/>
      <point x="275" y="90"/>
      <point x="164" y="202"/>
      <point x="164" y="326" type="curve" smooth="yes"/>
      <point x="164" y="427"/>
      <point x="238" y="510"/>
      <point x="344" y="510" type="curve" smooth="yes"/>
      <point x="465" y="510"/>
      <point x="576" y="398"/>
      <point x="576" y="274" type="curve" smooth="yes"/>
      <point x="576" y="173"/>
      <point x="502" y="90"/>
    </contour>
    <contour>
      <point x="657" y="351" type="curve"/>
      <point x="665" y="441"/>
      <point x="734" y="516"/>
      <point x="831" y="516" type="curve" smooth="yes"/>
      <point x="926" y="516"/>
      <point x="1011" y="447"/>
      <point x="1042" y="355" type="curve"/>
      <point x="1013" y="358"/>
      <point x="983" y="360"/>
      <point x="954" y="360" type="curve" smooth="yes"/>
      <point x="763" y="360" type="line" smooth="yes"/>
      <point x="727" y="360"/>
      <point x="692" y="357"/>
    </contour>
  </outline>
</glyph>
<glyph name="Scedilla" format="2">
  <advance width="660"/>
  <unicode hex="015E"/>
  <outline>
    <contour>
      <point x="205" y="-180" type="line"/>
      <point x="332" y="-180" type="line"/>
      <point x="431" y="-3" type="line"/>
      <point x="540" y="23"/>
      <point x="612" y="110"/>
      <point x="612" y="226" type="curve" smooth="yes"/>
      <point x="612" y="355"/>
      <point x="523" y="460"/>
      <point x="369" y="512" type="curve" smooth="yes"/>
      <point x="244" y="554" type="line" smooth="yes"/>
      <point x="160" y="582"/>
      <point x="114" y="634"/>
      <point x="114" y="699" type="curve" smooth="yes"/>
      <point x="114" y="767"/>
      <point x="163" y="812"/>
      <point x="234" y="812" type="curve" smooth="yes"/>
      <point x="299" y="812"/>
      <point x="371" y="776"/>
      <point x="424" y="718" type="curve"/>
      <point x="424" y="858" type="line"/>
      <point x="367" y="893"/>
      <point x="299" y="912"/>
      <point x="233" y="912" type="curve" smooth="yes"/>
      <point x="96" y="912"/>
      <point x="2" y="829"/>
      <point x="2" y="701" type="curve" smooth="yes"/>
      <point x="2" y="586"/>
      <point x="78" y="497"/>
      <point x="221" y="447" type="curve" smooth="yes"/>
      <point x="342" y="405" type="line" smooth="yes"/>
      <point x="446" y="369"/>
      <point x="500" y="310"/>
      <point x="500" y="232" type="curve" smooth="yes"/>
      <point x="500" y="147"/>
      <point x="437" y="90"/>
      <point x="349" y="90" type="curve" smooth="yes"/>
      <point x="272" y="90"/>
      <point x="189" y="135"/>
      <point x="130" y="209" type="curve"/>
      <point x="130" y="70" type="line"/>
      <point x="186" y="24"/>
      <point x="257" y="-5"/>
      <point x="329" y="-11" type="curve"/>
    </contour>
  </outline>
</glyph>
<glyph name="scedilla" format="2">
  <advance width="510"/>
  <unicode hex="015F"/>
  <outline>
    <contour>
      <point x="132" y="-180" type="line"/>
      <point x="259" y="-180" type="line"/>
      <point x="358" y="-3" type="line"/>
      <point x="433" y="18"/>
      <point x="481" y="76"/>
      <point x="481" y="155" type="curve" smooth="yes"/>
      <point x="481" y="248"/>
      <point x="414" y="318"/>
      <point x="298" y="346" type="curve" smooth="yes"/>
      <point x="216" y="366" type="line" smooth="yes"/>
      <point x="163" y="379"/>
      <point x="132" y="408"/>
      <point x="132" y="447" type="curve" smooth="yes"/>
      <point x="132" y="490"/>
      <point x="167" y="520"/>
      <point x="217" y="520" type="curve" smooth="yes"/>
      <point x="269" y="520"/>
      <point x="329" y="488"/>
      <point x="369" y="441" type="curve"/>
      <point x="369" y="560" type="line"/>
      <point x="328" y="592"/>
      <point x="270" y="612"/>
      <point x="213" y="612" type="curve" smooth="yes"/>
      <point x="107" y="612"/>
      <point x="36" y="548"/>
      <point x="36" y="451" type="curve" smooth="yes"/>
      <point x="36" y="361"/>
      <point x="98" y="296"/>
      <point x="209" y="268" type="curve" smooth="yes"/>
      <point x="292" y="247" type="line" smooth="yes"/>
      <point x="351" y="232"/>
      <point x="385" y="201"/>
      <point x="385" y="157" type="curve" smooth="yes"/>
      <point x="385" y="112"/>
      <point x="349" y="81"/>
      <point x="291" y="81" type="curve" smooth="yes"/>
      <point x="235" y="81"/>
      <point x="175" y="111"/>
      <point x="126" y="164" type="curve"/>
      <point x="126" y="44" type="line"/>
      <point x="164" y="16"/>
      <point x="209" y="-3"/>
      <point x="257" y="-10" type="curve"/>
    </contour>
  </outline>
</glyph>
<glyph name="Tcedilla" format="2">
  <advance width="690"/>
  <unicode hex="0162"/>
  <outline>
    <contour>
      <point x="243" y="-180" type="line"/>
      <point x="376" y="-180" type="line"/>
      <point x="477" y="0" type="line"/>
      <point x="277" y="798" type="line"/>
      <point x="517" y="798" type="line"/>
      <point x="492" y="900" type="line"/>
      <point x="-102" y="900" type="line"/>
      <point x="-77" y="798" type="line"/>
      <point x="163" y="798" type="line"/>
      <point x="366" y="-13" type="line"/>
    </contour>
  </outline>
</glyph>
<glyph name="tcedilla" format="2">
  <advance width="450"/>
  <unicode hex="0163"/>
  <outline>
    <contour>
      <point x="115" y="-180" type="line"/>
      <point x="242" y="-180" type="line"/>
      <point x="349" y="0" type="line"/>
      <point x="222" y="510" type="line"/>
      <point x="368" y="510" type="line"/>
      <point x="345" y="600" type="line"/>
      <point x="197" y="600" type="line"/>
      <point x="148" y="800" type="line"/>
      <point x="46" y="800" type="line"/>
      <point x="95" y="600" type="line"/>
      <point x="-45" y="600" type="line"/>
      <point x="-22" y="510" type="line"/>
      <point x="114" y="510" type="line"/>
      <point x="241" y="0" type="line"/>
    </contour>
  </outline>
</glyph>
<glyph name="Tbar" format="2">
  <advance width="690"/>
  <unicode hex="0166"/>
  <outline>
    <contour>
      <point x="364" y="0" type="line"/>
      <point x="478" y="0" type="line"/>
      <point x="376" y="408" type="line"/>
      <point x="560" y="408" type="line"/>
      <point x="540" y="492" type="line"/>
      <point x="355" y="492" type="line"/>
      <point x="278" y="798" type="line"/>
      <point x="518" y="798" type="line"/>
      <point x="493" y="900" type="line"/>
      <point x="-101" y="900" type="line"/>
      <point x="-76" y="798" type="line"/>
      <point x="164" y="798" type="line"/>
      <point x="241" y="492" type="line"/>
      <point x="60" y="492" type="line"/>
      <point x="80" y="408" type="line"/>
      <point x="262" y="408" type="line"/>
    </contour>
  </outline>
</glyph>
<glyph name="tbar" format="2">
  <advance width="450"/>
  <unicode hex="0167"/>
  <outline>
    <contour>
      <point x="241" y="0" type="line"/>
      <point x="349" y="0" type="line"/>
      <point x="283" y="266" type="line"/>
      <point x="420" y="266" type="line"/>
      <point x="404" y="334" type="line"/>
      <point x="266" y="334" type="line"/>
      <point x="222" y="510" type="line"/>
      <point x="368" y="510" type="line"/>
      <point x="345" y="600" type="line"/>
      <point x="197" y="600" type="line"/>
      <point x="148" y="800" type="line"/>
      <point x="46" y="800" type="line"/>
      <point x="95" y="600" type="line"/>
      <point x="-45" y="600" type="line"/>
      <point x="-22" y="510" type="line"/>
      <point x="114" y="510" type="line"/>
      <point x="158" y="334" type="line"/>
      <point x="24" y="334" type="line"/>
      <point x="40" y="266" type="line"/>
      <point x="175" y="266" type="line"/>
    </contour>
  </outline>
</glyph>
<glyph name="Uogonek" format="2">
  <advance width="800"/>
  <unicode hex="0172"/>
  <outline>
    <contour>
      <point x="584" y="-312" type="curve"/>
      <point x="584" y="-219" type="line"/>
      <point x="515" y="-219"/>
      <point x="475" y="-184"/>
      <point x="475" y="-121" type="curve" smooth="yes"/>
      <point x="475" y="-68"/>
      <point x="506" y="-23"/>
      <point x="558" y="13" type="curve"/>
      <point x="670" y="70"/>
      <point x="718" y="191"/>
      <point x="684" y="328" type="curve" smooth="yes"/>
      <point x="542" y="900" type="line"/>
      <point x="432" y="900" type="line"/>
      <point x="578" y="318" type="line" smooth="yes"/>
      <point x="607" y="202"/>
      <point x="557" y="90"/>
      <point x="430" y="90" type="curve" smooth="yes"/>
      <point x="334" y="90"/>
      <point x="258" y="158"/>
      <point x="230" y="271" type="curve" smooth="yes"/>
      <point x="72" y="900" type="line"/>
      <point x="-42" y="900" type="line"/>
      <point x="118" y="261" type="line" smooth="yes"/>
      <point x="160" y="93"/>
      <point x="279" y="-12"/>
      <point x="435" y="-12" type="curve"/>
      <point x="399" y="-49"/>
      <point x="382" y="-93"/>
      <point x="382" y="-138" type="curve" smooth="yes"/>
      <point x="382" y="-238"/>
      <point x="468" y="-312"/>
    </contour>
  </outline>
</glyph>
<glyph name="uogonek" format="2">
  <advance width="720"/>
  <unicode hex="0173"/>
  <outline>
    <contour>
      <point x="735" y="-312" type="curve"/>
      <point x="735" y="-219" type="line"/>
      <point x="666" y="-219"/>
      <point x="626" y="-184"/>
      <point x="626" y="-121" type="curve" smooth="yes"/>
      <point x="626" y="-68"/>
      <point x="657" y="-23"/>
      <point x="699" y="0" type="curve"/>
      <point x="549" y="600" type="line"/>
      <point x="441" y="600" type="line"/>
      <point x="519" y="287" type="line" smooth="yes"/>
      <point x="547" y="176"/>
      <point x="488" y="92"/>
      <point x="384" y="92" type="curve" smooth="yes"/>
      <point x="299" y="92"/>
      <point x="228" y="153"/>
      <point x="202" y="259" type="curve" smooth="yes"/>
      <point x="117" y="600" type="line"/>
      <point x="9" y="600" type="line"/>
      <point x="101" y="232" type="line" smooth="yes"/>
      <point x="139" y="79"/>
      <point x="245" y="-13"/>
      <point x="371" y="-13" type="curve" smooth="yes"/>
      <point x="464" y="-13"/>
      <point x="540" y="34"/>
      <point x="572" y="111" type="curve"/>
      <point x="599" y="0" type="line"/>
      <point x="554" y="-40"/>
      <point x="533" y="-88"/>
      <point x="533" y="-138" type="curve" smooth="yes"/>
      <point x="533" y="-238"/>
      <point x="619" y="-312"/>
    </contour>
  </outline>
</glyph>
<glyph name="Schwa" format="2">
  <advance width="1050"/>
  <unicode hex="018F"/>
  <outline>
    <contour>
      <point x="537" y="-18" type="curve" smooth="yes"/>
      <point x="772" y="-18"/>
      <point x="952" y="162"/>
      <point x="952" y="395" type="curve" smooth="yes"/>
      <point x="952" y="669"/>
      <point x="703" y="918"/>
      <point x="428" y="918" type="curve" smooth="yes"/>
      <point x="297" y="918"/>
      <point x="180" y="862"/>
      <point x="102" y="764" type="curve"/>
      <point x="159" y="645" type="line"/>
      <point x="205" y="745"/>
      <point x="315" y="810"/>
      <point x="437" y="810" type="curve" smooth="yes"/>
      <point x="613" y="810"/>
      <point x="775" y="672"/>
      <point x="821" y="501" type="curve"/>
      <point x="782" y="506"/>
      <point x="744" y="510"/>
      <point x="707" y="510" type="curve" smooth="yes"/>
      <point x="10" y="510" type="line"/>
      <point x="14" y="473"/>
      <point x="20" y="435"/>
      <point x="30" y="398" type="curve" smooth="yes"/>
      <point x="96" y="153"/>
      <point x="308" y="-18"/>
    </contour>
    <contour>
      <point x="527" y="90" type="curve" smooth="yes"/>
      <point x="367" y="90"/>
      <point x="203" y="205"/>
      <point x="146" y="408" type="curve"/>
      <point x="720" y="408" type="line" smooth="yes"/>
      <point x="759" y="408"/>
      <point x="796" y="412"/>
      <point x="834" y="418" type="curve"/>
      <point x="838" y="226"/>
      <point x="702" y="90"/>
    </contour>
  </outline>
</glyph>
<glyph name="florin" format="2">
  <advance width="750"/>
  <unicode hex="0192"/>
  <outline>
    <contour>
      <point x="309" y="-192" type="curve" smooth="yes"/>
      <point x="441" y="-192"/>
      <point x="523" y="-103"/>
      <point x="488" y="36" type="curve" smooth="yes"/>
      <point x="396" y="405" type="line"/>
      <point x="599" y="405" type="line"/>
      <point x="576" y="495" type="line"/>
      <point x="373" y="495" type="line"/>
      <point x="322" y="700" type="line" smooth="yes"/>
      <point x="299" y="791"/>
      <point x="352" y="822"/>
      <point x="400" y="822" type="curve" smooth="yes"/>
      <point x="431" y="822"/>
      <point x="463" y="811"/>
      <point x="493" y="788" type="curve"/>
      <point x="493" y="894" type="line"/>
      <point x="463" y="907"/>
      <point x="431" y="912"/>
      <point x="401" y="912" type="curve" smooth="yes"/>
      <point x="269" y="912"/>
      <point x="187" y="824"/>
      <point x="222" y="685" type="curve" smooth="yes"/>
      <point x="270" y="495" type="line"/>
      <point x="66" y="495" type="line"/>
      <point x="89" y="405" type="line"/>
      <point x="292" y="405" type="line"/>
      <point x="388" y="21" type="line" smooth="yes"/>
      <point x="411" y="-70"/>
      <point x="358" y="-102"/>
      <point x="309" y="-102" type="curve" smooth="yes"/>
      <point x="279" y="-102"/>
      <point x="247" y="-91"/>
      <point x="217" y="-68" type="curve"/>
      <point x="217" y="-174" type="line"/>
      <point x="247" y="-187"/>
      <point x="279" y="-192"/>
    </contour>
  </outline>
</glyph>
<glyph name="Ohorn" format="2">
  <advance width="1060"/>
  <unicode hex="01A0"/>
  <anchor x="605" y="0" name="bottom"/>
  <anchor x="380" y="900" name="top"/>
  <outline>
    <contour>
      <point x="548" y="-18" type="curve" smooth="yes"/>
      <point x="782" y="-18"/>
      <point x="962" y="162"/>
      <point x="962" y="395" type="curve" smooth="yes"/>
      <point x="962" y="521"/>
      <point x="910" y="641"/>
      <point x="826" y="735" type="curve"/>
      <point x="850" y="759"/>
      <point x="865" y="793"/>
      <point x="865" y="836" type="curve" smooth="yes"/>
      <point x="865" y="871"/>
      <point x="857" y="917"/>
      <point x="825" y="960" type="curve"/>
      <point x="728" y="960" type="line"/>
      <point x="752" y="929"/>
      <point x="773" y="884"/>
      <point x="773" y="847" type="curve" smooth="yes"/>
      <point x="773" y="827"/>
      <point x="767" y="811"/>
      <point x="758" y="800" type="curve"/>
      <point x="668" y="873"/>
      <point x="555" y="918"/>
      <point x="438" y="918" type="curve" smooth="yes"/>
      <point x="204" y="918"/>
      <point x="24" y="738"/>
      <point x="24" y="505" type="curve" smooth="yes"/>
      <point x="24" y="231"/>
      <point x="273" y="-18"/>
    </contour>
    <contour>
      <point x="537" y="90" type="curve" smooth="yes"/>
      <point x="330" y="90"/>
      <point x="142" y="284"/>
      <point x="142" y="497" type="curve" smooth="yes"/>
      <point x="142" y="675"/>
      <point x="275" y="810"/>
      <point x="449" y="810" type="curve" smooth="yes"/>
      <point x="656" y="810"/>
      <point x="844" y="616"/>
      <point x="844" y="403" type="curve" smooth="yes"/>
      <point x="844" y="225"/>
      <point x="711" y="90"/>
    </contour>
  </outline>
</glyph>
<glyph name="ohorn" format="2">
  <advance width="770"/>
  <unicode hex="01A1"/>
  <anchor x="445" y="0" name="bottom"/>
  <anchor x="295" y="600" name="top"/>
  <outline>
    <contour>
      <point x="407" y="-12" type="curve" smooth="yes"/>
      <point x="562" y="-12"/>
      <point x="686" y="106"/>
      <point x="686" y="263" type="curve" smooth="yes"/>
      <point x="686" y="323"/>
      <point x="668" y="381"/>
      <point x="638" y="432" type="curve"/>
      <point x="663" y="455"/>
      <point x="680" y="491"/>
      <point x="680" y="536" type="curve" smooth="yes"/>
      <point x="680" y="571"/>
      <point x="672" y="617"/>
      <point x="640" y="660" type="curve"/>
      <point x="543" y="660" type="line"/>
      <point x="567" y="629"/>
      <point x="588" y="584"/>
      <point x="588" y="547" type="curve" smooth="yes"/>
      <point x="588" y="531"/>
      <point x="584" y="518"/>
      <point x="578" y="507" type="curve"/>
      <point x="513" y="571"/>
      <point x="426" y="612"/>
      <point x="333" y="612" type="curve" smooth="yes"/>
      <point x="178" y="612"/>
      <point x="54" y="494"/>
      <point x="54" y="337" type="curve" smooth="yes"/>
      <point x="54" y="153"/>
      <point x="221" y="-12"/>
    </contour>
    <contour>
      <point x="396" y="90" type="curve" smooth="yes"/>
      <point x="275" y="90"/>
      <point x="164" y="202"/>
      <point x="164" y="326" type="curve" smooth="yes"/>
      <point x="164" y="427"/>
      <point x="238" y="510"/>
      <point x="344" y="510" type="curve" smooth="yes"/>
      <point x="465" y="510"/>
      <point x="576" y="398"/>
      <point x="576" y="274" type="curve" smooth="yes"/>
      <point x="576" y="173"/>
      <point x="502" y="90"/>
    </contour>
  </outline>
</glyph>
<glyph name="Uhorn" format="2">
  <advance width="920"/>
  <unicode hex="01AF"/>
  <anchor x="473" y="0" name="bottom"/>
  <anchor x="250" y="900" name="top"/>
  <outline>
    <contour>
      <point x="436" y="-12" type="curve" smooth="yes"/>
      <point x="633" y="-12"/>
      <point x="729" y="149"/>
      <point x="684" y="328" type="curve" smooth="yes"/>
      <point x="591" y="700" type="line"/>
      <point x="599" y="698"/>
      <point x="607" y="698"/>
      <point x="615" y="698" type="curve" smooth="yes"/>
      <point x="681" y="698"/>
      <point x="742" y="750"/>
      <point x="742" y="836" type="curve" smooth="yes"/>
      <point x="742" y="871"/>
      <point x="734" y="917"/>
      <point x="702" y="960" type="curve"/>
      <point x="605" y="960" type="line"/>
      <point x="629" y="929"/>
      <point x="650" y="884"/>
      <point x="650" y="847" type="curve" smooth="yes"/>
      <point x="650" y="801"/>
      <point x="620" y="778"/>
      <point x="588" y="778" type="curve" smooth="yes"/>
      <point x="581" y="778"/>
      <point x="573" y="779"/>
      <point x="565" y="781" type="curve"/>
      <point x="535" y="900" type="line"/>
      <point x="432" y="900" type="line"/>
      <point x="578" y="318" type="line" smooth="yes"/>
      <point x="607" y="202"/>
      <point x="557" y="90"/>
      <point x="430" y="90" type="curve" smooth="yes"/>
      <point x="334" y="90"/>
      <point x="258" y="158"/>
      <point x="230" y="271" type="curve" smooth="yes"/>
      <point x="72" y="900" type="line"/>
      <point x="-42" y="900" type="line"/>
      <point x="118" y="261" type="line" smooth="yes"/>
      <point x="160" y="93"/>
      <point x="279" y="-12"/>
    </contour>
  </outline>
</glyph>
<glyph name="uhorn" format="2">
  <advance width="840"/>
  <unicode hex="01B0"/>
  <anchor x="435" y="0" name="bottom"/>
  <anchor x="285" y="600" name="top"/>
  <outline>
    <contour>
      <point x="371" y="-13" type="curve" smooth="yes"/>
      <point x="464" y="-13"/>
      <point x="540" y="34"/>
      <point x="572" y="111" type="curve"/>
      <point x="599" y="0" type="line"/>
      <point x="699" y="0" type="line"/>
      <point x="599" y="400" type="line"/>
      <point x="607" y="398"/>
      <point x="615" y="398"/>
      <point x="623" y="398" type="curve" smooth="yes"/>
      <point x="689" y="398"/>
      <point x="750" y="450"/>
      <point x="750" y="536" type="curve" smooth="yes"/>
      <point x="750" y="571"/>
      <point x="742" y="617"/>
      <point x="710" y="660" type="curve"/>
      <point x="613" y="660" type="line"/>
      <point x="637" y="629"/>
      <point x="658" y="584"/>
      <point x="658" y="547" type="curve" smooth="yes"/>
      <point x="658" y="501"/>
      <point x="628" y="478"/>
      <point x="596" y="478" type="curve" smooth="yes"/>
      <point x="589" y="478"/>
      <point x="581" y="479"/>
      <point x="573" y="481" type="curve"/>
      <point x="543" y="600" type="line"/>
      <point x="441" y="600" type="line"/>
      <point x="519" y="287" type="line" smooth="yes"/>
      <point x="547" y="176"/>
      <point x="488" y="92"/>
      <point x="384" y="92" type="curve" smooth="yes"/>
      <point x="299" y="92"/>
      <point x="228" y="153"/>
      <point x="202" y="259" type="curve" smooth="yes"/>
      <point x="117" y="600" type="line"/>
      <point x="9" y="600" type="line"/>
      <point x="101" y="232" type="line" smooth="yes"/>
      <point x="139" y="79"/>
      <point x="245" y="-13"/>
    </contour>
  </outline>
</glyph>
<glyph name="Ezh" format="2">
  <advance width="660"/>
  <unicode hex="01B7"/>
  <anchor x="405" y="0" name="bottom"/>
  <anchor x="170" y="900" name="top"/>
  <outline>
    <contour>
      <point x="337" y="-12" type="curve" smooth="yes"/>
      <point x="500" y="-12"/>
      <point x="620" y="105"/>
      <point x="620" y="262" type="curve" smooth="yes"/>
      <point x="620" y="433"/>
      <point x="476" y="585"/>
      <point x="311" y="596" type="curve"/>
      <point x="399" y="898" type="line"/>
      <point x="399" y="900" type="line"/>
      <point x="-52" y="900" type="line"/>
      <point x="-27" y="798" type="line"/>
      <point x="262" y="798" type="line"/>
      <point x="170" y="460" type="line"/>
      <point x="172" y="458" type="line"/>
      <point x="202" y="485"/>
      <point x="241" y="498"/>
      <point x="284" y="498" type="curve" smooth="yes"/>
      <point x="397" y="498"/>
      <point x="506" y="393"/>
      <point x="506" y="271" type="curve" smooth="yes"/>
      <point x="506" y="171"/>
      <point x="431" y="96"/>
      <point x="331" y="96" type="curve" smooth="yes"/>
      <point x="239" y="96"/>
      <point x="149" y="156"/>
      <point x="111" y="242" type="curve"/>
      <point x="76" y="108" type="line"/>
      <point x="141" y="33"/>
      <point x="236" y="-12"/>
    </contour>
  </outline>
</glyph>
<glyph name="Oogonek" format="2">
  <advance width="1060"/>
  <unicode hex="01EA"/>
  <anchor x="380" y="900" name="top"/>
  <outline>
    <contour>
      <point x="715" y="-312" type="curve"/>
      <point x="715" y="-219" type="line"/>
      <point x="646" y="-219"/>
      <point x="606" y="-184"/>
      <point x="606" y="-121" type="curve" smooth="yes"/>
      <point x="606" y="-67"/>
      <point x="636" y="-27"/>
      <point x="684" y="4" type="curve"/>
      <point x="848" y="58"/>
      <point x="962" y="210"/>
      <point x="962" y="395" type="curve" smooth="yes"/>
      <point x="962" y="669"/>
      <point x="713" y="918"/>
      <point x="438" y="918" type="curve" smooth="yes"/>
      <point x="204" y="918"/>
      <point x="24" y="738"/>
      <point x="24" y="505" type="curve" smooth="yes"/>
      <point x="24" y="231"/>
      <point x="273" y="-18"/>
      <point x="552" y="-18" type="curve"/>
      <point x="528" y="-54"/>
      <point x="513" y="-95"/>
      <point x="513" y="-138" type="curve" smooth="yes"/>
      <point x="513" y="-238"/>
      <point x="599" y="-312"/>
    </contour>
    <contour>
      <point x="537" y="90" type="curve" smooth="yes"/>
      <point x="330" y="90"/>
      <point x="142" y="284"/>
      <point x="142" y="497" type="curve" smooth="yes"/>
      <point x="142" y="675"/>
      <point x="275" y="810"/>
      <point x="449" y="810" type="curve" smooth="yes"/>
      <point x="656" y="810"/>
      <point x="844" y="616"/>
      <point x="844" y="403" type="curve" smooth="yes"/>
      <point x="844" y="225"/>
      <point x="711" y="90"/>
    </contour>
  </outline>
</glyph>
<glyph name="oogonek" format="2">
  <advance width="740"/>
  <unicode hex="01EB"/>
  <anchor x="295" y="600" name="top"/>
  <outline>
    <contour>
      <point x="556" y="-312" type="curve"/>
      <point x="556" y="-219" type="line"/>
      <point x="487" y="-219"/>
      <point x="447" y="-184"/>
      <point x="447" y="-121" type="curve" smooth="yes"/>
      <point x="447" y="-70"/>
      <point x="476" y="-27"/>
      <point x="524" y="12" type="curve"/>
      <point x="620" y="55"/>
      <point x="686" y="148"/>
      <point x="686" y="263" type="curve" smooth="yes"/>
      <point x="686" y="447"/>
      <point x="519" y="612"/>
      <point x="333" y="612" type="curve" smooth="yes"/>
      <point x="178" y="612"/>
      <point x="54" y="494"/>
      <point x="54" y="337" type="curve" smooth="yes"/>
      <point x="54" y="153"/>
      <point x="221" y="-12"/>
      <point x="407" y="-12" type="curve"/>
      <point x="371" y="-49"/>
      <point x="354" y="-93"/>
      <point x="354" y="-138" type="curve" smooth="yes"/>
      <point x="354" y="-238"/>
      <point x="440" y="-312"/>
    </contour>
    <contour>
      <point x="396" y="90" type="curve" smooth="yes"/>
      <point x="275" y="90"/>
      <point x="164" y="202"/>
      <point x="164" y="326" type="curve" smooth="yes"/>
      <point x="164" y="427"/>
      <point x="238" y="510"/>
      <point x="344" y="510" type="curve" smooth="yes"/>
      <point x="465" y="510"/>
      <point x="576" y="398"/>
      <point x="576" y="274" type="curve" smooth="yes"/>
      <point x="576" y="173"/>
      <point x="502" y="90"/>
    </contour>
  </outline>
</glyph>
<glyph name="Aringacute" format="2">
  <advance width="800"/>
  <unicode hex="01FA"/>
  <outline>
    <contour>
      <point x="75" y="0" type="line"/>
      <point x="186" y="0" type="line"/>
      <point x="227" y="267" type="line"/>
      <point x="542" y="267" type="line"/>
      <point x="714" y="0" type="line"/>
      <point x="839" y="0" type="line"/>
      <point x="286" y="844" type="line"/>
      <point x="337" y="864"/>
      <point x="373" y="913"/>
      <point x="373" y="972" type="curve" smooth="yes"/>
      <point x="373" y="1064"/>
      <point x="289" y="1146"/>
      <point x="196" y="1146" type="curve" smooth="yes"/>
      <point x="118" y="1146"/>
      <point x="55" y="1087"/>
      <point x="55" y="1008" type="curve" smooth="yes"/>
      <point x="55" y="923"/>
      <point x="127" y="846"/>
      <point x="211" y="835" type="curve"/>
    </contour>
    <contour>
      <point x="242" y="362" type="line"/>
      <point x="269" y="540" type="line" smooth="yes"/>
      <point x="276" y="585"/>
      <point x="281" y="624"/>
      <point x="282" y="686" type="curve"/>
      <point x="313" y="624"/>
      <point x="336" y="586"/>
      <point x="366" y="540" type="curve" smooth="yes"/>
      <point x="481" y="362" type="line"/>
    </contour>
    <contour>
      <point x="225" y="906" type="curve" smooth="yes"/>
      <point x="176" y="906"/>
      <point x="130" y="950"/>
      <point x="130" y="1001" type="curve" smooth="yes"/>
      <point x="130" y="1041"/>
      <point x="161" y="1074"/>
      <point x="203" y="1074" type="curve" smooth="yes"/>
      <point x="252" y="1074"/>
      <point x="298" y="1030"/>
      <point x="298" y="979" type="curve" smooth="yes"/>
      <point x="298" y="939"/>
      <point x="267" y="906"/>
    </contour>
    <contour>
      <point x="123" y="1194" type="line"/>
      <point x="197" y="1194" type="line"/>
      <point x="260" y="1335" type="line"/>
      <point x="165" y="1335" type="line"/>
    </contour>
  </outline>
</glyph>
<glyph name="jdotless" format="2">
  <advance width="300"/>
  <unicode hex="0237"/>
  <anchor x="303" y="-300" name="bottom"/>
  <anchor x="77" y="600" name="top"/>
  <outline>
    <contour>
      <point x="186" y="-314" type="line"/>
      <point x="283" y="-302"/>
      <point x="339" y="-226"/>
      <point x="309" y="-108" type="curve" smooth="yes"/>
      <point x="131" y="600" type="line"/>
      <point x="23" y="600" type="line"/>
      <point x="203" y="-119" type="line" smooth="yes"/>
      <point x="221" y="-191"/>
      <point x="189" y="-219"/>
      <point x="141" y="-225" type="curve"/>
    </contour>
  </outline>
</glyph>
<glyph name="schwa" format="2">
  <advance width="710"/>
  <unicode hex="0259"/>
  <outline>
    <contour>
      <point x="386" y="-12" type="curve" smooth="yes"/>
      <point x="535" y="-12"/>
      <point x="658" y="101"/>
      <point x="658" y="254" type="curve" smooth="yes"/>
      <point x="658" y="434"/>
      <point x="499" y="612"/>
      <point x="295" y="612" type="curve" smooth="yes"/>
      <point x="222" y="612"/>
      <point x="123" y="590"/>
      <point x="55" y="510" type="curve"/>
      <point x="114" y="393" type="line"/>
      <point x="143" y="461"/>
      <point x="213" y="511"/>
      <point x="301" y="511" type="curve" smooth="yes"/>
      <point x="399" y="511"/>
      <point x="510" y="440"/>
      <point x="540" y="322" type="curve"/>
      <point x="503" y="327"/>
      <point x="467" y="330"/>
      <point x="432" y="330" type="curve" smooth="yes"/>
      <point x="41" y="330" type="line"/>
      <point x="50" y="286" type="line" smooth="yes"/>
      <point x="85" y="116"/>
      <point x="226" y="-12"/>
    </contour>
    <contour>
      <point x="379" y="84" type="curve" smooth="yes"/>
      <point x="284" y="84"/>
      <point x="199" y="153"/>
      <point x="168" y="245" type="curve"/>
      <point x="197" y="242"/>
      <point x="227" y="240"/>
      <point x="256" y="240" type="curve" smooth="yes"/>
      <point x="447" y="240" type="line" smooth="yes"/>
      <point x="483" y="240"/>
      <point x="518" y="243"/>
      <point x="553" y="249" type="curve"/>
      <point x="545" y="159"/>
      <point x="476" y="84"/>
    </contour>
  </outline>
</glyph>
<glyph name="ezh" format="2">
  <advance width="660"/>
  <unicode hex="0292"/>
  <anchor x="480" y="-300" name="bottom"/>
  <anchor x="240" y="600" name="top"/>
  <outline>
    <contour>
      <point x="407" y="-312" type="curve" smooth="yes"/>
      <point x="570" y="-312"/>
      <point x="690" y="-196"/>
      <point x="690" y="-41" type="curve" smooth="yes"/>
      <point x="690" y="129"/>
      <point x="545" y="280"/>
      <point x="373" y="290" type="curve"/>
      <point x="462" y="598" type="line"/>
      <point x="462" y="600" type="line"/>
      <point x="18" y="600" type="line"/>
      <point x="42" y="504" type="line"/>
      <point x="327" y="504" type="line"/>
      <point x="235" y="162" type="line"/>
      <point x="237" y="160" type="line"/>
      <point x="266" y="185"/>
      <point x="305" y="198"/>
      <point x="348" y="198" type="curve" smooth="yes"/>
      <point x="471" y="198"/>
      <point x="580" y="91"/>
      <point x="580" y="-32" type="curve" smooth="yes"/>
      <point x="580" y="-134"/>
      <point x="505" y="-210"/>
      <point x="401" y="-210" type="curve" smooth="yes"/>
      <point x="305" y="-210"/>
      <point x="213" y="-145"/>
      <point x="177" y="-52" type="curve"/>
      <point x="141" y="-187" type="line"/>
      <point x="207" y="-265"/>
      <point x="304" y="-312"/>
    </contour>
  </outline>
</glyph>
<glyph name="gravecomb" format="2">
  <unicode hex="0300"/>
  <anchor x="346" y="600" name="_top"/>
  <anchor x="173" y="870" name="top"/>
  <outline>
    <contour>
      <point x="279" y="690" type="line"/>
      <point x="370" y="690" type="line"/>
      <point x="244" y="870" type="line"/>
      <point x="108" y="870" type="line"/>
    </contour>
  </outline>
</glyph>
<glyph name="acutecomb" format="2">
  <unicode hex="0301"/>
  <anchor x="218" y="600" name="_top"/>
  <anchor x="264" y="888" name="top"/>
  <outline>
    <contour>
      <point x="156" y="690" type="line"/>
      <point x="235" y="690" type="line"/>
      <point x="319" y="888" type="line"/>
      <point x="209" y="888" type="line"/>
    </contour>
  </outline>
</glyph>
<glyph name="circumflexcomb" format="2">
  <unicode hex="0302"/>
  <anchor x="285" y="600" name="_top"/>
  <anchor x="208" y="909" name="top"/>
  <outline>
    <contour>
      <point x="74" y="690" type="line"/>
      <point x="176" y="690" type="line"/>
      <point x="197" y="718"/>
      <point x="210" y="746"/>
      <point x="229" y="787" type="curve"/>
      <point x="268" y="746"/>
      <point x="295" y="718"/>
      <point x="330" y="690" type="curve"/>
      <point x="452" y="690" type="line"/>
      <point x="209" y="909" type="line"/>
      <point x="207" y="909" type="line"/>
    </contour>
  </outline>
</glyph>
<glyph name="tildecomb" format="2">
  <unicode hex="0303"/>
  <anchor x="285" y="600" name="_top"/>
  <anchor x="216" y="877" name="top"/>
  <outline>
    <contour>
      <point x="57" y="683" type="line"/>
      <point x="77" y="731"/>
      <point x="108" y="759"/>
      <point x="153" y="759" type="curve" smooth="yes"/>
      <point x="210" y="759"/>
      <point x="268" y="705"/>
      <point x="335" y="705" type="curve" smooth="yes"/>
      <point x="388" y="705"/>
      <point x="430" y="733"/>
      <point x="457" y="786" type="curve"/>
      <point x="425" y="877" type="line"/>
      <point x="405" y="829"/>
      <point x="374" y="801"/>
      <point x="329" y="801" type="curve" smooth="yes"/>
      <point x="272" y="801"/>
      <point x="214" y="855"/>
      <point x="147" y="855" type="curve" smooth="yes"/>
      <point x="94" y="855"/>
      <point x="52" y="827"/>
      <point x="25" y="774" type="curve"/>
    </contour>
  </outline>
</glyph>
<glyph name="macroncomb" format="2">
  <unicode hex="0304"/>
  <anchor x="285" y="600" name="_top"/>
  <anchor x="230" y="822" name="top"/>
  <outline>
    <contour>
      <point x="74" y="738" type="line"/>
      <point x="428" y="738" type="line"/>
      <point x="408" y="822" type="line"/>
      <point x="54" y="822" type="line"/>
    </contour>
  </outline>
</glyph>
<glyph name="brevecomb" format="2">
  <unicode hex="0306"/>
  <anchor x="285" y="600" name="_top"/>
  <anchor x="224" y="849" name="top"/>
  <outline>
    <contour>
      <point x="240" y="675" type="curve" smooth="yes"/>
      <point x="344" y="675"/>
      <point x="415" y="750"/>
      <point x="405" y="849" type="curve"/>
      <point x="316" y="849" type="line"/>
      <point x="323" y="800"/>
      <point x="286" y="757"/>
      <point x="237" y="757" type="curve" smooth="yes"/>
      <point x="188" y="757"/>
      <point x="134" y="803"/>
      <point x="131" y="849" type="curve"/>
      <point x="42" y="849" type="line"/>
      <point x="57" y="749"/>
      <point x="140" y="675"/>
    </contour>
  </outline>
</glyph>
<glyph name="dotaccentcomb" format="2">
  <unicode hex="0307"/>
  <anchor x="285" y="600" name="_top"/>
  <anchor x="222" y="852" name="top"/>
  <outline>
    <contour>
      <point x="248" y="708" type="curve" smooth="yes"/>
      <point x="284" y="708"/>
      <point x="312" y="735"/>
      <point x="312" y="771" type="curve" smooth="yes"/>
      <point x="312" y="814"/>
      <point x="274" y="852"/>
      <point x="232" y="852" type="curve" smooth="yes"/>
      <point x="196" y="852"/>
      <point x="168" y="825"/>
      <point x="168" y="789" type="curve" smooth="yes"/>
      <point x="168" y="746"/>
      <point x="206" y="708"/>
    </contour>
  </outline>
</glyph>
<glyph name="hookabovecomb" format="2">
  <unicode hex="0309"/>
  <anchor x="285" y="600" name="_top"/>
  <anchor x="198" y="909" name="top"/>
  <outline>
    <contour>
      <point x="221" y="690" type="curve"/>
      <point x="310" y="690" type="line"/>
      <point x="331" y="718"/>
      <point x="347" y="750"/>
      <point x="347" y="784" type="curve" smooth="yes"/>
      <point x="347" y="853"/>
      <point x="282" y="909"/>
      <point x="200" y="909" type="curve" smooth="yes"/>
      <point x="164" y="909"/>
      <point x="124" y="898"/>
      <point x="95" y="876" type="curve"/>
      <point x="134" y="803" type="line"/>
      <point x="148" y="819"/>
      <point x="169" y="831"/>
      <point x="195" y="831" type="curve" smooth="yes"/>
      <point x="233" y="831"/>
      <point x="257" y="806"/>
      <point x="257" y="774" type="curve" smooth="yes"/>
      <point x="257" y="752"/>
      <point x="244" y="724"/>
    </contour>
  </outline>
</glyph>
<glyph name="ringcomb" format="2">
  <unicode hex="030A"/>
  <anchor x="285" y="600" name="_top"/>
  <anchor x="208" y="909" name="top"/>
  <outline>
    <contour>
      <point x="255" y="651" type="curve" smooth="yes"/>
      <point x="320" y="651"/>
      <point x="372" y="700"/>
      <point x="372" y="765" type="curve" smooth="yes"/>
      <point x="372" y="841"/>
      <point x="302" y="909"/>
      <point x="225" y="909" type="curve" smooth="yes"/>
      <point x="160" y="909"/>
      <point x="108" y="860"/>
      <point x="108" y="795" type="curve" smooth="yes"/>
      <point x="108" y="719"/>
      <point x="178" y="651"/>
    </contour>
    <contour>
      <point x="248" y="717" type="curve" smooth="yes"/>
      <point x="211" y="717"/>
      <point x="177" y="750"/>
      <point x="177" y="788" type="curve" smooth="yes"/>
      <point x="177" y="818"/>
      <point x="200" y="843"/>
      <point x="232" y="843" type="curve" smooth="yes"/>
      <point x="269" y="843"/>
      <point x="303" y="810"/>
      <point x="303" y="772" type="curve" smooth="yes"/>
      <point x="303" y="742"/>
      <point x="280" y="717"/>
    </contour>
  </outline>
</glyph>
<glyph name="hungarumlautcomb" format="2">
  <unicode hex="030B"/>
  <anchor x="167" y="600" name="_top"/>
  <anchor x="233" y="888" name="top"/>
  <outline>
    <contour>
      <point x="257" y="690" type="line"/>
      <point x="332" y="690" type="line"/>
      <point x="423" y="888" type="line"/>
      <point x="308" y="888" type="line"/>
    </contour>
    <contour>
      <point x="45" y="690" type="line"/>
      <point x="120" y="690" type="line"/>
      <point x="211" y="888" type="line"/>
      <point x="96" y="888" type="line"/>
    </contour>
  </outline>
</glyph>
<glyph name="caroncomb" format="2">
  <unicode hex="030C"/>
  <anchor x="285" y="600" name="_top"/>
  <anchor x="211" y="900" name="top"/>
  <outline>
    <contour>
      <point x="264" y="681" type="line"/>
      <point x="266" y="681" type="line"/>
      <point x="400" y="900" type="line"/>
      <point x="298" y="900" type="line"/>
      <point x="277" y="872"/>
      <point x="264" y="844"/>
      <point x="245" y="803" type="curve"/>
      <point x="206" y="844"/>
      <point x="179" y="872"/>
      <point x="144" y="900" type="curve"/>
      <point x="22" y="900" type="line"/>
    </contour>
  </outline>
</glyph>
<glyph name="dblgravecomb" format="2">
  <unicode hex="030F"/>
  <anchor x="334" y="600" name="_top"/>
  <anchor x="185" y="870" name="top"/>
  <outline>
    <contour>
      <point x="381" y="690" type="line"/>
      <point x="466" y="690" type="line"/>
      <point x="356" y="870" type="line"/>
      <point x="236" y="870" type="line"/>
    </contour>
    <contour>
      <point x="159" y="690" type="line"/>
      <point x="244" y="690" type="line"/>
      <point x="134" y="870" type="line"/>
      <point x="14" y="870" type="line"/>
    </contour>
  </outline>
</glyph>
<glyph name="breveinvertedcomb" format="2">
  <unicode hex="0311"/>
  <anchor x="285" y="600" name="_top"/>
  <anchor x="223" y="849" name="top"/>
  <outline>
    <contour>
      <point x="85" y="675" type="curve"/>
      <point x="174" y="675" type="line"/>
      <point x="167" y="724"/>
      <point x="204" y="767"/>
      <point x="253" y="767" type="curve" smooth="yes"/>
      <point x="302" y="767"/>
      <point x="356" y="721"/>
      <point x="359" y="675" type="curve"/>
      <point x="448" y="675" type="line"/>
      <point x="433" y="775"/>
      <point x="350" y="849"/>
      <point x="250" y="849" type="curve" smooth="yes"/>
      <point x="146" y="849"/>
      <point x="75" y="774"/>
    </contour>
  </outline>
</glyph>
<glyph name="commaturnedabovecomb" format="2">
  <unicode hex="0312"/>
  <anchor x="285" y="600" name="_top"/>
  <anchor x="235" y="960" name="top"/>
  <outline>
    <contour>
      <point x="206" y="720" type="curve"/>
      <point x="304" y="720" type="line"/>
      <point x="268" y="799"/>
      <point x="261" y="878"/>
      <point x="281" y="960" type="curve"/>
      <point x="188" y="960" type="line"/>
      <point x="169" y="880"/>
      <point x="176" y="798"/>
    </contour>
  </outline>
</glyph>
<glyph name="horncomb" format="2">
  <unicode hex="031B"/>
  <anchor x="193" y="600" name="_topright"/>
  <outline>
    <contour>
      <point x="274" y="398" type="curve" smooth="yes"/>
      <point x="340" y="398"/>
      <point x="401" y="450"/>
      <point x="401" y="536" type="curve" smooth="yes"/>
      <point x="401" y="571"/>
      <point x="393" y="617"/>
      <point x="361" y="660" type="curve"/>
      <point x="264" y="660" type="line"/>
      <point x="288" y="629"/>
      <point x="309" y="584"/>
      <point x="309" y="547" type="curve" smooth="yes"/>
      <point x="309" y="501"/>
      <point x="279" y="478"/>
      <point x="247" y="478" type="curve" smooth="yes"/>
      <point x="217" y="478"/>
      <point x="187" y="495"/>
      <point x="163" y="529" type="curve"/>
      <point x="187" y="433" type="line"/>
      <point x="214" y="410"/>
      <point x="244" y="398"/>
    </contour>
  </outline>
</glyph>
<glyph name="dieresisbelowcomb" format="2">
  <unicode hex="0324"/>
  <anchor x="435" y="0" name="_bottom"/>
  <anchor x="480" y="-249" name="bottom"/>
  <outline>
    <contour>
      <point x="608" y="-249" type="curve" smooth="yes"/>
      <point x="642" y="-249"/>
      <point x="669" y="-223"/>
      <point x="669" y="-189" type="curve" smooth="yes"/>
      <point x="669" y="-147"/>
      <point x="633" y="-111"/>
      <point x="592" y="-111" type="curve" smooth="yes"/>
      <point x="558" y="-111"/>
      <point x="531" y="-137"/>
      <point x="531" y="-171" type="curve" smooth="yes"/>
      <point x="531" y="-213"/>
      <point x="567" y="-249"/>
    </contour>
    <contour>
      <point x="368" y="-249" type="curve" smooth="yes"/>
      <point x="402" y="-249"/>
      <point x="429" y="-223"/>
      <point x="429" y="-189" type="curve" smooth="yes"/>
      <point x="429" y="-147"/>
      <point x="393" y="-111"/>
      <point x="352" y="-111" type="curve" smooth="yes"/>
      <point x="318" y="-111"/>
      <point x="291" y="-137"/>
      <point x="291" y="-171" type="curve" smooth="yes"/>
      <point x="291" y="-213"/>
      <point x="327" y="-249"/>
    </contour>
  </outline>
</glyph>
<glyph name="commaaccentcomb" format="2">
  <unicode hex="0326"/>
  <anchor x="435" y="0" name="_bottom"/>
  <anchor x="486" y="-360" name="bottom"/>
  <outline>
    <contour>
      <point x="439" y="-360" type="curve"/>
      <point x="532" y="-360" type="line"/>
      <point x="551" y="-280"/>
      <point x="544" y="-198"/>
      <point x="514" y="-120" type="curve"/>
      <point x="416" y="-120" type="line"/>
      <point x="452" y="-199"/>
      <point x="459" y="-278"/>
    </contour>
  </outline>
</glyph>
<glyph name="cedillacomb" format="2">
  <unicode hex="0327"/>
  <anchor x="523" y="0" name="_bottom"/>
  <anchor x="407" y="-180" name="bottom"/>
  <outline>
    <contour>
      <point x="343" y="-180" type="line"/>
      <point x="470" y="-180" type="line"/>
      <point x="571" y="0" type="line"/>
      <point x="475" y="0" type="line"/>
    </contour>
  </outline>
</glyph>
<glyph name="ogonekcomb" format="2">
  <unicode hex="0328"/>
  <anchor x="489" y="0" name="_ogonek"/>
  <outline>
    <contour>
      <point x="570" y="-312" type="curve"/>
      <point x="570" y="-219" type="line"/>
      <point x="501" y="-219"/>
      <point x="461" y="-184"/>
      <point x="461" y="-121" type="curve" smooth="yes"/>
      <point x="461" y="-68"/>
      <point x="492" y="-23"/>
      <point x="544" y="0" type="curve"/>
      <point x="434" y="0" type="line"/>
      <point x="389" y="-40"/>
      <point x="368" y="-88"/>
      <point x="368" y="-138" type="curve" smooth="yes"/>
      <point x="368" y="-238"/>
      <point x="454" y="-312"/>
    </contour>
  </outline>
</glyph>
<glyph name="brevebelowcomb" format="2">
  <unicode hex="032E"/>
  <anchor x="435" y="0" name="_bottom"/>
  <anchor x="497" y="-249" name="bottom"/>
  <outline>
    <contour>
      <point x="470" y="-249" type="curve" smooth="yes"/>
      <point x="574" y="-249"/>
      <point x="645" y="-174"/>
      <point x="635" y="-75" type="curve"/>
      <point x="546" y="-75" type="line"/>
      <point x="553" y="-124"/>
      <point x="516" y="-167"/>
      <point x="467" y="-167" type="curve" smooth="yes"/>
      <point x="418" y="-167"/>
      <point x="364" y="-121"/>
      <point x="361" y="-75" type="curve"/>
      <point x="272" y="-75" type="line"/>
      <point x="287" y="-175"/>
      <point x="370" y="-249"/>
    </contour>
  </outline>
</glyph>
<glyph name="macronbelowcomb" format="2">
  <unicode hex="0331"/>
  <anchor x="435" y="0" name="_bottom"/>
  <anchor x="490" y="-222" name="bottom"/>
  <outline>
    <contour>
      <point x="339" y="-222" type="line"/>
      <point x="639" y="-222" type="line"/>
      <point x="619" y="-138" type="line"/>
      <point x="319" y="-138" type="line"/>
    </contour>
  </outline>
</glyph>
<glyph name="strokelongcomb" format="2">
  <unicode hex="0336"/>
  <anchor x="363" y="450" name="_center"/>
  <outline>
    <contour>
      <point x="3" y="408" type="line"/>
      <point x="743" y="408" type="line"/>
      <point x="723" y="492" type="line"/>
      <point x="-17" y="492" type="line"/>
    </contour>
  </outline>
</glyph>
<glyph name="slashshortcomb" format="2">
  <unicode hex="0337"/>
  <anchor x="275" y="300" name="_center"/>
  <outline>
    <contour>
      <point x="154" y="159" type="line"/>
      <point x="440" y="385" type="line"/>
      <point x="396" y="441" type="line"/>
      <point x="110" y="215" type="line"/>
    </contour>
  </outline>
</glyph>
<glyph name="slashlongcomb" format="2">
  <unicode hex="0338"/>
  <anchor x="278" y="301" name="_center"/>
  <outline>
    <contour>
      <point x="88" y="-18" type="line"/>
      <point x="524" y="572" type="line"/>
      <point x="464" y="618" type="line"/>
      <point x="28" y="28" type="line"/>
    </contour>
  </outline>
</glyph>
<glyph name="pi" format="2">
  <advance width="720"/>
  <unicode hex="03C0"/>
  <outline>
    <contour>
      <point x="171" y="0" type="line"/>
      <point x="279" y="0" type="line"/>
      <point x="154" y="498" type="line"/>
      <point x="466" y="498" type="line"/>
      <point x="591" y="0" type="line"/>
      <point x="699" y="0" type="line"/>
      <point x="548" y="600" type="line"/>
      <point x="20" y="600" type="line"/>
    </contour>
  </outline>
</glyph>
<glyph name="baht" format="2">
  <advance width="750"/>
  <unicode hex="0E3F"/>
  <outline>
    <contour>
      <point x="433" y="-120" type="line"/>
      <point x="517" y="-120" type="line"/>
      <point x="485" y="5" type="line"/>
      <point x="609" y="29"/>
      <point x="693" y="124"/>
      <point x="693" y="253" type="curve" smooth="yes"/>
      <point x="693" y="389"/>
      <point x="596" y="509"/>
      <point x="470" y="555" type="curve"/>
      <point x="497" y="585"/>
      <point x="512" y="624"/>
      <point x="512" y="668" type="curve" smooth="yes"/>
      <point x="512" y="789"/>
      <point x="405" y="893"/>
      <point x="262" y="900" type="curve"/>
      <point x="239" y="990" type="line"/>
      <point x="155" y="990" type="line"/>
      <point x="178" y="900" type="line"/>
      <point x="-24" y="900" type="line"/>
      <point x="201" y="0" type="line"/>
      <point x="403" y="0" type="line"/>
    </contour>
    <contour>
      <point x="290" y="102" type="line"/>
      <point x="196" y="480" type="line"/>
      <point x="358" y="480" type="line" smooth="yes"/>
      <point x="477" y="480"/>
      <point x="579" y="381"/>
      <point x="579" y="265" type="curve" smooth="yes"/>
      <point x="579" y="169"/>
      <point x="507" y="102"/>
      <point x="406" y="102" type="curve" smooth="yes"/>
    </contour>
    <contour>
      <point x="172" y="576" type="line"/>
      <point x="115" y="798" type="line"/>
      <point x="265" y="798" type="line" smooth="yes"/>
      <point x="344" y="798"/>
      <point x="404" y="740"/>
      <point x="404" y="672" type="curve" smooth="yes"/>
      <point x="404" y="615"/>
      <point x="362" y="576"/>
      <point x="303" y="576" type="curve" smooth="yes"/>
    </contour>
  </outline>
</glyph>
<glyph name="Germandbls" format="2">
  <advance width="990"/>
  <unicode hex="1E9E"/>
  <outline>
    <contour>
      <point x="641" y="-12" type="curve" smooth="yes"/>
      <point x="804" y="-12"/>
      <point x="924" y="104"/>
      <point x="924" y="259" type="curve" smooth="yes"/>
      <point x="924" y="429"/>
      <point x="779" y="580"/>
      <point x="607" y="590" type="curve"/>
      <point x="696" y="899" type="line"/>
      <point x="696" y="900" type="line"/>
      <point x="-12" y="900" type="line"/>
      <point x="213" y="0" type="line"/>
      <point x="327" y="0" type="line"/>
      <point x="126" y="804" type="line"/>
      <point x="561" y="804" type="line"/>
      <point x="468" y="461" type="line"/>
      <point x="469" y="460" type="line"/>
      <point x="500" y="485"/>
      <point x="539" y="498"/>
      <point x="582" y="498" type="curve" smooth="yes"/>
      <point x="705" y="498"/>
      <point x="814" y="391"/>
      <point x="814" y="268" type="curve" smooth="yes"/>
      <point x="814" y="166"/>
      <point x="739" y="90"/>
      <point x="635" y="90" type="curve" smooth="yes"/>
      <point x="544" y="90"/>
      <point x="456" y="148"/>
      <point x="417" y="234" type="curve"/>
      <point x="383" y="104" type="line"/>
      <point x="448" y="31"/>
      <point x="542" y="-12"/>
    </contour>
  </outline>
</glyph>
<glyph name="endash" format="2">
  <advance width="720"/>
  <unicode hex="2013"/>
  <outline>
    <contour>
      <point x="72" y="252" type="line"/>
      <point x="672" y="252" type="line"/>
      <point x="648" y="348" type="line"/>
      <point x="48" y="348" type="line"/>
    </contour>
  </outline>
</glyph>
<glyph name="dblverticalbar" format="2">
  <advance width="480"/>
  <unicode hex="2016"/>
  <outline>
    <contour>
      <point x="305" y="-180" type="line"/>
      <point x="371" y="-180" type="line"/>
      <point x="371" y="960" type="line"/>
      <point x="305" y="960" type="line"/>
    </contour>
    <contour>
      <point x="65" y="-180" type="line"/>
      <point x="131" y="-180" type="line"/>
      <point x="131" y="960" type="line"/>
      <point x="65" y="960" type="line"/>
    </contour>
  </outline>
</glyph>
<glyph name="quoteleft" format="2">
  <advance width="270"/>
  <unicode hex="2018"/>
  <outline>
    <contour>
      <point x="-11" y="570" type="curve"/>
      <point x="97" y="570" type="line"/>
      <point x="47" y="678"/>
      <point x="38" y="787"/>
      <point x="65" y="900" type="curve"/>
      <point x="-37" y="900" type="line"/>
      <point x="-62" y="790"/>
      <point x="-53" y="677"/>
    </contour>
  </outline>
</glyph>
<glyph name="quoteright" format="2">
  <advance width="270"/>
  <unicode hex="2019"/>
  <outline>
    <contour>
      <point x="-12" y="570" type="curve"/>
      <point x="90" y="570" type="line"/>
      <point x="115" y="680"/>
      <point x="106" y="793"/>
      <point x="64" y="900" type="curve"/>
      <point x="-44" y="900" type="line"/>
      <point x="6" y="792"/>
      <point x="15" y="683"/>
    </contour>
  </outline>
</glyph>
<glyph name="quotesinglbase" format="2">
  <advance width="270"/>
  <unicode hex="201A"/>
  <outline>
    <contour>
      <point x="175" y="-180" type="curve"/>
      <point x="277" y="-180" type="line"/>
      <point x="302" y="-70"/>
      <point x="293" y="43"/>
      <point x="251" y="150" type="curve"/>
      <point x="143" y="150" type="line"/>
      <point x="193" y="42"/>
      <point x="202" y="-67"/>
    </contour>
  </outline>
</glyph>
<glyph name="dagger" format="2">
  <advance width="600"/>
  <unicode hex="2020"/>
  <outline>
    <contour>
      <point x="319" y="0" type="line"/>
      <point x="427" y="0" type="line"/>
      <point x="276" y="587" type="line"/>
      <point x="457" y="585" type="line"/>
      <point x="435" y="675" type="line"/>
      <point x="254" y="672" type="line"/>
      <point x="205" y="900" type="line"/>
      <point x="97" y="900" type="line"/>
      <point x="160" y="672" type="line"/>
      <point x="-21" y="675" type="line"/>
      <point x="1" y="585" type="line"/>
      <point x="181" y="587" type="line"/>
    </contour>
  </outline>
</glyph>
<glyph name="daggerdbl" format="2">
  <advance width="600"/>
  <unicode hex="2021"/>
  <outline>
    <contour>
      <point x="321" y="0" type="line"/>
      <point x="429" y="0" type="line"/>
      <point x="366" y="228" type="line"/>
      <point x="547" y="225" type="line"/>
      <point x="525" y="315" type="line"/>
      <point x="346" y="313" type="line"/>
      <point x="315" y="450" type="line"/>
      <point x="279" y="587" type="line"/>
      <point x="459" y="585" type="line"/>
      <point x="437" y="675" type="line"/>
      <point x="256" y="672" type="line"/>
      <point x="207" y="900" type="line"/>
      <point x="99" y="900" type="line"/>
      <point x="162" y="672" type="line"/>
      <point x="-19" y="675" type="line"/>
      <point x="3" y="585" type="line"/>
      <point x="182" y="587" type="line"/>
      <point x="213" y="450" type="line"/>
      <point x="249" y="313" type="line"/>
      <point x="69" y="315" type="line"/>
      <point x="91" y="225" type="line"/>
      <point x="272" y="228" type="line"/>
    </contour>
  </outline>
</glyph>
<glyph name="ellipsis" format="2">
  <advance width="1440"/>
  <unicode hex="2026"/>
  <outline>
    <contour>
      <point x="1269" y="-12" type="curve" smooth="yes"/>
      <point x="1305" y="-12"/>
      <point x="1335" y="17"/>
      <point x="1335" y="54" type="curve" smooth="yes"/>
      <point x="1335" y="99"/>
      <point x="1296" y="138"/>
      <point x="1251" y="138" type="curve" smooth="yes"/>
      <point x="1215" y="138"/>
      <point x="1185" y="110"/>
      <point x="1185" y="72" type="curve" smooth="yes"/>
      <point x="1185" y="27"/>
      <point x="1224" y="-12"/>
    </contour>
    <contour>
      <point x="309" y="-12" type="curve" smooth="yes"/>
      <point x="345" y="-12"/>
      <point x="375" y="17"/>
      <point x="375" y="54" type="curve" smooth="yes"/>
      <point x="375" y="99"/>
      <point x="336" y="138"/>
      <point x="291" y="138" type="curve" smooth="yes"/>
      <point x="255" y="138"/>
      <point x="225" y="110"/>
      <point x="225" y="72" type="curve" smooth="yes"/>
      <point x="225" y="27"/>
      <point x="264" y="-12"/>
    </contour>
    <contour>
      <point x="789" y="-12" type="curve" smooth="yes"/>
      <point x="825" y="-12"/>
      <point x="855" y="17"/>
      <point x="855" y="54" type="curve" smooth="yes"/>
      <point x="855" y="99"/>
      <point x="816" y="138"/>
      <point x="771" y="138" type="curve" smooth="yes"/>
      <point x="735" y="138"/>
      <point x="705" y="110"/>
      <point x="705" y="72" type="curve" smooth="yes"/>
      <point x="705" y="27"/>
      <point x="744" y="-12"/>
    </contour>
  </outline>
</glyph>
<glyph name="minute" format="2">
  <advance width="270"/>
  <unicode hex="2032"/>
  <outline>
    <contour>
      <point x="68" y="570" type="line"/>
      <point x="113" y="570" type="line"/>
      <point x="48" y="900" type="line"/>
      <point x="-79" y="900" type="line"/>
    </contour>
  </outline>
</glyph>
<glyph name="fraction" format="2">
  <advance width="60"/>
  <unicode hex="2044"/>
  <outline>
    <contour>
      <point x="-153" y="-30" type="line"/>
      <point x="-75" y="-30" type="line"/>
      <point x="139" y="930" type="line"/>
      <point x="61" y="930" type="line"/>
    </contour>
  </outline>
</glyph>
